<svg width="857" height="375" viewBox="0 0 857 375" fill="none" xmlns="http://www.w3.org/2000/svg">
<rect width="857" height="375" fill="white"/>
<rect x="53" y="99" width="130" height="65" fill="#515151"/>
<rect x="53" y="186" width="130" height="65" fill="#4079BC"/>
<rect x="206" y="186" width="130" height="65" fill="#24A9E6"/>
<rect x="53" y="266" width="130" height="65" fill="#FFCB29"/>
<rect x="206" y="266" width="130" height="65" fill="#00A858"/>
<rect x="206" y="99" width="130" height="65" fill="#F5F5F5"/>
<path d="M57.7754 58.5117C56.9707 58.5117 56.3379 58.7969 55.877 59.3672C55.416 59.9375 55.1855 60.7246 55.1855 61.7285C55.1855 62.7793 55.4062 63.5742 55.8477 64.1133C56.293 64.6523 56.9355 64.9219 57.7754 64.9219C58.1387 64.9219 58.4902 64.8867 58.8301 64.8164C59.1699 64.7422 59.5234 64.6484 59.8906 64.5352V65.7363C59.2188 65.9902 58.457 66.1172 57.6055 66.1172C56.3516 66.1172 55.3887 65.7383 54.7168 64.9805C54.0449 64.2188 53.709 63.1309 53.709 61.7168C53.709 60.8262 53.8711 60.0469 54.1953 59.3789C54.5234 58.7109 54.9961 58.1992 55.6133 57.8438C56.2305 57.4883 56.9551 57.3105 57.7871 57.3105C58.6621 57.3105 59.4707 57.4941 60.2129 57.8613L59.709 59.0273C59.4199 58.8906 59.1133 58.7715 58.7891 58.6699C58.4688 58.5645 58.1309 58.5117 57.7754 58.5117ZM67.3379 62.748C67.3379 63.8066 67.0664 64.6328 66.5234 65.2266C65.9805 65.8203 65.2246 66.1172 64.2559 66.1172C63.6504 66.1172 63.1152 65.9805 62.6504 65.707C62.1855 65.4336 61.8281 65.041 61.5781 64.5293C61.3281 64.0176 61.2031 63.4238 61.2031 62.748C61.2031 61.6973 61.4727 60.877 62.0117 60.2871C62.5508 59.6973 63.3105 59.4023 64.291 59.4023C65.2285 59.4023 65.9707 59.7051 66.5176 60.3105C67.0645 60.9121 67.3379 61.7246 67.3379 62.748ZM62.6211 62.748C62.6211 64.2441 63.1738 64.9922 64.2793 64.9922C65.373 64.9922 65.9199 64.2441 65.9199 62.748C65.9199 61.2676 65.3691 60.5273 64.2676 60.5273C63.6895 60.5273 63.2695 60.7188 63.0078 61.1016C62.75 61.4844 62.6211 62.0332 62.6211 62.748ZM72.2129 59.4023C72.4902 59.4023 72.7188 59.4219 72.8984 59.4609L72.7637 60.7441C72.5684 60.6973 72.3652 60.6738 72.1543 60.6738C71.6035 60.6738 71.1562 60.8535 70.8125 61.2129C70.4727 61.5723 70.3027 62.0391 70.3027 62.6133V66H68.9258V59.5195H70.0039L70.1855 60.6621H70.2559C70.4707 60.2754 70.75 59.9688 71.0938 59.7422C71.4414 59.5156 71.8145 59.4023 72.2129 59.4023ZM76.9355 66.1172C75.9277 66.1172 75.1387 65.8242 74.5684 65.2383C74.002 64.6484 73.7188 63.8379 73.7188 62.8066C73.7188 61.748 73.9824 60.916 74.5098 60.3105C75.0371 59.7051 75.7617 59.4023 76.6836 59.4023C77.5391 59.4023 78.2148 59.6621 78.7109 60.1816C79.207 60.7012 79.4551 61.416 79.4551 62.3262V63.0703H75.1367C75.1562 63.6992 75.3262 64.1836 75.6465 64.5234C75.9668 64.8594 76.418 65.0273 77 65.0273C77.3828 65.0273 77.7383 64.9922 78.0664 64.9219C78.3984 64.8477 78.7539 64.7266 79.1328 64.5586V65.6777C78.7969 65.8379 78.457 65.9512 78.1133 66.0176C77.7695 66.084 77.377 66.1172 76.9355 66.1172ZM76.6836 60.4453C76.2461 60.4453 75.8945 60.584 75.6289 60.8613C75.3672 61.1387 75.2109 61.543 75.1602 62.0742H78.1016C78.0938 61.5391 77.9648 61.1348 77.7148 60.8613C77.4648 60.584 77.1211 60.4453 76.6836 60.4453ZM85.373 64.1543C85.373 64.7871 85.1426 65.2734 84.6816 65.6133C84.2207 65.9492 83.5605 66.1172 82.7012 66.1172C81.8379 66.1172 81.1445 65.9863 80.6211 65.7246V64.5352C81.3828 64.8867 82.0918 65.0625 82.748 65.0625C83.5957 65.0625 84.0195 64.8066 84.0195 64.2949C84.0195 64.1309 83.9727 63.9941 83.8789 63.8848C83.7852 63.7754 83.6309 63.6621 83.416 63.5449C83.2012 63.4277 82.9023 63.2949 82.5195 63.1465C81.7734 62.8574 81.2676 62.5684 81.002 62.2793C80.7402 61.9902 80.6094 61.6152 80.6094 61.1543C80.6094 60.5996 80.832 60.1699 81.2773 59.8652C81.7266 59.5566 82.3359 59.4023 83.1055 59.4023C83.8672 59.4023 84.5879 59.5566 85.2676 59.8652L84.8223 60.9023C84.123 60.6133 83.5352 60.4688 83.0586 60.4688C82.332 60.4688 81.9688 60.6758 81.9688 61.0898C81.9688 61.293 82.0625 61.4648 82.25 61.6055C82.4414 61.7461 82.8555 61.9395 83.4922 62.1855C84.0273 62.3926 84.416 62.582 84.6582 62.7539C84.9004 62.9258 85.0801 63.125 85.1973 63.3516C85.3145 63.5742 85.373 63.8418 85.373 64.1543ZM91.3613 66H89.9844V59.5195H91.3613V66ZM89.9023 57.8027C89.9023 57.5566 89.9688 57.3672 90.1016 57.2344C90.2383 57.1016 90.4316 57.0352 90.6816 57.0352C90.9238 57.0352 91.1113 57.1016 91.2441 57.2344C91.3809 57.3672 91.4492 57.5566 91.4492 57.8027C91.4492 58.0371 91.3809 58.2227 91.2441 58.3594C91.1113 58.4922 90.9238 58.5586 90.6816 58.5586C90.4316 58.5586 90.2383 58.4922 90.1016 58.3594C89.9688 58.2227 89.9023 58.0371 89.9023 57.8027ZM95.5215 66.1172C94.7129 66.1172 94.082 65.8242 93.6289 65.2383C93.1758 64.6523 92.9492 63.8301 92.9492 62.7715C92.9492 61.709 93.1777 60.8828 93.6348 60.293C94.0957 59.6992 94.7324 59.4023 95.5449 59.4023C96.3965 59.4023 97.0449 59.7168 97.4902 60.3457H97.5605C97.4941 59.8809 97.4609 59.5137 97.4609 59.2441V56.8828H98.8438V66H97.7656L97.5254 65.1504H97.4609C97.0195 65.7949 96.373 66.1172 95.5215 66.1172ZM95.8906 65.0039C96.457 65.0039 96.8691 64.8457 97.127 64.5293C97.3848 64.209 97.5176 63.6914 97.5254 62.9766V62.7832C97.5254 61.9668 97.3926 61.3867 97.127 61.043C96.8613 60.6992 96.4453 60.5273 95.8789 60.5273C95.3945 60.5273 95.0215 60.7246 94.7598 61.1191C94.498 61.5098 94.3672 62.0684 94.3672 62.7949C94.3672 63.5137 94.4941 64.0625 94.748 64.4414C95.002 64.8164 95.3828 65.0039 95.8906 65.0039ZM103.643 66.1172C102.635 66.1172 101.846 65.8242 101.275 65.2383C100.709 64.6484 100.426 63.8379 100.426 62.8066C100.426 61.748 100.689 60.916 101.217 60.3105C101.744 59.7051 102.469 59.4023 103.391 59.4023C104.246 59.4023 104.922 59.6621 105.418 60.1816C105.914 60.7012 106.162 61.416 106.162 62.3262V63.0703H101.844C101.863 63.6992 102.033 64.1836 102.354 64.5234C102.674 64.8594 103.125 65.0273 103.707 65.0273C104.09 65.0273 104.445 64.9922 104.773 64.9219C105.105 64.8477 105.461 64.7266 105.84 64.5586V65.6777C105.504 65.8379 105.164 65.9512 104.82 66.0176C104.477 66.084 104.084 66.1172 103.643 66.1172ZM103.391 60.4453C102.953 60.4453 102.602 60.584 102.336 60.8613C102.074 61.1387 101.918 61.543 101.867 62.0742H104.809C104.801 61.5391 104.672 61.1348 104.422 60.8613C104.172 60.584 103.828 60.4453 103.391 60.4453ZM113.428 66H112.045V62.0156C112.045 61.5156 111.943 61.1426 111.74 60.8965C111.541 60.6504 111.223 60.5273 110.785 60.5273C110.203 60.5273 109.777 60.6992 109.508 61.043C109.238 61.3867 109.104 61.9629 109.104 62.7715V66H107.727V59.5195H108.805L108.998 60.3691H109.068C109.264 60.0605 109.541 59.8223 109.9 59.6543C110.26 59.4863 110.658 59.4023 111.096 59.4023C112.65 59.4023 113.428 60.1934 113.428 61.7754V66ZM117.758 65.0039C118.094 65.0039 118.43 64.9512 118.766 64.8457V65.8828C118.613 65.9492 118.416 66.0039 118.174 66.0469C117.936 66.0938 117.688 66.1172 117.43 66.1172C116.125 66.1172 115.473 65.4297 115.473 64.0547V60.5625H114.588V59.9531L115.537 59.4492L116.006 58.0781H116.855V59.5195H118.701V60.5625H116.855V64.0312C116.855 64.3633 116.938 64.6094 117.102 64.7695C117.27 64.9258 117.488 65.0039 117.758 65.0039ZM121.443 66H120.066V59.5195H121.443V66ZM119.984 57.8027C119.984 57.5566 120.051 57.3672 120.184 57.2344C120.32 57.1016 120.514 57.0352 120.764 57.0352C121.006 57.0352 121.193 57.1016 121.326 57.2344C121.463 57.3672 121.531 57.5566 121.531 57.8027C121.531 58.0371 121.463 58.2227 121.326 58.3594C121.193 58.4922 121.006 58.5586 120.764 58.5586C120.514 58.5586 120.32 58.4922 120.184 58.3594C120.051 58.2227 119.984 58.0371 119.984 57.8027ZM126.67 60.5625H125.088V66H123.705V60.5625H122.639V59.918L123.705 59.4961V59.0742C123.705 58.3086 123.885 57.7422 124.244 57.375C124.604 57.0039 125.152 56.8184 125.891 56.8184C126.375 56.8184 126.852 56.8984 127.32 57.0586L126.957 58.1016C126.617 57.9922 126.293 57.9375 125.984 57.9375C125.672 57.9375 125.443 58.0352 125.299 58.2305C125.158 58.4219 125.088 58.7109 125.088 59.0977V59.5195H126.67V60.5625ZM129.148 66H127.771V59.5195H129.148V66ZM127.689 57.8027C127.689 57.5566 127.756 57.3672 127.889 57.2344C128.025 57.1016 128.219 57.0352 128.469 57.0352C128.711 57.0352 128.898 57.1016 129.031 57.2344C129.168 57.3672 129.236 57.5566 129.236 57.8027C129.236 58.0371 129.168 58.2227 129.031 58.3594C128.898 58.4922 128.711 58.5586 128.469 58.5586C128.219 58.5586 128.025 58.4922 127.889 58.3594C127.756 58.2227 127.689 58.0371 127.689 57.8027ZM133.742 66.1172C132.762 66.1172 132.016 65.832 131.504 65.2617C130.996 64.6875 130.742 63.8652 130.742 62.7949C130.742 61.7051 131.008 60.8672 131.539 60.2812C132.074 59.6953 132.846 59.4023 133.854 59.4023C134.537 59.4023 135.152 59.5293 135.699 59.7832L135.283 60.8906C134.701 60.6641 134.221 60.5508 133.842 60.5508C132.721 60.5508 132.16 61.2949 132.16 62.7832C132.16 63.5098 132.299 64.0566 132.576 64.4238C132.857 64.7871 133.268 64.9688 133.807 64.9688C134.42 64.9688 135 64.8164 135.547 64.5117V65.7129C135.301 65.8574 135.037 65.9609 134.756 66.0234C134.479 66.0859 134.141 66.1172 133.742 66.1172ZM141.125 66L140.85 65.0977H140.803C140.49 65.4922 140.176 65.7617 139.859 65.9062C139.543 66.0469 139.137 66.1172 138.641 66.1172C138.004 66.1172 137.506 65.9453 137.146 65.6016C136.791 65.2578 136.613 64.7715 136.613 64.1426C136.613 63.4746 136.861 62.9707 137.357 62.6309C137.854 62.291 138.609 62.1055 139.625 62.0742L140.744 62.0391V61.6934C140.744 61.2793 140.646 60.9707 140.451 60.7676C140.26 60.5605 139.961 60.457 139.555 60.457C139.223 60.457 138.904 60.5059 138.6 60.6035C138.295 60.7012 138.002 60.8164 137.721 60.9492L137.275 59.9648C137.627 59.7812 138.012 59.6426 138.43 59.5488C138.848 59.4512 139.242 59.4023 139.613 59.4023C140.438 59.4023 141.059 59.582 141.477 59.9414C141.898 60.3008 142.109 60.8652 142.109 61.6348V66H141.125ZM139.074 65.0625C139.574 65.0625 139.975 64.9238 140.275 64.6465C140.58 64.3652 140.732 63.9727 140.732 63.4688V62.9062L139.9 62.9414C139.252 62.9648 138.779 63.0742 138.482 63.2695C138.189 63.4609 138.043 63.7559 138.043 64.1543C138.043 64.4434 138.129 64.668 138.301 64.8281C138.473 64.9844 138.73 65.0625 139.074 65.0625ZM146.217 66.1172C145.408 66.1172 144.777 65.8242 144.324 65.2383C143.871 64.6523 143.645 63.8301 143.645 62.7715C143.645 61.709 143.873 60.8828 144.33 60.293C144.791 59.6992 145.428 59.4023 146.24 59.4023C147.092 59.4023 147.74 59.7168 148.186 60.3457H148.256C148.189 59.8809 148.156 59.5137 148.156 59.2441V56.8828H149.539V66H148.461L148.221 65.1504H148.156C147.715 65.7949 147.068 66.1172 146.217 66.1172ZM146.586 65.0039C147.152 65.0039 147.564 64.8457 147.822 64.5293C148.08 64.209 148.213 63.6914 148.221 62.9766V62.7832C148.221 61.9668 148.088 61.3867 147.822 61.043C147.557 60.6992 147.141 60.5273 146.574 60.5273C146.09 60.5273 145.717 60.7246 145.455 61.1191C145.193 61.5098 145.062 62.0684 145.062 62.7949C145.062 63.5137 145.189 64.0625 145.443 64.4414C145.697 64.8164 146.078 65.0039 146.586 65.0039ZM155.562 66L155.287 65.0977H155.24C154.928 65.4922 154.613 65.7617 154.297 65.9062C153.98 66.0469 153.574 66.1172 153.078 66.1172C152.441 66.1172 151.943 65.9453 151.584 65.6016C151.229 65.2578 151.051 64.7715 151.051 64.1426C151.051 63.4746 151.299 62.9707 151.795 62.6309C152.291 62.291 153.047 62.1055 154.062 62.0742L155.182 62.0391V61.6934C155.182 61.2793 155.084 60.9707 154.889 60.7676C154.697 60.5605 154.398 60.457 153.992 60.457C153.66 60.457 153.342 60.5059 153.037 60.6035C152.732 60.7012 152.439 60.8164 152.158 60.9492L151.713 59.9648C152.064 59.7812 152.449 59.6426 152.867 59.5488C153.285 59.4512 153.68 59.4023 154.051 59.4023C154.875 59.4023 155.496 59.582 155.914 59.9414C156.336 60.3008 156.547 60.8652 156.547 61.6348V66H155.562ZM153.512 65.0625C154.012 65.0625 154.412 64.9238 154.713 64.6465C155.018 64.3652 155.17 63.9727 155.17 63.4688V62.9062L154.338 62.9414C153.689 62.9648 153.217 63.0742 152.92 63.2695C152.627 63.4609 152.48 63.7559 152.48 64.1543C152.48 64.4434 152.566 64.668 152.738 64.8281C152.91 64.9844 153.168 65.0625 153.512 65.0625ZM162.822 64.1543C162.822 64.7871 162.592 65.2734 162.131 65.6133C161.67 65.9492 161.01 66.1172 160.15 66.1172C159.287 66.1172 158.594 65.9863 158.07 65.7246V64.5352C158.832 64.8867 159.541 65.0625 160.197 65.0625C161.045 65.0625 161.469 64.8066 161.469 64.2949C161.469 64.1309 161.422 63.9941 161.328 63.8848C161.234 63.7754 161.08 63.6621 160.865 63.5449C160.65 63.4277 160.352 63.2949 159.969 63.1465C159.223 62.8574 158.717 62.5684 158.451 62.2793C158.189 61.9902 158.059 61.6152 158.059 61.1543C158.059 60.5996 158.281 60.1699 158.727 59.8652C159.176 59.5566 159.785 59.4023 160.555 59.4023C161.316 59.4023 162.037 59.5566 162.717 59.8652L162.271 60.9023C161.572 60.6133 160.984 60.4688 160.508 60.4688C159.781 60.4688 159.418 60.6758 159.418 61.0898C159.418 61.293 159.512 61.4648 159.699 61.6055C159.891 61.7461 160.305 61.9395 160.941 62.1855C161.477 62.3926 161.865 62.582 162.107 62.7539C162.35 62.9258 162.529 63.125 162.646 63.3516C162.764 63.5742 162.822 63.8418 162.822 64.1543Z" fill="black"/>
<line x1="53" y1="76.5" x2="336" y2="76.5" stroke="black"/>
<line x1="519" y1="76.5" x2="802" y2="76.5" stroke="black"/>
<path d="M99.7949 130.902L99.4727 132.566H101.055V133.551H99.2793L98.8105 136H97.7676L98.2363 133.551H96.7832L96.3145 136H95.2949L95.7402 133.551H94.2754V132.566H95.9336L96.2676 130.902H94.7207V129.918H96.4375L96.9062 127.445H97.9609L97.4922 129.918H98.9688L99.4375 127.445H100.457L99.9883 129.918H101.465V130.902H99.7949ZM96.9648 132.566H98.4297L98.7637 130.902H97.2988L96.9648 132.566ZM105.191 130.65C106.055 130.65 106.738 130.879 107.242 131.336C107.746 131.793 107.998 132.416 107.998 133.205C107.998 134.119 107.711 134.834 107.137 135.35C106.566 135.861 105.754 136.117 104.699 136.117C103.742 136.117 102.99 135.963 102.443 135.654V134.406C102.76 134.586 103.123 134.725 103.533 134.822C103.943 134.92 104.324 134.969 104.676 134.969C105.297 134.969 105.77 134.83 106.094 134.553C106.418 134.275 106.58 133.869 106.58 133.334C106.58 132.311 105.928 131.799 104.623 131.799C104.439 131.799 104.213 131.818 103.943 131.857C103.674 131.893 103.438 131.934 103.234 131.98L102.619 131.617L102.947 127.434H107.4V128.658H104.16L103.967 130.779C104.104 130.756 104.27 130.729 104.465 130.697C104.664 130.666 104.906 130.65 105.191 130.65ZM113.184 136H111.807V130.469C111.807 129.809 111.822 129.285 111.854 128.898C111.764 128.992 111.652 129.096 111.52 129.209C111.391 129.322 110.953 129.682 110.207 130.287L109.516 129.414L112.035 127.434H113.184V136ZM118.902 130.65C119.766 130.65 120.449 130.879 120.953 131.336C121.457 131.793 121.709 132.416 121.709 133.205C121.709 134.119 121.422 134.834 120.848 135.35C120.277 135.861 119.465 136.117 118.41 136.117C117.453 136.117 116.701 135.963 116.154 135.654V134.406C116.471 134.586 116.834 134.725 117.244 134.822C117.654 134.92 118.035 134.969 118.387 134.969C119.008 134.969 119.48 134.83 119.805 134.553C120.129 134.275 120.291 133.869 120.291 133.334C120.291 132.311 119.639 131.799 118.334 131.799C118.15 131.799 117.924 131.818 117.654 131.857C117.385 131.893 117.148 131.934 116.945 131.98L116.33 131.617L116.658 127.434H121.111V128.658H117.871L117.678 130.779C117.814 130.756 117.98 130.729 118.176 130.697C118.375 130.666 118.617 130.65 118.902 130.65ZM126.895 136H125.518V130.469C125.518 129.809 125.533 129.285 125.564 128.898C125.475 128.992 125.363 129.096 125.23 129.209C125.102 129.322 124.664 129.682 123.918 130.287L123.227 129.414L125.746 127.434H126.895V136ZM132.613 130.65C133.477 130.65 134.16 130.879 134.664 131.336C135.168 131.793 135.42 132.416 135.42 133.205C135.42 134.119 135.133 134.834 134.559 135.35C133.988 135.861 133.176 136.117 132.121 136.117C131.164 136.117 130.412 135.963 129.865 135.654V134.406C130.182 134.586 130.545 134.725 130.955 134.822C131.365 134.92 131.746 134.969 132.098 134.969C132.719 134.969 133.191 134.83 133.516 134.553C133.84 134.275 134.002 133.869 134.002 133.334C134.002 132.311 133.35 131.799 132.045 131.799C131.861 131.799 131.635 131.818 131.365 131.857C131.096 131.893 130.859 131.934 130.656 131.98L130.041 131.617L130.369 127.434H134.822V128.658H131.582L131.389 130.779C131.525 130.756 131.691 130.729 131.887 130.697C132.086 130.666 132.328 130.65 132.613 130.65ZM140.605 136H139.229V130.469C139.229 129.809 139.244 129.285 139.275 128.898C139.186 128.992 139.074 129.096 138.941 129.209C138.812 129.322 138.375 129.682 137.629 130.287L136.938 129.414L139.457 127.434H140.605V136Z" fill="black"/>
<path d="M252.795 130.902L252.473 132.566H254.055V133.551H252.279L251.811 136H250.768L251.236 133.551H249.783L249.314 136H248.295L248.74 133.551H247.275V132.566H248.934L249.268 130.902H247.721V129.918H249.438L249.906 127.445H250.961L250.492 129.918H251.969L252.438 127.445H253.457L252.988 129.918H254.465V130.902H252.795ZM249.965 132.566H251.43L251.764 130.902H250.299L249.965 132.566ZM258.994 130.562H257.412V136H256.029V130.562H254.963V129.918L256.029 129.496V129.074C256.029 128.309 256.209 127.742 256.568 127.375C256.928 127.004 257.477 126.818 258.215 126.818C258.699 126.818 259.176 126.898 259.645 127.059L259.281 128.102C258.941 127.992 258.617 127.938 258.309 127.938C257.996 127.938 257.768 128.035 257.623 128.23C257.482 128.422 257.412 128.711 257.412 129.098V129.52H258.994V130.562ZM262.551 130.65C263.414 130.65 264.098 130.879 264.602 131.336C265.105 131.793 265.357 132.416 265.357 133.205C265.357 134.119 265.07 134.834 264.496 135.35C263.926 135.861 263.113 136.117 262.059 136.117C261.102 136.117 260.35 135.963 259.803 135.654V134.406C260.119 134.586 260.482 134.725 260.893 134.822C261.303 134.92 261.684 134.969 262.035 134.969C262.656 134.969 263.129 134.83 263.453 134.553C263.777 134.275 263.939 133.869 263.939 133.334C263.939 132.311 263.287 131.799 261.982 131.799C261.799 131.799 261.572 131.818 261.303 131.857C261.033 131.893 260.797 131.934 260.594 131.98L259.979 131.617L260.307 127.434H264.76V128.658H261.52L261.326 130.779C261.463 130.756 261.629 130.729 261.824 130.697C262.023 130.666 262.266 130.65 262.551 130.65ZM270.209 130.562H268.627V136H267.244V130.562H266.178V129.918L267.244 129.496V129.074C267.244 128.309 267.424 127.742 267.783 127.375C268.143 127.004 268.691 126.818 269.43 126.818C269.914 126.818 270.391 126.898 270.859 127.059L270.496 128.102C270.156 127.992 269.832 127.938 269.523 127.938C269.211 127.938 268.982 128.035 268.838 128.23C268.697 128.422 268.627 128.711 268.627 129.098V129.52H270.209V130.562ZM273.766 130.65C274.629 130.65 275.312 130.879 275.816 131.336C276.32 131.793 276.572 132.416 276.572 133.205C276.572 134.119 276.285 134.834 275.711 135.35C275.141 135.861 274.328 136.117 273.273 136.117C272.316 136.117 271.564 135.963 271.018 135.654V134.406C271.334 134.586 271.697 134.725 272.107 134.822C272.518 134.92 272.898 134.969 273.25 134.969C273.871 134.969 274.344 134.83 274.668 134.553C274.992 134.275 275.154 133.869 275.154 133.334C275.154 132.311 274.502 131.799 273.197 131.799C273.014 131.799 272.787 131.818 272.518 131.857C272.248 131.893 272.012 131.934 271.809 131.98L271.193 131.617L271.521 127.434H275.975V128.658H272.734L272.541 130.779C272.678 130.756 272.844 130.729 273.039 130.697C273.238 130.666 273.48 130.65 273.766 130.65ZM281.424 130.562H279.842V136H278.459V130.562H277.393V129.918L278.459 129.496V129.074C278.459 128.309 278.639 127.742 278.998 127.375C279.357 127.004 279.906 126.818 280.645 126.818C281.129 126.818 281.605 126.898 282.074 127.059L281.711 128.102C281.371 127.992 281.047 127.938 280.738 127.938C280.426 127.938 280.197 128.035 280.053 128.23C279.912 128.422 279.842 128.711 279.842 129.098V129.52H281.424V130.562ZM284.98 130.65C285.844 130.65 286.527 130.879 287.031 131.336C287.535 131.793 287.787 132.416 287.787 133.205C287.787 134.119 287.5 134.834 286.926 135.35C286.355 135.861 285.543 136.117 284.488 136.117C283.531 136.117 282.779 135.963 282.232 135.654V134.406C282.549 134.586 282.912 134.725 283.322 134.822C283.732 134.92 284.113 134.969 284.465 134.969C285.086 134.969 285.559 134.83 285.883 134.553C286.207 134.275 286.369 133.869 286.369 133.334C286.369 132.311 285.717 131.799 284.412 131.799C284.229 131.799 284.002 131.818 283.732 131.857C283.463 131.893 283.227 131.934 283.023 131.98L282.408 131.617L282.736 127.434H287.189V128.658H283.949L283.756 130.779C283.893 130.756 284.059 130.729 284.254 130.697C284.453 130.666 284.695 130.65 284.98 130.65Z" fill="black"/>
<path d="M251.795 217.902L251.473 219.566H253.055V220.551H251.279L250.811 223H249.768L250.236 220.551H248.783L248.314 223H247.295L247.74 220.551H246.275V219.566H247.934L248.268 217.902H246.721V216.918H248.438L248.906 214.445H249.961L249.492 216.918H250.969L251.438 214.445H252.457L251.988 216.918H253.465V217.902H251.795ZM248.965 219.566H250.43L250.764 217.902H249.299L248.965 219.566ZM260.092 223H254.285V221.957L256.494 219.736C257.146 219.068 257.578 218.596 257.789 218.318C258.004 218.037 258.16 217.773 258.258 217.527C258.355 217.281 258.404 217.018 258.404 216.736C258.404 216.35 258.287 216.045 258.053 215.822C257.822 215.6 257.502 215.488 257.092 215.488C256.764 215.488 256.445 215.549 256.137 215.67C255.832 215.791 255.479 216.01 255.076 216.326L254.332 215.418C254.809 215.016 255.271 214.73 255.721 214.562C256.17 214.395 256.648 214.311 257.156 214.311C257.953 214.311 258.592 214.52 259.072 214.938C259.553 215.352 259.793 215.91 259.793 216.613C259.793 217 259.723 217.367 259.582 217.715C259.445 218.062 259.232 218.422 258.943 218.793C258.658 219.16 258.182 219.658 257.514 220.287L256.025 221.729V221.787H260.092V223ZM267.252 221.131H266.098V223H264.756V221.131H260.842V220.07L264.756 214.41H266.098V219.988H267.252V221.131ZM264.756 219.988V217.838C264.756 217.072 264.775 216.445 264.814 215.957H264.768C264.658 216.215 264.486 216.527 264.252 216.895L262.125 219.988H264.756ZM272.508 223L272.232 222.098H272.186C271.873 222.492 271.559 222.762 271.242 222.906C270.926 223.047 270.52 223.117 270.023 223.117C269.387 223.117 268.889 222.945 268.529 222.602C268.174 222.258 267.996 221.771 267.996 221.143C267.996 220.475 268.244 219.971 268.74 219.631C269.236 219.291 269.992 219.105 271.008 219.074L272.127 219.039V218.693C272.127 218.279 272.029 217.971 271.834 217.768C271.643 217.561 271.344 217.457 270.938 217.457C270.605 217.457 270.287 217.506 269.982 217.604C269.678 217.701 269.385 217.816 269.104 217.949L268.658 216.965C269.01 216.781 269.395 216.643 269.812 216.549C270.23 216.451 270.625 216.402 270.996 216.402C271.82 216.402 272.441 216.582 272.859 216.941C273.281 217.301 273.492 217.865 273.492 218.635V223H272.508ZM270.457 222.062C270.957 222.062 271.357 221.924 271.658 221.646C271.963 221.365 272.115 220.973 272.115 220.469V219.906L271.283 219.941C270.635 219.965 270.162 220.074 269.865 220.27C269.572 220.461 269.426 220.756 269.426 221.154C269.426 221.443 269.512 221.668 269.684 221.828C269.855 221.984 270.113 222.062 270.457 222.062ZM280.752 218.09C280.752 219.777 280.412 221.037 279.732 221.869C279.053 222.701 278.029 223.117 276.662 223.117C276.143 223.117 275.77 223.086 275.543 223.023V221.869C275.891 221.967 276.24 222.016 276.592 222.016C277.521 222.016 278.215 221.766 278.672 221.266C279.129 220.766 279.379 219.98 279.422 218.91H279.352C279.121 219.262 278.842 219.516 278.514 219.672C278.189 219.828 277.809 219.906 277.371 219.906C276.613 219.906 276.018 219.67 275.584 219.197C275.15 218.725 274.934 218.076 274.934 217.252C274.934 216.357 275.184 215.646 275.684 215.119C276.188 214.588 276.873 214.322 277.74 214.322C278.35 214.322 278.881 214.471 279.334 214.768C279.787 215.064 280.137 215.496 280.383 216.062C280.629 216.625 280.752 217.301 280.752 218.09ZM277.764 215.465C277.287 215.465 276.922 215.621 276.668 215.934C276.414 216.242 276.287 216.678 276.287 217.24C276.287 217.729 276.404 218.113 276.639 218.395C276.877 218.672 277.236 218.811 277.717 218.811C278.182 218.811 278.572 218.672 278.889 218.395C279.205 218.117 279.363 217.793 279.363 217.422C279.363 217.074 279.295 216.75 279.158 216.449C279.025 216.145 278.838 215.904 278.596 215.729C278.354 215.553 278.076 215.465 277.764 215.465ZM285.1 223.117C284.092 223.117 283.303 222.824 282.732 222.238C282.166 221.648 281.883 220.838 281.883 219.807C281.883 218.748 282.146 217.916 282.674 217.311C283.201 216.705 283.926 216.402 284.848 216.402C285.703 216.402 286.379 216.662 286.875 217.182C287.371 217.701 287.619 218.416 287.619 219.326V220.07H283.301C283.32 220.699 283.49 221.184 283.811 221.523C284.131 221.859 284.582 222.027 285.164 222.027C285.547 222.027 285.902 221.992 286.23 221.922C286.562 221.848 286.918 221.727 287.297 221.559V222.678C286.961 222.838 286.621 222.951 286.277 223.018C285.934 223.084 285.541 223.117 285.1 223.117ZM284.848 217.445C284.41 217.445 284.059 217.584 283.793 217.861C283.531 218.139 283.375 218.543 283.324 219.074H286.266C286.258 218.539 286.129 218.135 285.879 217.861C285.629 217.584 285.285 217.445 284.848 217.445ZM288.75 219.35C288.75 215.998 290.115 214.322 292.846 214.322C293.275 214.322 293.639 214.355 293.936 214.422V215.57C293.639 215.484 293.295 215.441 292.904 215.441C291.986 215.441 291.297 215.688 290.836 216.18C290.375 216.672 290.125 217.461 290.086 218.547H290.156C290.34 218.23 290.598 217.986 290.93 217.814C291.262 217.639 291.652 217.551 292.102 217.551C292.879 217.551 293.484 217.789 293.918 218.266C294.352 218.742 294.568 219.389 294.568 220.205C294.568 221.104 294.316 221.814 293.812 222.338C293.312 222.857 292.629 223.117 291.762 223.117C291.148 223.117 290.615 222.971 290.162 222.678C289.709 222.381 289.359 221.951 289.113 221.389C288.871 220.822 288.75 220.143 288.75 219.35ZM291.738 221.98C292.211 221.98 292.574 221.828 292.828 221.523C293.086 221.219 293.215 220.783 293.215 220.217C293.215 219.725 293.094 219.338 292.852 219.057C292.613 218.775 292.254 218.635 291.773 218.635C291.477 218.635 291.203 218.699 290.953 218.828C290.703 218.953 290.506 219.127 290.361 219.35C290.217 219.568 290.145 219.793 290.145 220.023C290.145 220.574 290.293 221.039 290.59 221.418C290.891 221.793 291.273 221.98 291.738 221.98Z" fill="black"/>
<path d="M251.795 297.902L251.473 299.566H253.055V300.551H251.279L250.811 303H249.768L250.236 300.551H248.783L248.314 303H247.295L247.74 300.551H246.275V299.566H247.934L248.268 297.902H246.721V296.918H248.438L248.906 294.445H249.961L249.492 296.918H250.969L251.438 294.445H252.457L251.988 296.918H253.465V297.902H251.795ZM248.965 299.566H250.43L250.764 297.902H249.299L248.965 299.566ZM260.092 298.717C260.092 300.205 259.852 301.311 259.371 302.033C258.895 302.756 258.164 303.117 257.18 303.117C256.227 303.117 255.504 302.744 255.012 301.998C254.52 301.252 254.273 300.158 254.273 298.717C254.273 297.205 254.512 296.092 254.988 295.377C255.469 294.658 256.199 294.299 257.18 294.299C258.137 294.299 258.861 294.674 259.354 295.424C259.846 296.174 260.092 297.271 260.092 298.717ZM255.668 298.717C255.668 299.885 255.787 300.719 256.025 301.219C256.268 301.719 256.652 301.969 257.18 301.969C257.707 301.969 258.092 301.715 258.334 301.207C258.58 300.699 258.703 299.869 258.703 298.717C258.703 297.568 258.58 296.738 258.334 296.227C258.092 295.711 257.707 295.453 257.18 295.453C256.652 295.453 256.268 295.705 256.025 296.209C255.787 296.713 255.668 297.549 255.668 298.717ZM266.947 298.717C266.947 300.205 266.707 301.311 266.227 302.033C265.75 302.756 265.02 303.117 264.035 303.117C263.082 303.117 262.359 302.744 261.867 301.998C261.375 301.252 261.129 300.158 261.129 298.717C261.129 297.205 261.367 296.092 261.844 295.377C262.324 294.658 263.055 294.299 264.035 294.299C264.992 294.299 265.717 294.674 266.209 295.424C266.701 296.174 266.947 297.271 266.947 298.717ZM262.523 298.717C262.523 299.885 262.643 300.719 262.881 301.219C263.123 301.719 263.508 301.969 264.035 301.969C264.562 301.969 264.947 301.715 265.189 301.207C265.436 300.699 265.559 299.869 265.559 298.717C265.559 297.568 265.436 296.738 265.189 296.227C264.947 295.711 264.562 295.453 264.035 295.453C263.508 295.453 263.123 295.705 262.881 296.209C262.643 296.713 262.523 297.549 262.523 298.717ZM273.914 303L273.059 300.621H269.783L268.945 303H267.469L270.674 294.398H272.197L275.402 303H273.914ZM272.689 299.414L271.887 297.082C271.828 296.926 271.746 296.68 271.641 296.344C271.539 296.008 271.469 295.762 271.43 295.605C271.324 296.086 271.17 296.611 270.967 297.182L270.193 299.414H272.689ZM278.824 294.322C279.637 294.322 280.279 294.51 280.752 294.885C281.225 295.256 281.461 295.754 281.461 296.379C281.461 297.258 280.934 297.957 279.879 298.477C280.551 298.812 281.027 299.166 281.309 299.537C281.594 299.908 281.736 300.322 281.736 300.779C281.736 301.486 281.477 302.053 280.957 302.479C280.438 302.904 279.734 303.117 278.848 303.117C277.918 303.117 277.197 302.918 276.686 302.52C276.174 302.121 275.918 301.557 275.918 300.826C275.918 300.35 276.051 299.922 276.316 299.543C276.586 299.16 277.025 298.82 277.635 298.523C277.111 298.211 276.738 297.881 276.516 297.533C276.293 297.186 276.182 296.795 276.182 296.361C276.182 295.74 276.426 295.246 276.914 294.879C277.402 294.508 278.039 294.322 278.824 294.322ZM277.236 300.779C277.236 301.186 277.379 301.502 277.664 301.729C277.949 301.951 278.336 302.062 278.824 302.062C279.328 302.062 279.719 301.947 279.996 301.717C280.277 301.482 280.418 301.166 280.418 300.768C280.418 300.451 280.289 300.162 280.031 299.9C279.773 299.639 279.383 299.396 278.859 299.174L278.689 299.098C278.174 299.324 277.803 299.574 277.576 299.848C277.35 300.117 277.236 300.428 277.236 300.779ZM278.812 295.383C278.422 295.383 278.107 295.48 277.869 295.676C277.631 295.867 277.512 296.129 277.512 296.461C277.512 296.664 277.555 296.846 277.641 297.006C277.727 297.166 277.852 297.312 278.016 297.445C278.18 297.574 278.457 297.73 278.848 297.914C279.316 297.707 279.646 297.49 279.838 297.264C280.033 297.033 280.131 296.766 280.131 296.461C280.131 296.129 280.01 295.867 279.768 295.676C279.529 295.48 279.211 295.383 278.812 295.383ZM285.691 297.65C286.555 297.65 287.238 297.879 287.742 298.336C288.246 298.793 288.498 299.416 288.498 300.205C288.498 301.119 288.211 301.834 287.637 302.35C287.066 302.861 286.254 303.117 285.199 303.117C284.242 303.117 283.49 302.963 282.943 302.654V301.406C283.26 301.586 283.623 301.725 284.033 301.822C284.443 301.92 284.824 301.969 285.176 301.969C285.797 301.969 286.27 301.83 286.594 301.553C286.918 301.275 287.08 300.869 287.08 300.334C287.08 299.311 286.428 298.799 285.123 298.799C284.939 298.799 284.713 298.818 284.443 298.857C284.174 298.893 283.938 298.934 283.734 298.98L283.119 298.617L283.447 294.434H287.9V295.658H284.66L284.467 297.779C284.604 297.756 284.77 297.729 284.965 297.697C285.164 297.666 285.406 297.65 285.691 297.65ZM292.535 294.322C293.348 294.322 293.99 294.51 294.463 294.885C294.936 295.256 295.172 295.754 295.172 296.379C295.172 297.258 294.645 297.957 293.59 298.477C294.262 298.812 294.738 299.166 295.02 299.537C295.305 299.908 295.447 300.322 295.447 300.779C295.447 301.486 295.188 302.053 294.668 302.479C294.148 302.904 293.445 303.117 292.559 303.117C291.629 303.117 290.908 302.918 290.396 302.52C289.885 302.121 289.629 301.557 289.629 300.826C289.629 300.35 289.762 299.922 290.027 299.543C290.297 299.16 290.736 298.82 291.346 298.523C290.822 298.211 290.449 297.881 290.227 297.533C290.004 297.186 289.893 296.795 289.893 296.361C289.893 295.74 290.137 295.246 290.625 294.879C291.113 294.508 291.75 294.322 292.535 294.322ZM290.947 300.779C290.947 301.186 291.09 301.502 291.375 301.729C291.66 301.951 292.047 302.062 292.535 302.062C293.039 302.062 293.43 301.947 293.707 301.717C293.988 301.482 294.129 301.166 294.129 300.768C294.129 300.451 294 300.162 293.742 299.9C293.484 299.639 293.094 299.396 292.57 299.174L292.4 299.098C291.885 299.324 291.514 299.574 291.287 299.848C291.061 300.117 290.947 300.428 290.947 300.779ZM292.523 295.383C292.133 295.383 291.818 295.48 291.58 295.676C291.342 295.867 291.223 296.129 291.223 296.461C291.223 296.664 291.266 296.846 291.352 297.006C291.438 297.166 291.562 297.312 291.727 297.445C291.891 297.574 292.168 297.73 292.559 297.914C293.027 297.707 293.357 297.49 293.549 297.264C293.744 297.033 293.842 296.766 293.842 296.461C293.842 296.129 293.721 295.867 293.479 295.676C293.24 295.48 292.922 295.383 292.523 295.383Z" fill="black"/>
<path d="M102.795 217.902L102.473 219.566H104.055V220.551H102.279L101.811 223H100.768L101.236 220.551H99.7832L99.3145 223H98.2949L98.7402 220.551H97.2754V219.566H98.9336L99.2676 217.902H97.7207V216.918H99.4375L99.9062 214.445H100.961L100.492 216.918H101.969L102.438 214.445H103.457L102.988 216.918H104.465V217.902H102.795ZM99.9648 219.566H101.43L101.764 217.902H100.299L99.9648 219.566ZM111.396 221.131H110.242V223H108.9V221.131H104.986V220.07L108.9 214.41H110.242V219.988H111.396V221.131ZM108.9 219.988V217.838C108.9 217.072 108.92 216.445 108.959 215.957H108.912C108.803 216.215 108.631 216.527 108.396 216.895L106.27 219.988H108.9ZM117.947 218.717C117.947 220.205 117.707 221.311 117.227 222.033C116.75 222.756 116.02 223.117 115.035 223.117C114.082 223.117 113.359 222.744 112.867 221.998C112.375 221.252 112.129 220.158 112.129 218.717C112.129 217.205 112.367 216.092 112.844 215.377C113.324 214.658 114.055 214.299 115.035 214.299C115.992 214.299 116.717 214.674 117.209 215.424C117.701 216.174 117.947 217.271 117.947 218.717ZM113.523 218.717C113.523 219.885 113.643 220.719 113.881 221.219C114.123 221.719 114.508 221.969 115.035 221.969C115.562 221.969 115.947 221.715 116.189 221.207C116.436 220.699 116.559 219.869 116.559 218.717C116.559 217.568 116.436 216.738 116.189 216.227C115.947 215.711 115.562 215.453 115.035 215.453C114.508 215.453 114.123 215.705 113.881 216.209C113.643 216.713 113.523 217.549 113.523 218.717ZM119.969 223L123.355 215.658H118.902V214.445H124.826V215.406L121.457 223H119.969ZM131.646 218.09C131.646 219.777 131.307 221.037 130.627 221.869C129.947 222.701 128.924 223.117 127.557 223.117C127.037 223.117 126.664 223.086 126.438 223.023V221.869C126.785 221.967 127.135 222.016 127.486 222.016C128.416 222.016 129.109 221.766 129.566 221.266C130.023 220.766 130.273 219.98 130.316 218.91H130.246C130.016 219.262 129.736 219.516 129.408 219.672C129.084 219.828 128.703 219.906 128.266 219.906C127.508 219.906 126.912 219.67 126.479 219.197C126.045 218.725 125.828 218.076 125.828 217.252C125.828 216.357 126.078 215.646 126.578 215.119C127.082 214.588 127.768 214.322 128.635 214.322C129.244 214.322 129.775 214.471 130.229 214.768C130.682 215.064 131.031 215.496 131.277 216.062C131.523 216.625 131.646 217.301 131.646 218.09ZM128.658 215.465C128.182 215.465 127.816 215.621 127.562 215.934C127.309 216.242 127.182 216.678 127.182 217.24C127.182 217.729 127.299 218.113 127.533 218.395C127.771 218.672 128.131 218.811 128.611 218.811C129.076 218.811 129.467 218.672 129.783 218.395C130.1 218.117 130.258 217.793 130.258 217.422C130.258 217.074 130.189 216.75 130.053 216.449C129.92 216.145 129.732 215.904 129.49 215.729C129.248 215.553 128.971 215.465 128.658 215.465ZM136.475 216.402C137.283 216.402 137.912 216.695 138.361 217.281C138.814 217.867 139.041 218.689 139.041 219.748C139.041 220.811 138.812 221.639 138.355 222.232C137.898 222.822 137.264 223.117 136.451 223.117C135.631 223.117 134.994 222.822 134.541 222.232H134.447L134.195 223H133.164V213.883H134.541V216.051C134.541 216.211 134.533 216.449 134.518 216.766C134.502 217.082 134.49 217.283 134.482 217.369H134.541C134.979 216.725 135.623 216.402 136.475 216.402ZM136.117 217.527C135.562 217.527 135.162 217.691 134.916 218.02C134.674 218.344 134.549 218.889 134.541 219.654V219.748C134.541 220.537 134.666 221.109 134.916 221.465C135.166 221.816 135.574 221.992 136.141 221.992C136.629 221.992 136.998 221.799 137.248 221.412C137.502 221.025 137.629 220.467 137.629 219.736C137.629 218.264 137.125 217.527 136.117 217.527ZM143.254 223.117C142.273 223.117 141.527 222.832 141.016 222.262C140.508 221.688 140.254 220.865 140.254 219.795C140.254 218.705 140.52 217.867 141.051 217.281C141.586 216.695 142.357 216.402 143.365 216.402C144.049 216.402 144.664 216.529 145.211 216.783L144.795 217.891C144.213 217.664 143.732 217.551 143.354 217.551C142.232 217.551 141.672 218.295 141.672 219.783C141.672 220.51 141.811 221.057 142.088 221.424C142.369 221.787 142.779 221.969 143.318 221.969C143.932 221.969 144.512 221.816 145.059 221.512V222.713C144.812 222.857 144.549 222.961 144.268 223.023C143.99 223.086 143.652 223.117 143.254 223.117Z" fill="black"/>
<path d="M99.7949 297.902L99.4727 299.566H101.055V300.551H99.2793L98.8105 303H97.7676L98.2363 300.551H96.7832L96.3145 303H95.2949L95.7402 300.551H94.2754V299.566H95.9336L96.2676 297.902H94.7207V296.918H96.4375L96.9062 294.445H97.9609L97.4922 296.918H98.9688L99.4375 294.445H100.457L99.9883 296.918H101.465V297.902H99.7949ZM96.9648 299.566H98.4297L98.7637 297.902H97.2988L96.9648 299.566ZM104.277 303H102.889V294.434H107.723V295.617H104.277V298.295H107.506V299.484H104.277V303ZM110.664 303H109.275V294.434H114.109V295.617H110.664V298.295H113.893V299.484H110.664V303ZM119.307 295.512C118.502 295.512 117.869 295.797 117.408 296.367C116.947 296.938 116.717 297.725 116.717 298.729C116.717 299.779 116.938 300.574 117.379 301.113C117.824 301.652 118.467 301.922 119.307 301.922C119.67 301.922 120.021 301.887 120.361 301.816C120.701 301.742 121.055 301.648 121.422 301.535V302.736C120.75 302.99 119.988 303.117 119.137 303.117C117.883 303.117 116.92 302.738 116.248 301.98C115.576 301.219 115.24 300.131 115.24 298.717C115.24 297.826 115.402 297.047 115.727 296.379C116.055 295.711 116.527 295.199 117.145 294.844C117.762 294.488 118.486 294.311 119.318 294.311C120.193 294.311 121.002 294.494 121.744 294.861L121.24 296.027C120.951 295.891 120.645 295.771 120.32 295.67C120 295.564 119.662 295.512 119.307 295.512ZM123.268 294.434H125.811C126.99 294.434 127.842 294.605 128.365 294.949C128.893 295.293 129.156 295.836 129.156 296.578C129.156 297.078 129.027 297.494 128.77 297.826C128.512 298.158 128.141 298.367 127.656 298.453V298.512C128.258 298.625 128.699 298.85 128.98 299.186C129.266 299.518 129.408 299.969 129.408 300.539C129.408 301.309 129.139 301.912 128.6 302.35C128.064 302.783 127.318 303 126.361 303H123.268V294.434ZM124.668 297.973H126.016C126.602 297.973 127.029 297.881 127.299 297.697C127.568 297.51 127.703 297.193 127.703 296.748C127.703 296.346 127.557 296.055 127.264 295.875C126.975 295.695 126.514 295.605 125.881 295.605H124.668V297.973ZM124.668 299.109V301.822H126.156C126.742 301.822 127.184 301.711 127.48 301.488C127.781 301.262 127.932 300.906 127.932 300.422C127.932 299.977 127.779 299.646 127.475 299.432C127.17 299.217 126.707 299.109 126.086 299.109H124.668ZM136.393 303H130.586V301.957L132.795 299.736C133.447 299.068 133.879 298.596 134.09 298.318C134.305 298.037 134.461 297.773 134.559 297.527C134.656 297.281 134.705 297.018 134.705 296.736C134.705 296.35 134.588 296.045 134.354 295.822C134.123 295.6 133.803 295.488 133.393 295.488C133.064 295.488 132.746 295.549 132.438 295.67C132.133 295.791 131.779 296.01 131.377 296.326L130.633 295.418C131.109 295.016 131.572 294.73 132.021 294.562C132.471 294.395 132.949 294.311 133.457 294.311C134.254 294.311 134.893 294.52 135.373 294.938C135.854 295.352 136.094 295.91 136.094 296.613C136.094 297 136.023 297.367 135.883 297.715C135.746 298.062 135.533 298.422 135.244 298.793C134.959 299.16 134.482 299.658 133.814 300.287L132.326 301.729V301.787H136.393V303ZM143.236 298.09C143.236 299.777 142.896 301.037 142.217 301.869C141.537 302.701 140.514 303.117 139.146 303.117C138.627 303.117 138.254 303.086 138.027 303.023V301.869C138.375 301.967 138.725 302.016 139.076 302.016C140.006 302.016 140.699 301.766 141.156 301.266C141.613 300.766 141.863 299.98 141.906 298.91H141.836C141.605 299.262 141.326 299.516 140.998 299.672C140.674 299.828 140.293 299.906 139.855 299.906C139.098 299.906 138.502 299.67 138.068 299.197C137.635 298.725 137.418 298.076 137.418 297.252C137.418 296.357 137.668 295.646 138.168 295.119C138.672 294.588 139.357 294.322 140.225 294.322C140.834 294.322 141.365 294.471 141.818 294.768C142.271 295.064 142.621 295.496 142.867 296.062C143.113 296.625 143.236 297.301 143.236 298.09ZM140.248 295.465C139.771 295.465 139.406 295.621 139.152 295.934C138.898 296.242 138.771 296.678 138.771 297.24C138.771 297.729 138.889 298.113 139.123 298.395C139.361 298.672 139.721 298.811 140.201 298.811C140.666 298.811 141.057 298.672 141.373 298.395C141.689 298.117 141.848 297.793 141.848 297.422C141.848 297.074 141.779 296.75 141.643 296.449C141.51 296.145 141.322 295.904 141.08 295.729C140.838 295.553 140.561 295.465 140.248 295.465Z" fill="black"/>
<path d="M525.012 57.4336H526.465L523.465 66H521.988L519 57.4336H520.441L522.229 62.7598C522.322 63.0137 522.422 63.3418 522.527 63.7441C522.633 64.1426 522.701 64.4395 522.732 64.6348C522.783 64.3379 522.861 63.9941 522.967 63.6035C523.072 63.2129 523.158 62.9238 523.225 62.7363L525.012 57.4336ZM531.504 66L531.229 65.0977H531.182C530.869 65.4922 530.555 65.7617 530.238 65.9062C529.922 66.0469 529.516 66.1172 529.02 66.1172C528.383 66.1172 527.885 65.9453 527.525 65.6016C527.17 65.2578 526.992 64.7715 526.992 64.1426C526.992 63.4746 527.24 62.9707 527.736 62.6309C528.232 62.291 528.988 62.1055 530.004 62.0742L531.123 62.0391V61.6934C531.123 61.2793 531.025 60.9707 530.83 60.7676C530.639 60.5605 530.34 60.457 529.934 60.457C529.602 60.457 529.283 60.5059 528.979 60.6035C528.674 60.7012 528.381 60.8164 528.1 60.9492L527.654 59.9648C528.006 59.7812 528.391 59.6426 528.809 59.5488C529.227 59.4512 529.621 59.4023 529.992 59.4023C530.816 59.4023 531.438 59.582 531.855 59.9414C532.277 60.3008 532.488 60.8652 532.488 61.6348V66H531.504ZM529.453 65.0625C529.953 65.0625 530.354 64.9238 530.654 64.6465C530.959 64.3652 531.111 63.9727 531.111 63.4688V62.9062L530.279 62.9414C529.631 62.9648 529.158 63.0742 528.861 63.2695C528.568 63.4609 528.422 63.7559 528.422 64.1543C528.422 64.4434 528.508 64.668 528.68 64.8281C528.852 64.9844 529.109 65.0625 529.453 65.0625ZM537.697 59.4023C537.975 59.4023 538.203 59.4219 538.383 59.4609L538.248 60.7441C538.053 60.6973 537.85 60.6738 537.639 60.6738C537.088 60.6738 536.641 60.8535 536.297 61.2129C535.957 61.5723 535.787 62.0391 535.787 62.6133V66H534.41V59.5195H535.488L535.67 60.6621H535.74C535.955 60.2754 536.234 59.9688 536.578 59.7422C536.926 59.5156 537.299 59.4023 537.697 59.4023ZM540.967 66H539.59V59.5195H540.967V66ZM539.508 57.8027C539.508 57.5566 539.574 57.3672 539.707 57.2344C539.844 57.1016 540.037 57.0352 540.287 57.0352C540.529 57.0352 540.717 57.1016 540.85 57.2344C540.986 57.3672 541.055 57.5566 541.055 57.8027C541.055 58.0371 540.986 58.2227 540.85 58.3594C540.717 58.4922 540.529 58.5586 540.287 58.5586C540.037 58.5586 539.844 58.4922 539.707 58.3594C539.574 58.2227 539.508 58.0371 539.508 57.8027ZM546.996 66L546.721 65.0977H546.674C546.361 65.4922 546.047 65.7617 545.73 65.9062C545.414 66.0469 545.008 66.1172 544.512 66.1172C543.875 66.1172 543.377 65.9453 543.018 65.6016C542.662 65.2578 542.484 64.7715 542.484 64.1426C542.484 63.4746 542.732 62.9707 543.229 62.6309C543.725 62.291 544.48 62.1055 545.496 62.0742L546.615 62.0391V61.6934C546.615 61.2793 546.518 60.9707 546.322 60.7676C546.131 60.5605 545.832 60.457 545.426 60.457C545.094 60.457 544.775 60.5059 544.471 60.6035C544.166 60.7012 543.873 60.8164 543.592 60.9492L543.146 59.9648C543.498 59.7812 543.883 59.6426 544.301 59.5488C544.719 59.4512 545.113 59.4023 545.484 59.4023C546.309 59.4023 546.93 59.582 547.348 59.9414C547.77 60.3008 547.98 60.8652 547.98 61.6348V66H546.996ZM544.945 65.0625C545.445 65.0625 545.846 64.9238 546.146 64.6465C546.451 64.3652 546.604 63.9727 546.604 63.4688V62.9062L545.771 62.9414C545.123 62.9648 544.65 63.0742 544.354 63.2695C544.061 63.4609 543.914 63.7559 543.914 64.1543C543.914 64.4434 544 64.668 544.172 64.8281C544.344 64.9844 544.602 65.0625 544.945 65.0625ZM552.516 66.1172C551.535 66.1172 550.789 65.832 550.277 65.2617C549.77 64.6875 549.516 63.8652 549.516 62.7949C549.516 61.7051 549.781 60.8672 550.312 60.2812C550.848 59.6953 551.619 59.4023 552.627 59.4023C553.311 59.4023 553.926 59.5293 554.473 59.7832L554.057 60.8906C553.475 60.6641 552.994 60.5508 552.615 60.5508C551.494 60.5508 550.934 61.2949 550.934 62.7832C550.934 63.5098 551.072 64.0566 551.35 64.4238C551.631 64.7871 552.041 64.9688 552.58 64.9688C553.193 64.9688 553.773 64.8164 554.32 64.5117V65.7129C554.074 65.8574 553.811 65.9609 553.529 66.0234C553.252 66.0859 552.914 66.1172 552.516 66.1172ZM553.5 67.582C553.5 68.4492 552.904 68.8828 551.713 68.8828C551.455 68.8828 551.219 68.8535 551.004 68.7949V67.9922C551.215 68.0469 551.455 68.0742 551.725 68.0742C551.936 68.0742 552.102 68.041 552.223 67.9746C552.348 67.9121 552.41 67.793 552.41 67.6172C552.41 67.2852 552.061 67.0703 551.361 66.9727L551.854 66H552.744L552.504 66.5156C552.816 66.5977 553.061 66.7305 553.236 66.9141C553.412 67.1016 553.5 67.3242 553.5 67.582ZM561.592 62.748C561.592 63.8066 561.32 64.6328 560.777 65.2266C560.234 65.8203 559.479 66.1172 558.51 66.1172C557.904 66.1172 557.369 65.9805 556.904 65.707C556.439 65.4336 556.082 65.041 555.832 64.5293C555.582 64.0176 555.457 63.4238 555.457 62.748C555.457 61.6973 555.727 60.877 556.266 60.2871C556.805 59.6973 557.564 59.4023 558.545 59.4023C559.482 59.4023 560.225 59.7051 560.771 60.3105C561.318 60.9121 561.592 61.7246 561.592 62.748ZM556.875 62.748C556.875 64.2441 557.428 64.9922 558.533 64.9922C559.627 64.9922 560.174 64.2441 560.174 62.748C560.174 61.2676 559.623 60.5273 558.521 60.5273C557.943 60.5273 557.523 60.7188 557.262 61.1016C557.004 61.4844 556.875 62.0332 556.875 62.748ZM559.4 58.7285C559.236 58.7285 559.074 58.6953 558.914 58.6289C558.758 58.5586 558.604 58.4824 558.451 58.4004C558.299 58.3145 558.15 58.2383 558.006 58.1719C557.861 58.1016 557.723 58.0664 557.59 58.0664C557.273 58.0664 557.061 58.291 556.951 58.7402H556.236C556.283 58.1973 556.434 57.7832 556.688 57.498C556.945 57.2129 557.273 57.0703 557.672 57.0703C557.84 57.0703 558.004 57.1055 558.164 57.1758C558.324 57.2422 558.48 57.3184 558.633 57.4043C558.785 57.4863 558.932 57.5625 559.072 57.6328C559.217 57.6992 559.355 57.7324 559.488 57.7324C559.797 57.7324 560.004 57.5078 560.109 57.0586H560.842C560.795 57.582 560.645 57.9922 560.391 58.2891C560.137 58.582 559.807 58.7285 559.4 58.7285ZM566.01 66.1172C565.002 66.1172 564.213 65.8242 563.643 65.2383C563.076 64.6484 562.793 63.8379 562.793 62.8066C562.793 61.748 563.057 60.916 563.584 60.3105C564.111 59.7051 564.836 59.4023 565.758 59.4023C566.613 59.4023 567.289 59.6621 567.785 60.1816C568.281 60.7012 568.529 61.416 568.529 62.3262V63.0703H564.211C564.23 63.6992 564.4 64.1836 564.721 64.5234C565.041 64.8594 565.492 65.0273 566.074 65.0273C566.457 65.0273 566.812 64.9922 567.141 64.9219C567.473 64.8477 567.828 64.7266 568.207 64.5586V65.6777C567.871 65.8379 567.531 65.9512 567.188 66.0176C566.844 66.084 566.451 66.1172 566.01 66.1172ZM565.758 60.4453C565.32 60.4453 564.969 60.584 564.703 60.8613C564.441 61.1387 564.285 61.543 564.234 62.0742H567.176C567.168 61.5391 567.039 61.1348 566.789 60.8613C566.539 60.584 566.195 60.4453 565.758 60.4453ZM574.447 64.1543C574.447 64.7871 574.217 65.2734 573.756 65.6133C573.295 65.9492 572.635 66.1172 571.775 66.1172C570.912 66.1172 570.219 65.9863 569.695 65.7246V64.5352C570.457 64.8867 571.166 65.0625 571.822 65.0625C572.67 65.0625 573.094 64.8066 573.094 64.2949C573.094 64.1309 573.047 63.9941 572.953 63.8848C572.859 63.7754 572.705 63.6621 572.49 63.5449C572.275 63.4277 571.977 63.2949 571.594 63.1465C570.848 62.8574 570.342 62.5684 570.076 62.2793C569.814 61.9902 569.684 61.6152 569.684 61.1543C569.684 60.5996 569.906 60.1699 570.352 59.8652C570.801 59.5566 571.41 59.4023 572.18 59.4023C572.941 59.4023 573.662 59.5566 574.342 59.8652L573.896 60.9023C573.197 60.6133 572.609 60.4688 572.133 60.4688C571.406 60.4688 571.043 60.6758 571.043 61.0898C571.043 61.293 571.137 61.4648 571.324 61.6055C571.516 61.7461 571.93 61.9395 572.566 62.1855C573.102 62.3926 573.49 62.582 573.732 62.7539C573.975 62.9258 574.154 63.125 574.271 63.3516C574.389 63.5742 574.447 63.8418 574.447 64.1543Z" fill="black"/>
<rect x="519" y="101" width="130" height="45" fill="#F5F5F5"/>
<rect x="672" y="101" width="130" height="45" fill="#4079BC"/>
<rect x="519" y="186" width="130" height="45" fill="#FFCB29"/>
<rect x="672" y="186" width="130" height="45" fill="#00A858"/>
<rect x="519" y="266" width="130" height="45" fill="#24A9E6"/>
<rect x="519" y="146" width="65" height="20" fill="#E0E0E0"/>
<rect x="584" y="146" width="65" height="20" fill="white"/>
<rect x="737" y="146" width="65" height="20" fill="#346398"/>
<rect x="519" y="231" width="65" height="20" fill="#FFD500"/>
<rect x="584" y="231" width="65" height="20" fill="#FFD500"/>
<rect x="672" y="231" width="65" height="20" fill="#45B97C"/>
<rect x="737" y="231" width="65" height="20" fill="#45B97C"/>
<rect x="584" y="311" width="65" height="20" fill="#28BBB5"/>
<rect x="519" y="311" width="65" height="20" fill="#28BBB5"/>
<rect x="672" y="146" width="65" height="20" fill="#346398"/>
<path d="M532.795 155.902L532.473 157.566H534.055V158.551H532.279L531.811 161H530.768L531.236 158.551H529.783L529.314 161H528.295L528.74 158.551H527.275V157.566H528.934L529.268 155.902H527.721V154.918H529.438L529.906 152.445H530.961L530.492 154.918H531.969L532.438 152.445H533.457L532.988 154.918H534.465V155.902H532.795ZM529.965 157.566H531.43L531.764 155.902H530.299L529.965 157.566ZM538.572 161.117C537.564 161.117 536.775 160.824 536.205 160.238C535.639 159.648 535.355 158.838 535.355 157.807C535.355 156.748 535.619 155.916 536.146 155.311C536.674 154.705 537.398 154.402 538.32 154.402C539.176 154.402 539.852 154.662 540.348 155.182C540.844 155.701 541.092 156.416 541.092 157.326V158.07H536.773C536.793 158.699 536.963 159.184 537.283 159.523C537.604 159.859 538.055 160.027 538.637 160.027C539.02 160.027 539.375 159.992 539.703 159.922C540.035 159.848 540.391 159.727 540.77 159.559V160.678C540.434 160.838 540.094 160.951 539.75 161.018C539.406 161.084 539.014 161.117 538.572 161.117ZM538.32 155.445C537.883 155.445 537.531 155.584 537.266 155.861C537.004 156.139 536.848 156.543 536.797 157.074H539.738C539.73 156.539 539.602 156.135 539.352 155.861C539.102 155.584 538.758 155.445 538.32 155.445ZM548.006 156.717C548.006 158.205 547.766 159.311 547.285 160.033C546.809 160.756 546.078 161.117 545.094 161.117C544.141 161.117 543.418 160.744 542.926 159.998C542.434 159.252 542.188 158.158 542.188 156.717C542.188 155.205 542.426 154.092 542.902 153.377C543.383 152.658 544.113 152.299 545.094 152.299C546.051 152.299 546.775 152.674 547.268 153.424C547.76 154.174 548.006 155.271 548.006 156.717ZM543.582 156.717C543.582 157.885 543.701 158.719 543.939 159.219C544.182 159.719 544.566 159.969 545.094 159.969C545.621 159.969 546.006 159.715 546.248 159.207C546.494 158.699 546.617 157.869 546.617 156.717C546.617 155.568 546.494 154.738 546.248 154.227C546.006 153.711 545.621 153.453 545.094 153.453C544.566 153.453 544.182 153.705 543.939 154.209C543.701 154.713 543.582 155.549 543.582 156.717ZM552.342 161.117C551.334 161.117 550.545 160.824 549.975 160.238C549.408 159.648 549.125 158.838 549.125 157.807C549.125 156.748 549.389 155.916 549.916 155.311C550.443 154.705 551.168 154.402 552.09 154.402C552.945 154.402 553.621 154.662 554.117 155.182C554.613 155.701 554.861 156.416 554.861 157.326V158.07H550.543C550.562 158.699 550.732 159.184 551.053 159.523C551.373 159.859 551.824 160.027 552.406 160.027C552.789 160.027 553.145 159.992 553.473 159.922C553.805 159.848 554.16 159.727 554.539 159.559V160.678C554.203 160.838 553.863 160.951 553.52 161.018C553.176 161.084 552.783 161.117 552.342 161.117ZM552.09 155.445C551.652 155.445 551.301 155.584 551.035 155.861C550.773 156.139 550.617 156.543 550.566 157.074H553.508C553.5 156.539 553.371 156.135 553.121 155.861C552.871 155.584 552.527 155.445 552.09 155.445ZM561.775 156.717C561.775 158.205 561.535 159.311 561.055 160.033C560.578 160.756 559.848 161.117 558.863 161.117C557.91 161.117 557.188 160.744 556.695 159.998C556.203 159.252 555.957 158.158 555.957 156.717C555.957 155.205 556.195 154.092 556.672 153.377C557.152 152.658 557.883 152.299 558.863 152.299C559.82 152.299 560.545 152.674 561.037 153.424C561.529 154.174 561.775 155.271 561.775 156.717ZM557.352 156.717C557.352 157.885 557.471 158.719 557.709 159.219C557.951 159.719 558.336 159.969 558.863 159.969C559.391 159.969 559.775 159.715 560.018 159.207C560.264 158.699 560.387 157.869 560.387 156.717C560.387 155.568 560.264 154.738 560.018 154.227C559.775 153.711 559.391 153.453 558.863 153.453C558.336 153.453 557.951 153.705 557.709 154.209C557.471 154.713 557.352 155.549 557.352 156.717ZM566.111 161.117C565.104 161.117 564.314 160.824 563.744 160.238C563.178 159.648 562.895 158.838 562.895 157.807C562.895 156.748 563.158 155.916 563.686 155.311C564.213 154.705 564.938 154.402 565.859 154.402C566.715 154.402 567.391 154.662 567.887 155.182C568.383 155.701 568.631 156.416 568.631 157.326V158.07H564.312C564.332 158.699 564.502 159.184 564.822 159.523C565.143 159.859 565.594 160.027 566.176 160.027C566.559 160.027 566.914 159.992 567.242 159.922C567.574 159.848 567.93 159.727 568.309 159.559V160.678C567.973 160.838 567.633 160.951 567.289 161.018C566.945 161.084 566.553 161.117 566.111 161.117ZM565.859 155.445C565.422 155.445 565.07 155.584 564.805 155.861C564.543 156.139 564.387 156.543 564.336 157.074H567.277C567.27 156.539 567.141 156.135 566.891 155.861C566.641 155.584 566.297 155.445 565.859 155.445ZM575.545 156.717C575.545 158.205 575.305 159.311 574.824 160.033C574.348 160.756 573.617 161.117 572.633 161.117C571.68 161.117 570.957 160.744 570.465 159.998C569.973 159.252 569.727 158.158 569.727 156.717C569.727 155.205 569.965 154.092 570.441 153.377C570.922 152.658 571.652 152.299 572.633 152.299C573.59 152.299 574.314 152.674 574.807 153.424C575.299 154.174 575.545 155.271 575.545 156.717ZM571.121 156.717C571.121 157.885 571.24 158.719 571.479 159.219C571.721 159.719 572.105 159.969 572.633 159.969C573.16 159.969 573.545 159.715 573.787 159.207C574.033 158.699 574.156 157.869 574.156 156.717C574.156 155.568 574.033 154.738 573.787 154.227C573.545 153.711 573.16 153.453 572.633 153.453C572.105 153.453 571.721 153.705 571.479 154.209C571.24 154.713 571.121 155.549 571.121 156.717Z" fill="black"/>
<path d="M564.795 240.902L564.473 242.566H566.055V243.551H564.279L563.811 246H562.768L563.236 243.551H561.783L561.314 246H560.295L560.74 243.551H559.275V242.566H560.934L561.268 240.902H559.721V239.918H561.438L561.906 237.445H562.961L562.492 239.918H563.969L564.438 237.445H565.457L564.988 239.918H566.465V240.902H564.795ZM561.965 242.566H563.43L563.764 240.902H562.299L561.965 242.566ZM569.277 246H567.889V237.434H572.723V238.617H569.277V241.295H572.506V242.484H569.277V246ZM575.664 246H574.275V237.434H579.109V238.617H575.664V241.295H578.893V242.484H575.664V246ZM587.629 241.635C587.629 243.049 587.236 244.131 586.451 244.881C585.666 245.627 584.535 246 583.059 246H580.662V237.434H583.311C584.674 237.434 585.734 237.801 586.492 238.535C587.25 239.27 587.629 240.303 587.629 241.635ZM586.152 241.682C586.152 239.631 585.193 238.605 583.275 238.605H582.062V244.822H583.059C585.121 244.822 586.152 243.775 586.152 241.682ZM591.777 240.65C592.641 240.65 593.324 240.879 593.828 241.336C594.332 241.793 594.584 242.416 594.584 243.205C594.584 244.119 594.297 244.834 593.723 245.35C593.152 245.861 592.34 246.117 591.285 246.117C590.328 246.117 589.576 245.963 589.029 245.654V244.406C589.346 244.586 589.709 244.725 590.119 244.822C590.529 244.92 590.91 244.969 591.262 244.969C591.883 244.969 592.355 244.83 592.68 244.553C593.004 244.275 593.166 243.869 593.166 243.334C593.166 242.311 592.514 241.799 591.209 241.799C591.025 241.799 590.799 241.818 590.529 241.857C590.26 241.893 590.023 241.934 589.82 241.98L589.205 241.617L589.533 237.434H593.986V238.658H590.746L590.553 240.779C590.689 240.756 590.855 240.729 591.051 240.697C591.25 240.666 591.492 240.65 591.777 240.65ZM601.533 241.717C601.533 243.205 601.293 244.311 600.812 245.033C600.336 245.756 599.605 246.117 598.621 246.117C597.668 246.117 596.945 245.744 596.453 244.998C595.961 244.252 595.715 243.158 595.715 241.717C595.715 240.205 595.953 239.092 596.43 238.377C596.91 237.658 597.641 237.299 598.621 237.299C599.578 237.299 600.303 237.674 600.795 238.424C601.287 239.174 601.533 240.271 601.533 241.717ZM597.109 241.717C597.109 242.885 597.229 243.719 597.467 244.219C597.709 244.719 598.094 244.969 598.621 244.969C599.148 244.969 599.533 244.715 599.775 244.207C600.021 243.699 600.145 242.869 600.145 241.717C600.145 240.568 600.021 239.738 599.775 239.227C599.533 238.711 599.148 238.453 598.621 238.453C598.094 238.453 597.709 238.705 597.467 239.209C597.229 239.713 597.109 240.549 597.109 241.717ZM608.389 241.717C608.389 243.205 608.148 244.311 607.668 245.033C607.191 245.756 606.461 246.117 605.477 246.117C604.523 246.117 603.801 245.744 603.309 244.998C602.816 244.252 602.57 243.158 602.57 241.717C602.57 240.205 602.809 239.092 603.285 238.377C603.766 237.658 604.496 237.299 605.477 237.299C606.434 237.299 607.158 237.674 607.65 238.424C608.143 239.174 608.389 240.271 608.389 241.717ZM603.965 241.717C603.965 242.885 604.084 243.719 604.322 244.219C604.564 244.719 604.949 244.969 605.477 244.969C606.004 244.969 606.389 244.715 606.631 244.207C606.877 243.699 607 242.869 607 241.717C607 240.568 606.877 239.738 606.631 239.227C606.389 238.711 606.004 238.453 605.477 238.453C604.949 238.453 604.564 238.705 604.322 239.209C604.084 239.713 603.965 240.549 603.965 241.717Z" fill="black"/>
<path d="M564.795 320.902L564.473 322.566H566.055V323.551H564.279L563.811 326H562.768L563.236 323.551H561.783L561.314 326H560.295L560.74 323.551H559.275V322.566H560.934L561.268 320.902H559.721V319.918H561.438L561.906 317.445H562.961L562.492 319.918H563.969L564.438 317.445H565.457L564.988 319.918H566.465V320.902H564.795ZM561.965 322.566H563.43L563.764 320.902H562.299L561.965 322.566ZM573.092 326H567.285V324.957L569.494 322.736C570.146 322.068 570.578 321.596 570.789 321.318C571.004 321.037 571.16 320.773 571.258 320.527C571.355 320.281 571.404 320.018 571.404 319.736C571.404 319.35 571.287 319.045 571.053 318.822C570.822 318.6 570.502 318.488 570.092 318.488C569.764 318.488 569.445 318.549 569.137 318.67C568.832 318.791 568.479 319.01 568.076 319.326L567.332 318.418C567.809 318.016 568.271 317.73 568.721 317.562C569.17 317.395 569.648 317.311 570.156 317.311C570.953 317.311 571.592 317.52 572.072 317.938C572.553 318.352 572.793 318.91 572.793 319.613C572.793 320 572.723 320.367 572.582 320.715C572.445 321.062 572.232 321.422 571.943 321.793C571.658 322.16 571.182 322.658 570.514 323.287L569.025 324.729V324.787H573.092V326ZM577.035 317.322C577.848 317.322 578.49 317.51 578.963 317.885C579.436 318.256 579.672 318.754 579.672 319.379C579.672 320.258 579.145 320.957 578.09 321.477C578.762 321.812 579.238 322.166 579.52 322.537C579.805 322.908 579.947 323.322 579.947 323.779C579.947 324.486 579.688 325.053 579.168 325.479C578.648 325.904 577.945 326.117 577.059 326.117C576.129 326.117 575.408 325.918 574.896 325.52C574.385 325.121 574.129 324.557 574.129 323.826C574.129 323.35 574.262 322.922 574.527 322.543C574.797 322.16 575.236 321.82 575.846 321.523C575.322 321.211 574.949 320.881 574.727 320.533C574.504 320.186 574.393 319.795 574.393 319.361C574.393 318.74 574.637 318.246 575.125 317.879C575.613 317.508 576.25 317.322 577.035 317.322ZM575.447 323.779C575.447 324.186 575.59 324.502 575.875 324.729C576.16 324.951 576.547 325.062 577.035 325.062C577.539 325.062 577.93 324.947 578.207 324.717C578.488 324.482 578.629 324.166 578.629 323.768C578.629 323.451 578.5 323.162 578.242 322.9C577.984 322.639 577.594 322.396 577.07 322.174L576.9 322.098C576.385 322.324 576.014 322.574 575.787 322.848C575.561 323.117 575.447 323.428 575.447 323.779ZM577.023 318.383C576.633 318.383 576.318 318.48 576.08 318.676C575.842 318.867 575.723 319.129 575.723 319.461C575.723 319.664 575.766 319.846 575.852 320.006C575.938 320.166 576.062 320.312 576.227 320.445C576.391 320.574 576.668 320.73 577.059 320.914C577.527 320.707 577.857 320.49 578.049 320.264C578.244 320.033 578.342 319.766 578.342 319.461C578.342 319.129 578.221 318.867 577.979 318.676C577.74 318.48 577.422 318.383 577.023 318.383ZM581.6 317.434H584.143C585.322 317.434 586.174 317.605 586.697 317.949C587.225 318.293 587.488 318.836 587.488 319.578C587.488 320.078 587.359 320.494 587.102 320.826C586.844 321.158 586.473 321.367 585.988 321.453V321.512C586.59 321.625 587.031 321.85 587.312 322.186C587.598 322.518 587.74 322.969 587.74 323.539C587.74 324.309 587.471 324.912 586.932 325.35C586.396 325.783 585.65 326 584.693 326H581.6V317.434ZM583 320.973H584.348C584.934 320.973 585.361 320.881 585.631 320.697C585.9 320.51 586.035 320.193 586.035 319.748C586.035 319.346 585.889 319.055 585.596 318.875C585.307 318.695 584.846 318.605 584.213 318.605H583V320.973ZM583 322.109V324.822H584.488C585.074 324.822 585.516 324.711 585.812 324.488C586.113 324.262 586.264 323.906 586.264 323.422C586.264 322.977 586.111 322.646 585.807 322.432C585.502 322.217 585.039 322.109 584.418 322.109H583ZM589.521 317.434H592.064C593.244 317.434 594.096 317.605 594.619 317.949C595.146 318.293 595.41 318.836 595.41 319.578C595.41 320.078 595.281 320.494 595.023 320.826C594.766 321.158 594.395 321.367 593.91 321.453V321.512C594.512 321.625 594.953 321.85 595.234 322.186C595.52 322.518 595.662 322.969 595.662 323.539C595.662 324.309 595.393 324.912 594.854 325.35C594.318 325.783 593.572 326 592.615 326H589.521V317.434ZM590.922 320.973H592.27C592.855 320.973 593.283 320.881 593.553 320.697C593.822 320.51 593.957 320.193 593.957 319.748C593.957 319.346 593.811 319.055 593.518 318.875C593.229 318.695 592.768 318.605 592.135 318.605H590.922V320.973ZM590.922 322.109V324.822H592.41C592.996 324.822 593.438 324.711 593.734 324.488C594.035 324.262 594.186 323.906 594.186 323.422C594.186 322.977 594.033 322.646 593.729 322.432C593.424 322.217 592.961 322.109 592.34 322.109H590.922ZM597.443 317.434H599.986C601.166 317.434 602.018 317.605 602.541 317.949C603.068 318.293 603.332 318.836 603.332 319.578C603.332 320.078 603.203 320.494 602.945 320.826C602.688 321.158 602.316 321.367 601.832 321.453V321.512C602.434 321.625 602.875 321.85 603.156 322.186C603.441 322.518 603.584 322.969 603.584 323.539C603.584 324.309 603.314 324.912 602.775 325.35C602.24 325.783 601.494 326 600.537 326H597.443V317.434ZM598.844 320.973H600.191C600.777 320.973 601.205 320.881 601.475 320.697C601.744 320.51 601.879 320.193 601.879 319.748C601.879 319.346 601.732 319.055 601.439 318.875C601.15 318.695 600.689 318.605 600.057 318.605H598.844V320.973ZM598.844 322.109V324.822H600.332C600.918 324.822 601.359 324.711 601.656 324.488C601.957 324.262 602.107 323.906 602.107 323.422C602.107 322.977 601.955 322.646 601.65 322.432C601.346 322.217 600.883 322.109 600.262 322.109H598.844ZM607.668 320.65C608.531 320.65 609.215 320.879 609.719 321.336C610.223 321.793 610.475 322.416 610.475 323.205C610.475 324.119 610.188 324.834 609.613 325.35C609.043 325.861 608.23 326.117 607.176 326.117C606.219 326.117 605.467 325.963 604.92 325.654V324.406C605.236 324.586 605.6 324.725 606.01 324.822C606.42 324.92 606.801 324.969 607.152 324.969C607.773 324.969 608.246 324.83 608.57 324.553C608.895 324.275 609.057 323.869 609.057 323.334C609.057 322.311 608.404 321.799 607.1 321.799C606.916 321.799 606.689 321.818 606.42 321.857C606.15 321.893 605.914 321.934 605.711 321.98L605.096 321.617L605.424 317.434H609.877V318.658H606.637L606.443 320.779C606.58 320.756 606.746 320.729 606.941 320.697C607.141 320.666 607.383 320.65 607.668 320.65Z" fill="black"/>
<path d="M717.795 240.902L717.473 242.566H719.055V243.551H717.279L716.811 246H715.768L716.236 243.551H714.783L714.314 246H713.295L713.74 243.551H712.275V242.566H713.934L714.268 240.902H712.721V239.918H714.438L714.906 237.445H715.961L715.492 239.918H716.969L717.438 237.445H718.457L717.988 239.918H719.465V240.902H717.795ZM714.965 242.566H716.43L716.764 240.902H715.299L714.965 242.566ZM726.396 244.131H725.242V246H723.9V244.131H719.986V243.07L723.9 237.41H725.242V242.988H726.396V244.131ZM723.9 242.988V240.838C723.9 240.072 723.92 239.445 723.959 238.957H723.912C723.803 239.215 723.631 239.527 723.396 239.895L721.27 242.988H723.9ZM730.047 240.65C730.91 240.65 731.594 240.879 732.098 241.336C732.602 241.793 732.854 242.416 732.854 243.205C732.854 244.119 732.566 244.834 731.992 245.35C731.422 245.861 730.609 246.117 729.555 246.117C728.598 246.117 727.846 245.963 727.299 245.654V244.406C727.615 244.586 727.979 244.725 728.389 244.822C728.799 244.92 729.18 244.969 729.531 244.969C730.152 244.969 730.625 244.83 730.949 244.553C731.273 244.275 731.436 243.869 731.436 243.334C731.436 242.311 730.783 241.799 729.479 241.799C729.295 241.799 729.068 241.818 728.799 241.857C728.529 241.893 728.293 241.934 728.09 241.98L727.475 241.617L727.803 237.434H732.256V238.658H729.016L728.822 240.779C728.959 240.756 729.125 240.729 729.32 240.697C729.52 240.666 729.762 240.65 730.047 240.65ZM737.764 239.402C738.572 239.402 739.201 239.695 739.65 240.281C740.104 240.867 740.33 241.689 740.33 242.748C740.33 243.811 740.102 244.639 739.645 245.232C739.188 245.822 738.553 246.117 737.74 246.117C736.92 246.117 736.283 245.822 735.83 245.232H735.736L735.484 246H734.453V236.883H735.83V239.051C735.83 239.211 735.822 239.449 735.807 239.766C735.791 240.082 735.779 240.283 735.771 240.369H735.83C736.268 239.725 736.912 239.402 737.764 239.402ZM737.406 240.527C736.852 240.527 736.451 240.691 736.205 241.02C735.963 241.344 735.838 241.889 735.83 242.654V242.748C735.83 243.537 735.955 244.109 736.205 244.465C736.455 244.816 736.863 244.992 737.43 244.992C737.918 244.992 738.287 244.799 738.537 244.412C738.791 244.025 738.918 243.467 738.918 242.736C738.918 241.264 738.414 240.527 737.406 240.527ZM747.268 241.09C747.268 242.777 746.928 244.037 746.248 244.869C745.568 245.701 744.545 246.117 743.178 246.117C742.658 246.117 742.285 246.086 742.059 246.023V244.869C742.406 244.967 742.756 245.016 743.107 245.016C744.037 245.016 744.73 244.766 745.188 244.266C745.645 243.766 745.895 242.98 745.938 241.91H745.867C745.637 242.262 745.357 242.516 745.029 242.672C744.705 242.828 744.324 242.906 743.887 242.906C743.129 242.906 742.533 242.67 742.1 242.197C741.666 241.725 741.449 241.076 741.449 240.252C741.449 239.357 741.699 238.646 742.199 238.119C742.703 237.588 743.389 237.322 744.256 237.322C744.865 237.322 745.396 237.471 745.85 237.768C746.303 238.064 746.652 238.496 746.898 239.062C747.145 239.625 747.268 240.301 747.268 241.09ZM744.279 238.465C743.803 238.465 743.438 238.621 743.184 238.934C742.93 239.242 742.803 239.678 742.803 240.24C742.803 240.729 742.92 241.113 743.154 241.395C743.393 241.672 743.752 241.811 744.232 241.811C744.697 241.811 745.088 241.672 745.404 241.395C745.721 241.117 745.879 240.793 745.879 240.422C745.879 240.074 745.811 239.75 745.674 239.449C745.541 239.145 745.354 238.904 745.111 238.729C744.869 238.553 744.592 238.465 744.279 238.465ZM749.301 246L752.688 238.658H748.234V237.445H754.158V238.406L750.789 246H749.301ZM758.254 246.117C757.273 246.117 756.527 245.832 756.016 245.262C755.508 244.688 755.254 243.865 755.254 242.795C755.254 241.705 755.52 240.867 756.051 240.281C756.586 239.695 757.357 239.402 758.365 239.402C759.049 239.402 759.664 239.529 760.211 239.783L759.795 240.891C759.213 240.664 758.732 240.551 758.354 240.551C757.232 240.551 756.672 241.295 756.672 242.783C756.672 243.51 756.811 244.057 757.088 244.424C757.369 244.787 757.779 244.969 758.318 244.969C758.932 244.969 759.512 244.816 760.059 244.512V245.713C759.812 245.857 759.549 245.961 759.268 246.023C758.99 246.086 758.652 246.117 758.254 246.117Z" fill="black"/>
<path d="M598.795 155.902L598.473 157.566H600.055V158.551H598.279L597.811 161H596.768L597.236 158.551H595.783L595.314 161H594.295L594.74 158.551H593.275V157.566H594.934L595.268 155.902H593.721V154.918H595.438L595.906 152.445H596.961L596.492 154.918H597.969L598.438 152.445H599.457L598.988 154.918H600.465V155.902H598.795ZM595.965 157.566H597.43L597.764 155.902H596.299L595.965 157.566ZM603.277 161H601.889V152.434H606.723V153.617H603.277V156.295H606.506V157.484H603.277V161ZM609.664 161H608.275V152.434H613.109V153.617H609.664V156.295H612.893V157.484H609.664V161ZM616.051 161H614.662V152.434H619.496V153.617H616.051V156.295H619.279V157.484H616.051V161ZM622.438 161H621.049V152.434H625.883V153.617H622.438V156.295H625.666V157.484H622.438V161ZM628.824 161H627.436V152.434H632.27V153.617H628.824V156.295H632.053V157.484H628.824V161ZM635.211 161H633.822V152.434H638.656V153.617H635.211V156.295H638.439V157.484H635.211V161Z" fill="black"/>
<path d="M717.795 155.902L717.473 157.566H719.055V158.551H717.279L716.811 161H715.768L716.236 158.551H714.783L714.314 161H713.295L713.74 158.551H712.275V157.566H713.934L714.268 155.902H712.721V154.918H714.438L714.906 152.445H715.961L715.492 154.918H716.969L717.438 152.445H718.457L717.988 154.918H719.465V155.902H717.795ZM714.965 157.566H716.43L716.764 155.902H715.299L714.965 157.566ZM725.77 154.402C725.77 154.945 725.611 155.398 725.295 155.762C724.979 156.121 724.533 156.363 723.959 156.488V156.535C724.646 156.621 725.162 156.836 725.506 157.18C725.85 157.52 726.021 157.973 726.021 158.539C726.021 159.363 725.73 160 725.148 160.449C724.566 160.895 723.738 161.117 722.664 161.117C721.715 161.117 720.914 160.963 720.262 160.654V159.43C720.625 159.609 721.01 159.748 721.416 159.846C721.822 159.943 722.213 159.992 722.588 159.992C723.252 159.992 723.748 159.869 724.076 159.623C724.404 159.377 724.568 158.996 724.568 158.48C724.568 158.023 724.387 157.688 724.023 157.473C723.66 157.258 723.09 157.15 722.312 157.15H721.568V156.031H722.324C723.691 156.031 724.375 155.559 724.375 154.613C724.375 154.246 724.256 153.963 724.018 153.764C723.779 153.564 723.428 153.465 722.963 153.465C722.639 153.465 722.326 153.512 722.025 153.605C721.725 153.695 721.369 153.873 720.959 154.139L720.285 153.178C721.07 152.6 721.982 152.311 723.021 152.311C723.885 152.311 724.559 152.496 725.043 152.867C725.527 153.238 725.77 153.75 725.77 154.402ZM733.252 159.131H732.098V161H730.756V159.131H726.842V158.07L730.756 152.41H732.098V157.988H733.252V159.131ZM730.756 157.988V155.838C730.756 155.072 730.775 154.445 730.814 153.957H730.768C730.658 154.215 730.486 154.527 730.252 154.895L728.125 157.988H730.756ZM734.02 157.35C734.02 153.998 735.385 152.322 738.115 152.322C738.545 152.322 738.908 152.355 739.205 152.422V153.57C738.908 153.484 738.564 153.441 738.174 153.441C737.256 153.441 736.566 153.688 736.105 154.18C735.645 154.672 735.395 155.461 735.355 156.547H735.426C735.609 156.23 735.867 155.986 736.199 155.814C736.531 155.639 736.922 155.551 737.371 155.551C738.148 155.551 738.754 155.789 739.188 156.266C739.621 156.742 739.838 157.389 739.838 158.205C739.838 159.104 739.586 159.814 739.082 160.338C738.582 160.857 737.898 161.117 737.031 161.117C736.418 161.117 735.885 160.971 735.432 160.678C734.979 160.381 734.629 159.951 734.383 159.389C734.141 158.822 734.02 158.143 734.02 157.35ZM737.008 159.98C737.48 159.98 737.844 159.828 738.098 159.523C738.355 159.219 738.484 158.783 738.484 158.217C738.484 157.725 738.363 157.338 738.121 157.057C737.883 156.775 737.523 156.635 737.043 156.635C736.746 156.635 736.473 156.699 736.223 156.828C735.973 156.953 735.775 157.127 735.631 157.35C735.486 157.568 735.414 157.793 735.414 158.023C735.414 158.574 735.562 159.039 735.859 159.418C736.16 159.793 736.543 159.98 737.008 159.98ZM746.336 154.402C746.336 154.945 746.178 155.398 745.861 155.762C745.545 156.121 745.1 156.363 744.525 156.488V156.535C745.213 156.621 745.729 156.836 746.072 157.18C746.416 157.52 746.588 157.973 746.588 158.539C746.588 159.363 746.297 160 745.715 160.449C745.133 160.895 744.305 161.117 743.23 161.117C742.281 161.117 741.48 160.963 740.828 160.654V159.43C741.191 159.609 741.576 159.748 741.982 159.846C742.389 159.943 742.779 159.992 743.154 159.992C743.818 159.992 744.314 159.869 744.643 159.623C744.971 159.377 745.135 158.996 745.135 158.48C745.135 158.023 744.953 157.688 744.59 157.473C744.227 157.258 743.656 157.15 742.879 157.15H742.135V156.031H742.891C744.258 156.031 744.941 155.559 744.941 154.613C744.941 154.246 744.822 153.963 744.584 153.764C744.346 153.564 743.994 153.465 743.529 153.465C743.205 153.465 742.893 153.512 742.592 153.605C742.291 153.695 741.936 153.873 741.525 154.139L740.852 153.178C741.637 152.6 742.549 152.311 743.588 152.311C744.451 152.311 745.125 152.496 745.609 152.867C746.094 153.238 746.336 153.75 746.336 154.402ZM753.502 156.09C753.502 157.777 753.162 159.037 752.482 159.869C751.803 160.701 750.779 161.117 749.412 161.117C748.893 161.117 748.52 161.086 748.293 161.023V159.869C748.641 159.967 748.99 160.016 749.342 160.016C750.271 160.016 750.965 159.766 751.422 159.266C751.879 158.766 752.129 157.98 752.172 156.91H752.102C751.871 157.262 751.592 157.516 751.264 157.672C750.939 157.828 750.559 157.906 750.121 157.906C749.363 157.906 748.768 157.67 748.334 157.197C747.9 156.725 747.684 156.076 747.684 155.252C747.684 154.357 747.934 153.646 748.434 153.119C748.938 152.588 749.623 152.322 750.49 152.322C751.1 152.322 751.631 152.471 752.084 152.768C752.537 153.064 752.887 153.496 753.133 154.062C753.379 154.625 753.502 155.301 753.502 156.09ZM750.514 153.465C750.037 153.465 749.672 153.621 749.418 153.934C749.164 154.242 749.037 154.678 749.037 155.24C749.037 155.729 749.154 156.113 749.389 156.395C749.627 156.672 749.986 156.811 750.467 156.811C750.932 156.811 751.322 156.672 751.639 156.395C751.955 156.117 752.113 155.793 752.113 155.422C752.113 155.074 752.045 154.75 751.908 154.449C751.775 154.145 751.588 153.904 751.346 153.729C751.104 153.553 750.826 153.465 750.514 153.465ZM757.457 152.322C758.27 152.322 758.912 152.51 759.385 152.885C759.857 153.256 760.094 153.754 760.094 154.379C760.094 155.258 759.566 155.957 758.512 156.477C759.184 156.812 759.66 157.166 759.941 157.537C760.227 157.908 760.369 158.322 760.369 158.779C760.369 159.486 760.109 160.053 759.59 160.479C759.07 160.904 758.367 161.117 757.48 161.117C756.551 161.117 755.83 160.918 755.318 160.52C754.807 160.121 754.551 159.557 754.551 158.826C754.551 158.35 754.684 157.922 754.949 157.543C755.219 157.16 755.658 156.82 756.268 156.523C755.744 156.211 755.371 155.881 755.148 155.533C754.926 155.186 754.814 154.795 754.814 154.361C754.814 153.74 755.059 153.246 755.547 152.879C756.035 152.508 756.672 152.322 757.457 152.322ZM755.869 158.779C755.869 159.186 756.012 159.502 756.297 159.729C756.582 159.951 756.969 160.062 757.457 160.062C757.961 160.062 758.352 159.947 758.629 159.717C758.91 159.482 759.051 159.166 759.051 158.768C759.051 158.451 758.922 158.162 758.664 157.9C758.406 157.639 758.016 157.396 757.492 157.174L757.322 157.098C756.807 157.324 756.436 157.574 756.209 157.848C755.982 158.117 755.869 158.428 755.869 158.779ZM757.445 153.383C757.055 153.383 756.74 153.48 756.502 153.676C756.264 153.867 756.145 154.129 756.145 154.461C756.145 154.664 756.188 154.846 756.273 155.006C756.359 155.166 756.484 155.312 756.648 155.445C756.812 155.574 757.09 155.73 757.48 155.914C757.949 155.707 758.279 155.49 758.471 155.264C758.666 155.033 758.764 154.766 758.764 154.461C758.764 154.129 758.643 153.867 758.4 153.676C758.162 153.48 757.844 153.383 757.445 153.383Z" fill="black"/>
</svg>
