<svg width="805" height="365" viewBox="0 0 805 365" fill="none" xmlns="http://www.w3.org/2000/svg">
<rect width="805" height="365" fill="white"/>
<path d="M44.1309 46.4336H46.6738C47.8535 46.4336 48.7051 46.6055 49.2285 46.9492C49.7559 47.293 50.0195 47.8359 50.0195 48.5781C50.0195 49.0781 49.8906 49.4941 49.6328 49.8262C49.375 50.1582 49.0039 50.3672 48.5195 50.4531V50.5117C49.1211 50.625 49.5625 50.8496 49.8438 51.1855C50.1289 51.5176 50.2715 51.9688 50.2715 52.5391C50.2715 53.3086 50.002 53.9121 49.4629 54.3496C48.9277 54.7832 48.1816 55 47.2246 55H44.1309V46.4336ZM45.5312 49.9727H46.8789C47.4648 49.9727 47.8926 49.8809 48.1621 49.6973C48.4316 49.5098 48.5664 49.1934 48.5664 48.748C48.5664 48.3457 48.4199 48.0547 48.127 47.875C47.8379 47.6953 47.377 47.6055 46.7441 47.6055H45.5312V49.9727ZM45.5312 51.1094V53.8223H47.0195C47.6055 53.8223 48.0469 53.7109 48.3438 53.4883C48.6445 53.2617 48.7949 52.9062 48.7949 52.4219C48.7949 51.9766 48.6426 51.6465 48.3379 51.4316C48.0332 51.2168 47.5703 51.1094 46.9492 51.1094H45.5312ZM55.1934 48.4023C55.4707 48.4023 55.6992 48.4219 55.8789 48.4609L55.7441 49.7441C55.5488 49.6973 55.3457 49.6738 55.1348 49.6738C54.584 49.6738 54.1367 49.8535 53.793 50.2129C53.4531 50.5723 53.2832 51.0391 53.2832 51.6133V55H51.9062V48.5195H52.9844L53.166 49.6621H53.2363C53.4512 49.2754 53.7305 48.9688 54.0742 48.7422C54.4219 48.5156 54.7949 48.4023 55.1934 48.4023ZM61.1406 55L60.8652 54.0977H60.8184C60.5059 54.4922 60.1914 54.7617 59.875 54.9062C59.5586 55.0469 59.1523 55.1172 58.6562 55.1172C58.0195 55.1172 57.5215 54.9453 57.1621 54.6016C56.8066 54.2578 56.6289 53.7715 56.6289 53.1426C56.6289 52.4746 56.877 51.9707 57.373 51.6309C57.8691 51.291 58.625 51.1055 59.6406 51.0742L60.7598 51.0391V50.6934C60.7598 50.2793 60.6621 49.9707 60.4668 49.7676C60.2754 49.5605 59.9766 49.457 59.5703 49.457C59.2383 49.457 58.9199 49.5059 58.6152 49.6035C58.3105 49.7012 58.0176 49.8164 57.7363 49.9492L57.291 48.9648C57.6426 48.7812 58.0273 48.6426 58.4453 48.5488C58.8633 48.4512 59.2578 48.4023 59.6289 48.4023C60.4531 48.4023 61.0742 48.582 61.4922 48.9414C61.9141 49.3008 62.125 49.8652 62.125 50.6348V55H61.1406ZM59.0898 54.0625C59.5898 54.0625 59.9902 53.9238 60.291 53.6465C60.5957 53.3652 60.748 52.9727 60.748 52.4688V51.9062L59.916 51.9414C59.2676 51.9648 58.7949 52.0742 58.498 52.2695C58.2051 52.4609 58.0586 52.7559 58.0586 53.1543C58.0586 53.4434 58.1445 53.668 58.3164 53.8281C58.4883 53.9844 58.7461 54.0625 59.0898 54.0625ZM66.6602 55.1172C65.6797 55.1172 64.9336 54.832 64.4219 54.2617C63.9141 53.6875 63.6602 52.8652 63.6602 51.7949C63.6602 50.7051 63.9258 49.8672 64.457 49.2812C64.9922 48.6953 65.7637 48.4023 66.7715 48.4023C67.4551 48.4023 68.0703 48.5293 68.6172 48.7832L68.2012 49.8906C67.6191 49.6641 67.1387 49.5508 66.7598 49.5508C65.6387 49.5508 65.0781 50.2949 65.0781 51.7832C65.0781 52.5098 65.2168 53.0566 65.4941 53.4238C65.7754 53.7871 66.1855 53.9688 66.7246 53.9688C67.3379 53.9688 67.918 53.8164 68.4648 53.5117V54.7129C68.2188 54.8574 67.9551 54.9609 67.6738 55.0234C67.3965 55.0859 67.0586 55.1172 66.6602 55.1172ZM71.3184 51.5781L72.0977 50.6055L74.0547 48.5195H75.6426L73.0352 51.3027L75.8066 55H74.1895L72.1094 52.1582L71.3535 52.7793V55H69.9883V45.8828H71.3535V50.3301L71.2832 51.5781H71.3184ZM82.3281 48.5195V49.2754L81.2207 49.4805C81.3223 49.6172 81.4062 49.7852 81.4727 49.9844C81.5391 50.1836 81.5723 50.3945 81.5723 50.6172C81.5723 51.2852 81.3418 51.8105 80.8809 52.1934C80.4199 52.5762 79.7852 52.7676 78.9766 52.7676C78.7695 52.7676 78.582 52.752 78.4141 52.7207C78.1172 52.9043 77.9688 53.1191 77.9688 53.3652C77.9688 53.5137 78.0371 53.625 78.1738 53.6992C78.3145 53.7734 78.5703 53.8105 78.9414 53.8105H80.0723C80.7871 53.8105 81.3301 53.9629 81.7012 54.2676C82.0723 54.5723 82.2578 55.0117 82.2578 55.5859C82.2578 56.3203 81.9551 56.8867 81.3496 57.2852C80.7441 57.6836 79.8691 57.8828 78.7246 57.8828C77.8418 57.8828 77.168 57.7266 76.7031 57.4141C76.2383 57.1016 76.0059 56.6562 76.0059 56.0781C76.0059 55.6797 76.1309 55.3438 76.3809 55.0703C76.6348 54.8008 76.9883 54.6133 77.4414 54.5078C77.2578 54.4297 77.1055 54.3047 76.9844 54.1328C76.8672 53.957 76.8086 53.7734 76.8086 53.582C76.8086 53.3398 76.877 53.1348 77.0137 52.9668C77.1504 52.7988 77.3535 52.6328 77.623 52.4688C77.2871 52.3242 77.0137 52.0898 76.8027 51.7656C76.5957 51.4375 76.4922 51.0547 76.4922 50.6172C76.4922 49.9141 76.7129 49.3691 77.1543 48.9824C77.5996 48.5957 78.2324 48.4023 79.0527 48.4023C79.2363 48.4023 79.4277 48.416 79.627 48.4434C79.8301 48.4668 79.9824 48.4922 80.084 48.5195H82.3281ZM77.2363 56.0078C77.2363 56.3047 77.3691 56.5332 77.6348 56.6934C77.9043 56.8535 78.2812 56.9336 78.7656 56.9336C79.5156 56.9336 80.0742 56.8262 80.4414 56.6113C80.8086 56.3965 80.9922 56.1113 80.9922 55.7559C80.9922 55.4746 80.8906 55.2734 80.6875 55.1523C80.4883 55.0352 80.1152 54.9766 79.5684 54.9766H78.5254C78.1309 54.9766 77.8164 55.0684 77.582 55.252C77.3516 55.4395 77.2363 55.6914 77.2363 56.0078ZM77.8281 50.6172C77.8281 51.0234 77.9316 51.3359 78.1387 51.5547C78.3496 51.7734 78.6504 51.8828 79.041 51.8828C79.8379 51.8828 80.2363 51.457 80.2363 50.6055C80.2363 50.1836 80.1367 49.8594 79.9375 49.6328C79.7422 49.4023 79.4434 49.2871 79.041 49.2871C78.6426 49.2871 78.3398 49.4004 78.1328 49.627C77.9297 49.8535 77.8281 50.1836 77.8281 50.6172ZM89.2832 51.748C89.2832 52.8066 89.0117 53.6328 88.4688 54.2266C87.9258 54.8203 87.1699 55.1172 86.2012 55.1172C85.5957 55.1172 85.0605 54.9805 84.5957 54.707C84.1309 54.4336 83.7734 54.041 83.5234 53.5293C83.2734 53.0176 83.1484 52.4238 83.1484 51.748C83.1484 50.6973 83.418 49.877 83.957 49.2871C84.4961 48.6973 85.2559 48.4023 86.2363 48.4023C87.1738 48.4023 87.916 48.7051 88.4629 49.3105C89.0098 49.9121 89.2832 50.7246 89.2832 51.748ZM84.5664 51.748C84.5664 53.2441 85.1191 53.9922 86.2246 53.9922C87.3184 53.9922 87.8652 53.2441 87.8652 51.748C87.8652 50.2676 87.3145 49.5273 86.2129 49.5273C85.6348 49.5273 85.2148 49.7188 84.9531 50.1016C84.6953 50.4844 84.5664 51.0332 84.5664 51.748ZM95.4414 55L95.248 54.1504H95.1777C94.9863 54.4512 94.7129 54.6875 94.3574 54.8594C94.0059 55.0312 93.6035 55.1172 93.1504 55.1172C92.3652 55.1172 91.7793 54.9219 91.3926 54.5312C91.0059 54.1406 90.8125 53.5488 90.8125 52.7559V48.5195H92.2012V52.5156C92.2012 53.0117 92.3027 53.3848 92.5059 53.6348C92.709 53.8809 93.0273 54.0039 93.4609 54.0039C94.0391 54.0039 94.4629 53.832 94.7324 53.4883C95.0059 53.1406 95.1426 52.5605 95.1426 51.748V48.5195H96.5254V55H95.4414ZM104.189 55H102.807V51.0156C102.807 50.5156 102.705 50.1426 102.502 49.8965C102.303 49.6504 101.984 49.5273 101.547 49.5273C100.965 49.5273 100.539 49.6992 100.27 50.043C100 50.3867 99.8652 50.9629 99.8652 51.7715V55H98.4883V48.5195H99.5664L99.7598 49.3691H99.8301C100.025 49.0605 100.303 48.8223 100.662 48.6543C101.021 48.4863 101.42 48.4023 101.857 48.4023C103.412 48.4023 104.189 49.1934 104.189 50.7754V55ZM108.291 55.1172C107.482 55.1172 106.852 54.8242 106.398 54.2383C105.945 53.6523 105.719 52.8301 105.719 51.7715C105.719 50.709 105.947 49.8828 106.404 49.293C106.865 48.6992 107.502 48.4023 108.314 48.4023C109.166 48.4023 109.814 48.7168 110.26 49.3457H110.33C110.264 48.8809 110.23 48.5137 110.23 48.2441V45.8828H111.613V55H110.535L110.295 54.1504H110.23C109.789 54.7949 109.143 55.1172 108.291 55.1172ZM108.66 54.0039C109.227 54.0039 109.639 53.8457 109.896 53.5293C110.154 53.209 110.287 52.6914 110.295 51.9766V51.7832C110.295 50.9668 110.162 50.3867 109.896 50.043C109.631 49.6992 109.215 49.5273 108.648 49.5273C108.164 49.5273 107.791 49.7246 107.529 50.1191C107.268 50.5098 107.137 51.0684 107.137 51.7949C107.137 52.5137 107.264 53.0625 107.518 53.4414C107.771 53.8164 108.152 54.0039 108.66 54.0039Z" fill="black"/>
<path d="M470.775 47.5117C469.971 47.5117 469.338 47.7969 468.877 48.3672C468.416 48.9375 468.186 49.7246 468.186 50.7285C468.186 51.7793 468.406 52.5742 468.848 53.1133C469.293 53.6523 469.936 53.9219 470.775 53.9219C471.139 53.9219 471.49 53.8867 471.83 53.8164C472.17 53.7422 472.523 53.6484 472.891 53.5352V54.7363C472.219 54.9902 471.457 55.1172 470.605 55.1172C469.352 55.1172 468.389 54.7383 467.717 53.9805C467.045 53.2188 466.709 52.1309 466.709 50.7168C466.709 49.8262 466.871 49.0469 467.195 48.3789C467.523 47.7109 467.996 47.1992 468.613 46.8438C469.23 46.4883 469.955 46.3105 470.787 46.3105C471.662 46.3105 472.471 46.4941 473.213 46.8613L472.709 48.0273C472.42 47.8906 472.113 47.7715 471.789 47.6699C471.469 47.5645 471.131 47.5117 470.775 47.5117ZM480.338 51.748C480.338 52.8066 480.066 53.6328 479.523 54.2266C478.98 54.8203 478.225 55.1172 477.256 55.1172C476.65 55.1172 476.115 54.9805 475.65 54.707C475.186 54.4336 474.828 54.041 474.578 53.5293C474.328 53.0176 474.203 52.4238 474.203 51.748C474.203 50.6973 474.473 49.877 475.012 49.2871C475.551 48.6973 476.311 48.4023 477.291 48.4023C478.229 48.4023 478.971 48.7051 479.518 49.3105C480.064 49.9121 480.338 50.7246 480.338 51.748ZM475.621 51.748C475.621 53.2441 476.174 53.9922 477.279 53.9922C478.373 53.9922 478.92 53.2441 478.92 51.748C478.92 50.2676 478.369 49.5273 477.268 49.5273C476.689 49.5273 476.27 49.7188 476.008 50.1016C475.75 50.4844 475.621 51.0332 475.621 51.748ZM485.213 48.4023C485.49 48.4023 485.719 48.4219 485.898 48.4609L485.764 49.7441C485.568 49.6973 485.365 49.6738 485.154 49.6738C484.604 49.6738 484.156 49.8535 483.812 50.2129C483.473 50.5723 483.303 51.0391 483.303 51.6133V55H481.926V48.5195H483.004L483.186 49.6621H483.256C483.471 49.2754 483.75 48.9688 484.094 48.7422C484.441 48.5156 484.814 48.4023 485.213 48.4023ZM489.936 55.1172C488.928 55.1172 488.139 54.8242 487.568 54.2383C487.002 53.6484 486.719 52.8379 486.719 51.8066C486.719 50.748 486.982 49.916 487.51 49.3105C488.037 48.7051 488.762 48.4023 489.684 48.4023C490.539 48.4023 491.215 48.6621 491.711 49.1816C492.207 49.7012 492.455 50.416 492.455 51.3262V52.0703H488.137C488.156 52.6992 488.326 53.1836 488.646 53.5234C488.967 53.8594 489.418 54.0273 490 54.0273C490.383 54.0273 490.738 53.9922 491.066 53.9219C491.398 53.8477 491.754 53.7266 492.133 53.5586V54.6777C491.797 54.8379 491.457 54.9512 491.113 55.0176C490.77 55.084 490.377 55.1172 489.936 55.1172ZM489.684 49.4453C489.246 49.4453 488.895 49.584 488.629 49.8613C488.367 50.1387 488.211 50.543 488.16 51.0742H491.102C491.094 50.5391 490.965 50.1348 490.715 49.8613C490.465 49.584 490.121 49.4453 489.684 49.4453ZM498.373 53.1543C498.373 53.7871 498.143 54.2734 497.682 54.6133C497.221 54.9492 496.561 55.1172 495.701 55.1172C494.838 55.1172 494.145 54.9863 493.621 54.7246V53.5352C494.383 53.8867 495.092 54.0625 495.748 54.0625C496.596 54.0625 497.02 53.8066 497.02 53.2949C497.02 53.1309 496.973 52.9941 496.879 52.8848C496.785 52.7754 496.631 52.6621 496.416 52.5449C496.201 52.4277 495.902 52.2949 495.52 52.1465C494.773 51.8574 494.268 51.5684 494.002 51.2793C493.74 50.9902 493.609 50.6152 493.609 50.1543C493.609 49.5996 493.832 49.1699 494.277 48.8652C494.727 48.5566 495.336 48.4023 496.105 48.4023C496.867 48.4023 497.588 48.5566 498.268 48.8652L497.822 49.9023C497.123 49.6133 496.535 49.4688 496.059 49.4688C495.332 49.4688 494.969 49.6758 494.969 50.0898C494.969 50.293 495.062 50.4648 495.25 50.6055C495.441 50.7461 495.855 50.9395 496.492 51.1855C497.027 51.3926 497.416 51.582 497.658 51.7539C497.9 51.9258 498.08 52.125 498.197 52.3516C498.314 52.5742 498.373 52.8418 498.373 53.1543Z" fill="black"/>
<line x1="43" y1="65.5" x2="326" y2="65.5" stroke="black"/>
<line x1="466" y1="65.5" x2="749" y2="65.5" stroke="black"/>
<rect x="43" y="91" width="130" height="65" fill="#F5F5F5"/>
<rect x="43" y="173" width="130" height="65" fill="#00A85B"/>
<path d="M92.334 207.717C92.334 209.205 92.0938 210.311 91.6133 211.033C91.1367 211.756 90.4062 212.117 89.4219 212.117C88.4688 212.117 87.7461 211.744 87.2539 210.998C86.7617 210.252 86.5156 209.158 86.5156 207.717C86.5156 206.205 86.7539 205.092 87.2305 204.377C87.7109 203.658 88.4414 203.299 89.4219 203.299C90.3789 203.299 91.1035 203.674 91.5957 204.424C92.0879 205.174 92.334 206.271 92.334 207.717ZM87.9102 207.717C87.9102 208.885 88.0293 209.719 88.2676 210.219C88.5098 210.719 88.8945 210.969 89.4219 210.969C89.9492 210.969 90.334 210.715 90.5762 210.207C90.8223 209.699 90.9453 208.869 90.9453 207.717C90.9453 206.568 90.8223 205.738 90.5762 205.227C90.334 204.711 89.9492 204.453 89.4219 204.453C88.8945 204.453 88.5098 204.705 88.2676 205.209C88.0293 205.713 87.9102 206.549 87.9102 207.717ZM99.1895 207.717C99.1895 209.205 98.9492 210.311 98.4688 211.033C97.9922 211.756 97.2617 212.117 96.2773 212.117C95.3242 212.117 94.6016 211.744 94.1094 210.998C93.6172 210.252 93.3711 209.158 93.3711 207.717C93.3711 206.205 93.6094 205.092 94.0859 204.377C94.5664 203.658 95.2969 203.299 96.2773 203.299C97.2344 203.299 97.959 203.674 98.4512 204.424C98.9434 205.174 99.1895 206.271 99.1895 207.717ZM94.7656 207.717C94.7656 208.885 94.8848 209.719 95.123 210.219C95.3652 210.719 95.75 210.969 96.2773 210.969C96.8047 210.969 97.1895 210.715 97.4316 210.207C97.6777 209.699 97.8008 208.869 97.8008 207.717C97.8008 206.568 97.6777 205.738 97.4316 205.227C97.1895 204.711 96.8047 204.453 96.2773 204.453C95.75 204.453 95.3652 204.705 95.123 205.209C94.8848 205.713 94.7656 206.549 94.7656 207.717ZM106.156 212L105.301 209.621H102.025L101.188 212H99.7109L102.916 203.398H104.439L107.645 212H106.156ZM104.932 208.414L104.129 206.082C104.07 205.926 103.988 205.68 103.883 205.344C103.781 205.008 103.711 204.762 103.672 204.605C103.566 205.086 103.412 205.611 103.209 206.182L102.436 208.414H104.932ZM111.066 203.322C111.879 203.322 112.521 203.51 112.994 203.885C113.467 204.256 113.703 204.754 113.703 205.379C113.703 206.258 113.176 206.957 112.121 207.477C112.793 207.812 113.27 208.166 113.551 208.537C113.836 208.908 113.979 209.322 113.979 209.779C113.979 210.486 113.719 211.053 113.199 211.479C112.68 211.904 111.977 212.117 111.09 212.117C110.16 212.117 109.439 211.918 108.928 211.52C108.416 211.121 108.16 210.557 108.16 209.826C108.16 209.35 108.293 208.922 108.559 208.543C108.828 208.16 109.268 207.82 109.877 207.523C109.354 207.211 108.98 206.881 108.758 206.533C108.535 206.186 108.424 205.795 108.424 205.361C108.424 204.74 108.668 204.246 109.156 203.879C109.645 203.508 110.281 203.322 111.066 203.322ZM109.479 209.779C109.479 210.186 109.621 210.502 109.906 210.729C110.191 210.951 110.578 211.062 111.066 211.062C111.57 211.062 111.961 210.947 112.238 210.717C112.52 210.482 112.66 210.166 112.66 209.768C112.66 209.451 112.531 209.162 112.273 208.9C112.016 208.639 111.625 208.396 111.102 208.174L110.932 208.098C110.416 208.324 110.045 208.574 109.818 208.848C109.592 209.117 109.479 209.428 109.479 209.779ZM111.055 204.383C110.664 204.383 110.35 204.48 110.111 204.676C109.873 204.867 109.754 205.129 109.754 205.461C109.754 205.664 109.797 205.846 109.883 206.006C109.969 206.166 110.094 206.312 110.258 206.445C110.422 206.574 110.699 206.73 111.09 206.914C111.559 206.707 111.889 206.49 112.08 206.264C112.275 206.033 112.373 205.766 112.373 205.461C112.373 205.129 112.252 204.867 112.01 204.676C111.771 204.48 111.453 204.383 111.055 204.383ZM117.934 206.65C118.797 206.65 119.48 206.879 119.984 207.336C120.488 207.793 120.74 208.416 120.74 209.205C120.74 210.119 120.453 210.834 119.879 211.35C119.309 211.861 118.496 212.117 117.441 212.117C116.484 212.117 115.732 211.963 115.186 211.654V210.406C115.502 210.586 115.865 210.725 116.275 210.822C116.686 210.92 117.066 210.969 117.418 210.969C118.039 210.969 118.512 210.83 118.836 210.553C119.16 210.275 119.322 209.869 119.322 209.334C119.322 208.311 118.67 207.799 117.365 207.799C117.182 207.799 116.955 207.818 116.686 207.857C116.416 207.893 116.18 207.934 115.977 207.98L115.361 207.617L115.689 203.434H120.143V204.658H116.902L116.709 206.779C116.846 206.756 117.012 206.729 117.207 206.697C117.406 206.666 117.648 206.65 117.934 206.65ZM122.486 203.434H125.029C126.209 203.434 127.061 203.605 127.584 203.949C128.111 204.293 128.375 204.836 128.375 205.578C128.375 206.078 128.246 206.494 127.988 206.826C127.73 207.158 127.359 207.367 126.875 207.453V207.512C127.477 207.625 127.918 207.85 128.199 208.186C128.484 208.518 128.627 208.969 128.627 209.539C128.627 210.309 128.357 210.912 127.818 211.35C127.283 211.783 126.537 212 125.58 212H122.486V203.434ZM123.887 206.973H125.234C125.82 206.973 126.248 206.881 126.518 206.697C126.787 206.51 126.922 206.193 126.922 205.748C126.922 205.346 126.775 205.055 126.482 204.875C126.193 204.695 125.732 204.605 125.1 204.605H123.887V206.973ZM123.887 208.109V210.822H125.375C125.961 210.822 126.402 210.711 126.699 210.488C127 210.262 127.15 209.906 127.15 209.422C127.15 208.977 126.998 208.646 126.693 208.432C126.389 208.217 125.926 208.109 125.305 208.109H123.887Z" fill="black"/>
<path d="M89.5195 130H88.1309V121.434H92.9648V122.617H89.5195V125.295H92.748V126.484H89.5195V130ZM96.8203 124.65C97.6836 124.65 98.3672 124.879 98.8711 125.336C99.375 125.793 99.627 126.416 99.627 127.205C99.627 128.119 99.3398 128.834 98.7656 129.35C98.1953 129.861 97.3828 130.117 96.3281 130.117C95.3711 130.117 94.6191 129.963 94.0723 129.654V128.406C94.3887 128.586 94.752 128.725 95.1621 128.822C95.5723 128.92 95.9531 128.969 96.3047 128.969C96.9258 128.969 97.3984 128.83 97.7227 128.553C98.0469 128.275 98.209 127.869 98.209 127.334C98.209 126.311 97.5566 125.799 96.252 125.799C96.0684 125.799 95.8418 125.818 95.5723 125.857C95.3027 125.893 95.0664 125.934 94.8633 125.98L94.248 125.617L94.5762 121.434H99.0293V122.658H95.7891L95.5957 124.779C95.7324 124.756 95.8984 124.729 96.0938 124.697C96.293 124.666 96.5352 124.65 96.8203 124.65ZM102.762 130H101.373V121.434H106.207V122.617H102.762V125.295H105.99V126.484H102.762V130ZM110.062 124.65C110.926 124.65 111.609 124.879 112.113 125.336C112.617 125.793 112.869 126.416 112.869 127.205C112.869 128.119 112.582 128.834 112.008 129.35C111.438 129.861 110.625 130.117 109.57 130.117C108.613 130.117 107.861 129.963 107.314 129.654V128.406C107.631 128.586 107.994 128.725 108.404 128.822C108.814 128.92 109.195 128.969 109.547 128.969C110.168 128.969 110.641 128.83 110.965 128.553C111.289 128.275 111.451 127.869 111.451 127.334C111.451 126.311 110.799 125.799 109.494 125.799C109.311 125.799 109.084 125.818 108.814 125.857C108.545 125.893 108.309 125.934 108.105 125.98L107.49 125.617L107.818 121.434H112.271V122.658H109.031L108.838 124.779C108.975 124.756 109.141 124.729 109.336 124.697C109.535 124.666 109.777 124.65 110.062 124.65ZM116.004 130H114.615V121.434H119.449V122.617H116.004V125.295H119.232V126.484H116.004V130ZM123.305 124.65C124.168 124.65 124.852 124.879 125.355 125.336C125.859 125.793 126.111 126.416 126.111 127.205C126.111 128.119 125.824 128.834 125.25 129.35C124.68 129.861 123.867 130.117 122.812 130.117C121.855 130.117 121.104 129.963 120.557 129.654V128.406C120.873 128.586 121.236 128.725 121.646 128.822C122.057 128.92 122.438 128.969 122.789 128.969C123.41 128.969 123.883 128.83 124.207 128.553C124.531 128.275 124.693 127.869 124.693 127.334C124.693 126.311 124.041 125.799 122.736 125.799C122.553 125.799 122.326 125.818 122.057 125.857C121.787 125.893 121.551 125.934 121.348 125.98L120.732 125.617L121.061 121.434H125.514V122.658H122.273L122.08 124.779C122.217 124.756 122.383 124.729 122.578 124.697C122.777 124.666 123.02 124.65 123.305 124.65Z" fill="black"/>
<rect x="43" y="255" width="130" height="65" fill="#29BCB6"/>
<rect x="196" y="91" width="130" height="65" fill="#FBFBFB"/>
<rect x="466" y="91" width="130" height="45" fill="#00A85B"/>
<rect x="466" y="173" width="130" height="45" fill="#29BCB6"/>
<rect x="466" y="255" width="130" height="45" fill="#515151"/>
<rect x="619" y="255" width="130" height="45" fill="#CCCCCC"/>
<rect x="619" y="173" width="130" height="45" fill="#4079BC"/>
<rect x="619" y="91" width="130" height="45" fill="#FFCC2A"/>
<rect x="466" y="136" width="65" height="20" fill="#61B788"/>
<rect x="466" y="218" width="65" height="20" fill="#69D2CE"/>
<rect x="466" y="300" width="65" height="20" fill="#767676"/>
<rect x="619" y="300" width="65" height="20" fill="#E0E0E0"/>
<rect x="619" y="218" width="65" height="20" fill="#6998D0"/>
<rect x="619" y="136" width="65" height="20" fill="#FEE96A"/>
<rect x="684" y="136" width="65" height="20" fill="#E6BB2E"/>
<rect x="531" y="136" width="65" height="20" fill="#1A814C"/>
<rect x="531" y="218" width="65" height="20" fill="#0E9994"/>
<rect x="531" y="300" width="65" height="20" fill="#333333"/>
<rect x="684" y="300" width="65" height="20" fill="#999999"/>
<rect x="684" y="218" width="65" height="20" fill="#346399"/>
<rect x="196" y="173" width="130" height="65" fill="#FFCC2A"/>
<rect x="196" y="255" width="130" height="65" fill="#4079BC"/>
<path d="M93.334 292H87.5273V290.957L89.7363 288.736C90.3887 288.068 90.8203 287.596 91.0312 287.318C91.2461 287.037 91.4023 286.773 91.5 286.527C91.5977 286.281 91.6465 286.018 91.6465 285.736C91.6465 285.35 91.5293 285.045 91.2949 284.822C91.0645 284.6 90.7441 284.488 90.334 284.488C90.0059 284.488 89.6875 284.549 89.3789 284.67C89.0742 284.791 88.7207 285.01 88.3184 285.326L87.5742 284.418C88.0508 284.016 88.5137 283.73 88.9629 283.562C89.4121 283.395 89.8906 283.311 90.3984 283.311C91.1953 283.311 91.834 283.52 92.3145 283.938C92.7949 284.352 93.0352 284.91 93.0352 285.613C93.0352 286 92.9648 286.367 92.8242 286.715C92.6875 287.062 92.4746 287.422 92.1855 287.793C91.9004 288.16 91.4238 288.658 90.7559 289.287L89.2676 290.729V290.787H93.334V292ZM100.178 287.09C100.178 288.777 99.8379 290.037 99.1582 290.869C98.4785 291.701 97.4551 292.117 96.0879 292.117C95.5684 292.117 95.1953 292.086 94.9688 292.023V290.869C95.3164 290.967 95.666 291.016 96.0176 291.016C96.9473 291.016 97.6406 290.766 98.0977 290.266C98.5547 289.766 98.8047 288.98 98.8477 287.91H98.7773C98.5469 288.262 98.2676 288.516 97.9395 288.672C97.6152 288.828 97.2344 288.906 96.7969 288.906C96.0391 288.906 95.4434 288.67 95.0098 288.197C94.5762 287.725 94.3594 287.076 94.3594 286.252C94.3594 285.357 94.6094 284.646 95.1094 284.119C95.6133 283.588 96.2988 283.322 97.166 283.322C97.7754 283.322 98.3066 283.471 98.7598 283.768C99.2129 284.064 99.5625 284.496 99.8086 285.062C100.055 285.625 100.178 286.301 100.178 287.09ZM97.1895 284.465C96.7129 284.465 96.3477 284.621 96.0938 284.934C95.8398 285.242 95.7129 285.678 95.7129 286.24C95.7129 286.729 95.8301 287.113 96.0645 287.395C96.3027 287.672 96.6621 287.811 97.1426 287.811C97.6074 287.811 97.998 287.672 98.3145 287.395C98.6309 287.117 98.7891 286.793 98.7891 286.422C98.7891 286.074 98.7207 285.75 98.584 285.449C98.4512 285.145 98.2637 284.904 98.0215 284.729C97.7793 284.553 97.502 284.465 97.1895 284.465ZM101.842 283.434H104.385C105.564 283.434 106.416 283.605 106.939 283.949C107.467 284.293 107.73 284.836 107.73 285.578C107.73 286.078 107.602 286.494 107.344 286.826C107.086 287.158 106.715 287.367 106.23 287.453V287.512C106.832 287.625 107.273 287.85 107.555 288.186C107.84 288.518 107.982 288.969 107.982 289.539C107.982 290.309 107.713 290.912 107.174 291.35C106.639 291.783 105.893 292 104.936 292H101.842V283.434ZM103.242 286.973H104.59C105.176 286.973 105.604 286.881 105.873 286.697C106.143 286.51 106.277 286.193 106.277 285.748C106.277 285.346 106.131 285.055 105.838 284.875C105.549 284.695 105.088 284.605 104.455 284.605H103.242V286.973ZM103.242 288.109V290.822H104.73C105.316 290.822 105.758 290.711 106.055 290.488C106.355 290.262 106.506 289.906 106.506 289.422C106.506 288.977 106.354 288.646 106.049 288.432C105.744 288.217 105.281 288.109 104.66 288.109H103.242ZM113.408 284.512C112.604 284.512 111.971 284.797 111.51 285.367C111.049 285.938 110.818 286.725 110.818 287.729C110.818 288.779 111.039 289.574 111.48 290.113C111.926 290.652 112.568 290.922 113.408 290.922C113.771 290.922 114.123 290.887 114.463 290.816C114.803 290.742 115.156 290.648 115.523 290.535V291.736C114.852 291.99 114.09 292.117 113.238 292.117C111.984 292.117 111.021 291.738 110.35 290.98C109.678 290.219 109.342 289.131 109.342 287.717C109.342 286.826 109.504 286.047 109.828 285.379C110.156 284.711 110.629 284.199 111.246 283.844C111.863 283.488 112.588 283.311 113.42 283.311C114.295 283.311 115.104 283.494 115.846 283.861L115.342 285.027C115.053 284.891 114.746 284.771 114.422 284.67C114.102 284.564 113.764 284.512 113.408 284.512ZM117.369 283.434H119.912C121.092 283.434 121.943 283.605 122.467 283.949C122.994 284.293 123.258 284.836 123.258 285.578C123.258 286.078 123.129 286.494 122.871 286.826C122.613 287.158 122.242 287.367 121.758 287.453V287.512C122.359 287.625 122.801 287.85 123.082 288.186C123.367 288.518 123.51 288.969 123.51 289.539C123.51 290.309 123.24 290.912 122.701 291.35C122.166 291.783 121.42 292 120.463 292H117.369V283.434ZM118.77 286.973H120.117C120.703 286.973 121.131 286.881 121.4 286.697C121.67 286.51 121.805 286.193 121.805 285.748C121.805 285.346 121.658 285.055 121.365 284.875C121.076 284.695 120.615 284.605 119.982 284.605H118.77V286.973ZM118.77 288.109V290.822H120.258C120.844 290.822 121.285 290.711 121.582 290.488C121.883 290.262 122.033 289.906 122.033 289.422C122.033 288.977 121.881 288.646 121.576 288.432C121.271 288.217 120.809 288.109 120.188 288.109H118.77ZM124.711 288.35C124.711 284.998 126.076 283.322 128.807 283.322C129.236 283.322 129.6 283.355 129.896 283.422V284.57C129.6 284.484 129.256 284.441 128.865 284.441C127.947 284.441 127.258 284.688 126.797 285.18C126.336 285.672 126.086 286.461 126.047 287.547H126.117C126.301 287.23 126.559 286.986 126.891 286.814C127.223 286.639 127.613 286.551 128.062 286.551C128.84 286.551 129.445 286.789 129.879 287.266C130.312 287.742 130.529 288.389 130.529 289.205C130.529 290.104 130.277 290.814 129.773 291.338C129.273 291.857 128.59 292.117 127.723 292.117C127.109 292.117 126.576 291.971 126.123 291.678C125.67 291.381 125.32 290.951 125.074 290.389C124.832 289.822 124.711 289.143 124.711 288.35ZM127.699 290.98C128.172 290.98 128.535 290.828 128.789 290.523C129.047 290.219 129.176 289.783 129.176 289.217C129.176 288.725 129.055 288.338 128.812 288.057C128.574 287.775 128.215 287.635 127.734 287.635C127.438 287.635 127.164 287.699 126.914 287.828C126.664 287.953 126.467 288.127 126.322 288.35C126.178 288.568 126.105 288.793 126.105 289.023C126.105 289.574 126.254 290.039 126.551 290.418C126.852 290.793 127.234 290.98 127.699 290.98Z" fill="black"/>
<path d="M241.52 130H240.131V121.434H244.965V122.617H241.52V125.295H244.748V126.484H241.52V130ZM246.518 121.434H249.061C250.24 121.434 251.092 121.605 251.615 121.949C252.143 122.293 252.406 122.836 252.406 123.578C252.406 124.078 252.277 124.494 252.02 124.826C251.762 125.158 251.391 125.367 250.906 125.453V125.512C251.508 125.625 251.949 125.85 252.23 126.186C252.516 126.518 252.658 126.969 252.658 127.539C252.658 128.309 252.389 128.912 251.85 129.35C251.314 129.783 250.568 130 249.611 130H246.518V121.434ZM247.918 124.973H249.266C249.852 124.973 250.279 124.881 250.549 124.697C250.818 124.51 250.953 124.193 250.953 123.748C250.953 123.346 250.807 123.055 250.514 122.875C250.225 122.695 249.764 122.605 249.131 122.605H247.918V124.973ZM247.918 126.109V128.822H249.406C249.992 128.822 250.434 128.711 250.73 128.488C251.031 128.262 251.182 127.906 251.182 127.422C251.182 126.977 251.029 126.646 250.725 126.432C250.42 126.217 249.957 126.109 249.336 126.109H247.918ZM255.828 130H254.439V121.434H259.273V122.617H255.828V125.295H259.057V126.484H255.828V130ZM260.826 121.434H263.369C264.549 121.434 265.4 121.605 265.924 121.949C266.451 122.293 266.715 122.836 266.715 123.578C266.715 124.078 266.586 124.494 266.328 124.826C266.07 125.158 265.699 125.367 265.215 125.453V125.512C265.816 125.625 266.258 125.85 266.539 126.186C266.824 126.518 266.967 126.969 266.967 127.539C266.967 128.309 266.697 128.912 266.158 129.35C265.623 129.783 264.877 130 263.92 130H260.826V121.434ZM262.227 124.973H263.574C264.16 124.973 264.588 124.881 264.857 124.697C265.127 124.51 265.262 124.193 265.262 123.748C265.262 123.346 265.115 123.055 264.822 122.875C264.533 122.695 264.072 122.605 263.439 122.605H262.227V124.973ZM262.227 126.109V128.822H263.715C264.301 128.822 264.742 128.711 265.039 128.488C265.34 128.262 265.49 127.906 265.49 127.422C265.49 126.977 265.338 126.646 265.033 126.432C264.729 126.217 264.266 126.109 263.645 126.109H262.227ZM270.137 130H268.748V121.434H273.582V122.617H270.137V125.295H273.365V126.484H270.137V130ZM275.135 121.434H277.678C278.857 121.434 279.709 121.605 280.232 121.949C280.76 122.293 281.023 122.836 281.023 123.578C281.023 124.078 280.895 124.494 280.637 124.826C280.379 125.158 280.008 125.367 279.523 125.453V125.512C280.125 125.625 280.566 125.85 280.848 126.186C281.133 126.518 281.275 126.969 281.275 127.539C281.275 128.309 281.006 128.912 280.467 129.35C279.932 129.783 279.186 130 278.229 130H275.135V121.434ZM276.535 124.973H277.883C278.469 124.973 278.896 124.881 279.166 124.697C279.436 124.51 279.57 124.193 279.57 123.748C279.57 123.346 279.424 123.055 279.131 122.875C278.842 122.695 278.381 122.605 277.748 122.605H276.535V124.973ZM276.535 126.109V128.822H278.023C278.609 128.822 279.051 128.711 279.348 128.488C279.648 128.262 279.799 127.906 279.799 127.422C279.799 126.977 279.646 126.646 279.342 126.432C279.037 126.217 278.574 126.109 277.953 126.109H276.535Z" fill="black"/>
<path d="M242.52 212H241.131V203.434H245.965V204.617H242.52V207.295H245.748V208.484H242.52V212ZM248.906 212H247.518V203.434H252.352V204.617H248.906V207.295H252.135V208.484H248.906V212ZM257.549 204.512C256.744 204.512 256.111 204.797 255.65 205.367C255.189 205.938 254.959 206.725 254.959 207.729C254.959 208.779 255.18 209.574 255.621 210.113C256.066 210.652 256.709 210.922 257.549 210.922C257.912 210.922 258.264 210.887 258.604 210.816C258.943 210.742 259.297 210.648 259.664 210.535V211.736C258.992 211.99 258.23 212.117 257.379 212.117C256.125 212.117 255.162 211.738 254.49 210.98C253.818 210.219 253.482 209.131 253.482 207.717C253.482 206.826 253.645 206.047 253.969 205.379C254.297 204.711 254.77 204.199 255.387 203.844C256.004 203.488 256.729 203.311 257.561 203.311C258.436 203.311 259.244 203.494 259.986 203.861L259.482 205.027C259.193 204.891 258.887 204.771 258.562 204.67C258.242 204.564 257.904 204.512 257.549 204.512ZM265.154 204.512C264.35 204.512 263.717 204.797 263.256 205.367C262.795 205.938 262.564 206.725 262.564 207.729C262.564 208.779 262.785 209.574 263.227 210.113C263.672 210.652 264.314 210.922 265.154 210.922C265.518 210.922 265.869 210.887 266.209 210.816C266.549 210.742 266.902 210.648 267.27 210.535V211.736C266.598 211.99 265.836 212.117 264.984 212.117C263.73 212.117 262.768 211.738 262.096 210.98C261.424 210.219 261.088 209.131 261.088 207.717C261.088 206.826 261.25 206.047 261.574 205.379C261.902 204.711 262.375 204.199 262.992 203.844C263.609 203.488 264.334 203.311 265.166 203.311C266.041 203.311 266.85 203.494 267.592 203.861L267.088 205.027C266.799 204.891 266.492 204.771 266.168 204.67C265.848 204.564 265.51 204.512 265.154 204.512ZM274.318 212H268.512V210.957L270.721 208.736C271.373 208.068 271.805 207.596 272.016 207.318C272.23 207.037 272.387 206.773 272.484 206.527C272.582 206.281 272.631 206.018 272.631 205.736C272.631 205.35 272.514 205.045 272.279 204.822C272.049 204.6 271.729 204.488 271.318 204.488C270.99 204.488 270.672 204.549 270.363 204.67C270.059 204.791 269.705 205.01 269.303 205.326L268.559 204.418C269.035 204.016 269.498 203.73 269.947 203.562C270.396 203.395 270.875 203.311 271.383 203.311C272.18 203.311 272.818 203.52 273.299 203.938C273.779 204.352 274.02 204.91 274.02 205.613C274.02 206 273.949 206.367 273.809 206.715C273.672 207.062 273.459 207.422 273.17 207.793C272.885 208.16 272.408 208.658 271.74 209.287L270.252 210.729V210.787H274.318V212ZM281.285 212L280.43 209.621H277.154L276.316 212H274.84L278.045 203.398H279.568L282.773 212H281.285ZM280.061 208.414L279.258 206.082C279.199 205.926 279.117 205.68 279.012 205.344C278.91 205.008 278.84 204.762 278.801 204.605C278.695 205.086 278.541 205.611 278.338 206.182L277.564 208.414H280.061Z" fill="black"/>
<path d="M477.551 147.35C477.551 143.998 478.916 142.322 481.646 142.322C482.076 142.322 482.439 142.355 482.736 142.422V143.57C482.439 143.484 482.096 143.441 481.705 143.441C480.787 143.441 480.098 143.688 479.637 144.18C479.176 144.672 478.926 145.461 478.887 146.547H478.957C479.141 146.23 479.398 145.986 479.73 145.814C480.062 145.639 480.453 145.551 480.902 145.551C481.68 145.551 482.285 145.789 482.719 146.266C483.152 146.742 483.369 147.389 483.369 148.205C483.369 149.104 483.117 149.814 482.613 150.338C482.113 150.857 481.43 151.117 480.562 151.117C479.949 151.117 479.416 150.971 478.963 150.678C478.51 150.381 478.16 149.951 477.914 149.389C477.672 148.822 477.551 148.143 477.551 147.35ZM480.539 149.98C481.012 149.98 481.375 149.828 481.629 149.523C481.887 149.219 482.016 148.783 482.016 148.217C482.016 147.725 481.895 147.338 481.652 147.057C481.414 146.775 481.055 146.635 480.574 146.635C480.277 146.635 480.004 146.699 479.754 146.828C479.504 146.953 479.307 147.127 479.162 147.35C479.018 147.568 478.945 147.793 478.945 148.023C478.945 148.574 479.094 149.039 479.391 149.418C479.691 149.793 480.074 149.98 480.539 149.98ZM488.426 151H487.049V145.469C487.049 144.809 487.064 144.285 487.096 143.898C487.006 143.992 486.895 144.096 486.762 144.209C486.633 144.322 486.195 144.682 485.449 145.287L484.758 144.414L487.277 142.434H488.426V151ZM491.842 142.434H494.385C495.564 142.434 496.416 142.605 496.939 142.949C497.467 143.293 497.73 143.836 497.73 144.578C497.73 145.078 497.602 145.494 497.344 145.826C497.086 146.158 496.715 146.367 496.23 146.453V146.512C496.832 146.625 497.273 146.85 497.555 147.186C497.84 147.518 497.982 147.969 497.982 148.539C497.982 149.309 497.713 149.912 497.174 150.35C496.639 150.783 495.893 151 494.936 151H491.842V142.434ZM493.242 145.973H494.59C495.176 145.973 495.604 145.881 495.873 145.697C496.143 145.51 496.277 145.193 496.277 144.748C496.277 144.346 496.131 144.055 495.838 143.875C495.549 143.695 495.088 143.605 494.455 143.605H493.242V145.973ZM493.242 147.109V149.822H494.73C495.316 149.822 495.758 149.711 496.055 149.488C496.355 149.262 496.506 148.906 496.506 148.422C496.506 147.977 496.354 147.646 496.049 147.432C495.744 147.217 495.281 147.109 494.66 147.109H493.242ZM500.133 151L503.52 143.658H499.066V142.445H504.99V143.406L501.621 151H500.133ZM508.91 142.322C509.723 142.322 510.365 142.51 510.838 142.885C511.311 143.256 511.547 143.754 511.547 144.379C511.547 145.258 511.02 145.957 509.965 146.477C510.637 146.812 511.113 147.166 511.395 147.537C511.68 147.908 511.822 148.322 511.822 148.779C511.822 149.486 511.562 150.053 511.043 150.479C510.523 150.904 509.82 151.117 508.934 151.117C508.004 151.117 507.283 150.918 506.771 150.52C506.26 150.121 506.004 149.557 506.004 148.826C506.004 148.35 506.137 147.922 506.402 147.543C506.672 147.16 507.111 146.82 507.721 146.523C507.197 146.211 506.824 145.881 506.602 145.533C506.379 145.186 506.268 144.795 506.268 144.361C506.268 143.74 506.512 143.246 507 142.879C507.488 142.508 508.125 142.322 508.91 142.322ZM507.322 148.779C507.322 149.186 507.465 149.502 507.75 149.729C508.035 149.951 508.422 150.062 508.91 150.062C509.414 150.062 509.805 149.947 510.082 149.717C510.363 149.482 510.504 149.166 510.504 148.768C510.504 148.451 510.375 148.162 510.117 147.9C509.859 147.639 509.469 147.396 508.945 147.174L508.775 147.098C508.26 147.324 507.889 147.574 507.662 147.848C507.436 148.117 507.322 148.428 507.322 148.779ZM508.898 143.383C508.508 143.383 508.193 143.48 507.955 143.676C507.717 143.867 507.598 144.129 507.598 144.461C507.598 144.664 507.641 144.846 507.727 145.006C507.812 145.166 507.938 145.312 508.102 145.445C508.266 145.574 508.543 145.73 508.934 145.914C509.402 145.707 509.732 145.49 509.924 145.264C510.119 145.033 510.217 144.766 510.217 144.461C510.217 144.129 510.096 143.867 509.854 143.676C509.615 143.48 509.297 143.383 508.898 143.383ZM515.766 142.322C516.578 142.322 517.221 142.51 517.693 142.885C518.166 143.256 518.402 143.754 518.402 144.379C518.402 145.258 517.875 145.957 516.82 146.477C517.492 146.812 517.969 147.166 518.25 147.537C518.535 147.908 518.678 148.322 518.678 148.779C518.678 149.486 518.418 150.053 517.898 150.479C517.379 150.904 516.676 151.117 515.789 151.117C514.859 151.117 514.139 150.918 513.627 150.52C513.115 150.121 512.859 149.557 512.859 148.826C512.859 148.35 512.992 147.922 513.258 147.543C513.527 147.16 513.967 146.82 514.576 146.523C514.053 146.211 513.68 145.881 513.457 145.533C513.234 145.186 513.123 144.795 513.123 144.361C513.123 143.74 513.367 143.246 513.855 142.879C514.344 142.508 514.98 142.322 515.766 142.322ZM514.178 148.779C514.178 149.186 514.32 149.502 514.605 149.729C514.891 149.951 515.277 150.062 515.766 150.062C516.27 150.062 516.66 149.947 516.938 149.717C517.219 149.482 517.359 149.166 517.359 148.768C517.359 148.451 517.23 148.162 516.973 147.9C516.715 147.639 516.324 147.396 515.801 147.174L515.631 147.098C515.115 147.324 514.744 147.574 514.518 147.848C514.291 148.117 514.178 148.428 514.178 148.779ZM515.754 143.383C515.363 143.383 515.049 143.48 514.811 143.676C514.572 143.867 514.453 144.129 514.453 144.461C514.453 144.664 514.496 144.846 514.582 145.006C514.668 145.166 514.793 145.312 514.957 145.445C515.121 145.574 515.398 145.73 515.789 145.914C516.258 145.707 516.588 145.49 516.779 145.264C516.975 145.033 517.072 144.766 517.072 144.461C517.072 144.129 516.951 143.867 516.709 143.676C516.471 143.48 516.152 143.383 515.754 143.383Z" fill="black"/>
<path d="M548.57 151H547.193V145.469C547.193 144.809 547.209 144.285 547.24 143.898C547.15 143.992 547.039 144.096 546.906 144.209C546.777 144.322 546.34 144.682 545.594 145.287L544.902 144.414L547.422 142.434H548.57V151ZM557.301 151L556.445 148.621H553.17L552.332 151H550.855L554.061 142.398H555.584L558.789 151H557.301ZM556.076 147.414L555.273 145.082C555.215 144.926 555.133 144.68 555.027 144.344C554.926 144.008 554.855 143.762 554.816 143.605C554.711 144.086 554.557 144.611 554.354 145.182L553.58 147.414H556.076ZM562.211 142.322C563.023 142.322 563.666 142.51 564.139 142.885C564.611 143.256 564.848 143.754 564.848 144.379C564.848 145.258 564.32 145.957 563.266 146.477C563.938 146.812 564.414 147.166 564.695 147.537C564.98 147.908 565.123 148.322 565.123 148.779C565.123 149.486 564.863 150.053 564.344 150.479C563.824 150.904 563.121 151.117 562.234 151.117C561.305 151.117 560.584 150.918 560.072 150.52C559.561 150.121 559.305 149.557 559.305 148.826C559.305 148.35 559.438 147.922 559.703 147.543C559.973 147.16 560.412 146.82 561.021 146.523C560.498 146.211 560.125 145.881 559.902 145.533C559.68 145.186 559.568 144.795 559.568 144.361C559.568 143.74 559.812 143.246 560.301 142.879C560.789 142.508 561.426 142.322 562.211 142.322ZM560.623 148.779C560.623 149.186 560.766 149.502 561.051 149.729C561.336 149.951 561.723 150.062 562.211 150.062C562.715 150.062 563.105 149.947 563.383 149.717C563.664 149.482 563.805 149.166 563.805 148.768C563.805 148.451 563.676 148.162 563.418 147.9C563.16 147.639 562.77 147.396 562.246 147.174L562.076 147.098C561.561 147.324 561.189 147.574 560.963 147.848C560.736 148.117 560.623 148.428 560.623 148.779ZM562.199 143.383C561.809 143.383 561.494 143.48 561.256 143.676C561.018 143.867 560.898 144.129 560.898 144.461C560.898 144.664 560.941 144.846 561.027 145.006C561.113 145.166 561.238 145.312 561.402 145.445C561.566 145.574 561.844 145.73 562.234 145.914C562.703 145.707 563.033 145.49 563.225 145.264C563.42 145.033 563.518 144.766 563.518 144.461C563.518 144.129 563.396 143.867 563.154 143.676C562.916 143.48 562.598 143.383 562.199 143.383ZM570.215 151H568.838V145.469C568.838 144.809 568.854 144.285 568.885 143.898C568.795 143.992 568.684 144.096 568.551 144.209C568.422 144.322 567.984 144.682 567.238 145.287L566.547 144.414L569.066 142.434H570.215V151ZM579.139 149.131H577.984V151H576.643V149.131H572.729V148.07L576.643 142.41H577.984V147.988H579.139V149.131ZM576.643 147.988V145.838C576.643 145.072 576.662 144.445 576.701 143.957H576.654C576.545 144.215 576.373 144.527 576.139 144.895L574.012 147.988H576.643ZM584.131 143.512C583.326 143.512 582.693 143.797 582.232 144.367C581.771 144.938 581.541 145.725 581.541 146.729C581.541 147.779 581.762 148.574 582.203 149.113C582.648 149.652 583.291 149.922 584.131 149.922C584.494 149.922 584.846 149.887 585.186 149.816C585.525 149.742 585.879 149.648 586.246 149.535V150.736C585.574 150.99 584.812 151.117 583.961 151.117C582.707 151.117 581.744 150.738 581.072 149.98C580.4 149.219 580.064 148.131 580.064 146.717C580.064 145.826 580.227 145.047 580.551 144.379C580.879 143.711 581.352 143.199 581.969 142.844C582.586 142.488 583.311 142.311 584.143 142.311C585.018 142.311 585.826 142.494 586.568 142.861L586.064 144.027C585.775 143.891 585.469 143.771 585.145 143.67C584.824 143.564 584.486 143.512 584.131 143.512Z" fill="black"/>
<path d="M632.52 151H631.131V142.434H635.965V143.617H632.52V146.295H635.748V147.484H632.52V151ZM642.363 151H637.518V142.434H642.363V143.617H638.918V145.949H642.146V147.121H638.918V149.811H642.363V151ZM649.066 151H644.221V142.434H649.066V143.617H645.621V145.949H648.85V147.121H645.621V149.811H649.066V151ZM656.115 146.09C656.115 147.777 655.775 149.037 655.096 149.869C654.416 150.701 653.393 151.117 652.025 151.117C651.506 151.117 651.133 151.086 650.906 151.023V149.869C651.254 149.967 651.604 150.016 651.955 150.016C652.885 150.016 653.578 149.766 654.035 149.266C654.492 148.766 654.742 147.98 654.785 146.91H654.715C654.484 147.262 654.205 147.516 653.877 147.672C653.553 147.828 653.172 147.906 652.734 147.906C651.977 147.906 651.381 147.67 650.947 147.197C650.514 146.725 650.297 146.076 650.297 145.252C650.297 144.357 650.547 143.646 651.047 143.119C651.551 142.588 652.236 142.322 653.104 142.322C653.713 142.322 654.244 142.471 654.697 142.768C655.15 143.064 655.5 143.496 655.746 144.062C655.992 144.625 656.115 145.301 656.115 146.09ZM653.127 143.465C652.65 143.465 652.285 143.621 652.031 143.934C651.777 144.242 651.65 144.678 651.65 145.24C651.65 145.729 651.768 146.113 652.002 146.395C652.24 146.672 652.6 146.811 653.08 146.811C653.545 146.811 653.936 146.672 654.252 146.395C654.568 146.117 654.727 145.793 654.727 145.422C654.727 145.074 654.658 144.75 654.521 144.449C654.389 144.145 654.201 143.904 653.959 143.729C653.717 143.553 653.439 143.465 653.127 143.465ZM657.199 147.35C657.199 143.998 658.564 142.322 661.295 142.322C661.725 142.322 662.088 142.355 662.385 142.422V143.57C662.088 143.484 661.744 143.441 661.354 143.441C660.436 143.441 659.746 143.688 659.285 144.18C658.824 144.672 658.574 145.461 658.535 146.547H658.605C658.789 146.23 659.047 145.986 659.379 145.814C659.711 145.639 660.102 145.551 660.551 145.551C661.328 145.551 661.934 145.789 662.367 146.266C662.801 146.742 663.018 147.389 663.018 148.205C663.018 149.104 662.766 149.814 662.262 150.338C661.762 150.857 661.078 151.117 660.211 151.117C659.598 151.117 659.064 150.971 658.611 150.678C658.158 150.381 657.809 149.951 657.562 149.389C657.32 148.822 657.199 148.143 657.199 147.35ZM660.188 149.98C660.66 149.98 661.023 149.828 661.277 149.523C661.535 149.219 661.664 148.783 661.664 148.217C661.664 147.725 661.543 147.338 661.301 147.057C661.062 146.775 660.703 146.635 660.223 146.635C659.926 146.635 659.652 146.699 659.402 146.828C659.152 146.953 658.955 147.127 658.811 147.35C658.666 147.568 658.594 147.793 658.594 148.023C658.594 148.574 658.742 149.039 659.039 149.418C659.34 149.793 659.723 149.98 660.188 149.98ZM669.949 151L669.094 148.621H665.818L664.98 151H663.504L666.709 142.398H668.232L671.438 151H669.949ZM668.725 147.414L667.922 145.082C667.863 144.926 667.781 144.68 667.676 144.344C667.574 144.008 667.504 143.762 667.465 143.605C667.359 144.086 667.205 144.611 667.002 145.182L666.229 147.414H668.725Z" fill="black"/>
<path d="M630.551 229.35C630.551 225.998 631.916 224.322 634.646 224.322C635.076 224.322 635.439 224.355 635.736 224.422V225.57C635.439 225.484 635.096 225.441 634.705 225.441C633.787 225.441 633.098 225.688 632.637 226.18C632.176 226.672 631.926 227.461 631.887 228.547H631.957C632.141 228.23 632.398 227.986 632.73 227.814C633.062 227.639 633.453 227.551 633.902 227.551C634.68 227.551 635.285 227.789 635.719 228.266C636.152 228.742 636.369 229.389 636.369 230.205C636.369 231.104 636.117 231.814 635.613 232.338C635.113 232.857 634.43 233.117 633.562 233.117C632.949 233.117 632.416 232.971 631.963 232.678C631.51 232.381 631.16 231.951 630.914 231.389C630.672 230.822 630.551 230.143 630.551 229.35ZM633.539 231.98C634.012 231.98 634.375 231.828 634.629 231.523C634.887 231.219 635.016 230.783 635.016 230.217C635.016 229.725 634.895 229.338 634.652 229.057C634.414 228.775 634.055 228.635 633.574 228.635C633.277 228.635 633.004 228.699 632.754 228.828C632.504 228.953 632.307 229.127 632.162 229.35C632.018 229.568 631.945 229.793 631.945 230.023C631.945 230.574 632.094 231.039 632.391 231.418C632.691 231.793 633.074 231.98 633.539 231.98ZM643.178 228.09C643.178 229.777 642.838 231.037 642.158 231.869C641.479 232.701 640.455 233.117 639.088 233.117C638.568 233.117 638.195 233.086 637.969 233.023V231.869C638.316 231.967 638.666 232.016 639.018 232.016C639.947 232.016 640.641 231.766 641.098 231.266C641.555 230.766 641.805 229.98 641.848 228.91H641.777C641.547 229.262 641.268 229.516 640.939 229.672C640.615 229.828 640.234 229.906 639.797 229.906C639.039 229.906 638.443 229.67 638.01 229.197C637.576 228.725 637.359 228.076 637.359 227.252C637.359 226.357 637.609 225.646 638.109 225.119C638.613 224.588 639.299 224.322 640.166 224.322C640.775 224.322 641.307 224.471 641.76 224.768C642.213 225.064 642.562 225.496 642.809 226.062C643.055 226.625 643.178 227.301 643.178 228.09ZM640.189 225.465C639.713 225.465 639.348 225.621 639.094 225.934C638.84 226.242 638.713 226.678 638.713 227.24C638.713 227.729 638.83 228.113 639.064 228.395C639.303 228.672 639.662 228.811 640.143 228.811C640.607 228.811 640.998 228.672 641.314 228.395C641.631 228.117 641.789 227.793 641.789 227.422C641.789 227.074 641.721 226.75 641.584 226.449C641.451 226.145 641.264 225.904 641.021 225.729C640.779 225.553 640.502 225.465 640.189 225.465ZM650.033 228.09C650.033 229.777 649.693 231.037 649.014 231.869C648.334 232.701 647.311 233.117 645.943 233.117C645.424 233.117 645.051 233.086 644.824 233.023V231.869C645.172 231.967 645.521 232.016 645.873 232.016C646.803 232.016 647.496 231.766 647.953 231.266C648.41 230.766 648.66 229.98 648.703 228.91H648.633C648.402 229.262 648.123 229.516 647.795 229.672C647.471 229.828 647.09 229.906 646.652 229.906C645.895 229.906 645.299 229.67 644.865 229.197C644.432 228.725 644.215 228.076 644.215 227.252C644.215 226.357 644.465 225.646 644.965 225.119C645.469 224.588 646.154 224.322 647.021 224.322C647.631 224.322 648.162 224.471 648.615 224.768C649.068 225.064 649.418 225.496 649.664 226.062C649.91 226.625 650.033 227.301 650.033 228.09ZM647.045 225.465C646.568 225.465 646.203 225.621 645.949 225.934C645.695 226.242 645.568 226.678 645.568 227.24C645.568 227.729 645.686 228.113 645.92 228.395C646.158 228.672 646.518 228.811 646.998 228.811C647.463 228.811 647.854 228.672 648.17 228.395C648.486 228.117 648.645 227.793 648.645 227.422C648.645 227.074 648.576 226.75 648.439 226.449C648.307 226.145 648.119 225.904 647.877 225.729C647.635 225.553 647.357 225.465 647.045 225.465ZM653.988 224.322C654.801 224.322 655.443 224.51 655.916 224.885C656.389 225.256 656.625 225.754 656.625 226.379C656.625 227.258 656.098 227.957 655.043 228.477C655.715 228.812 656.191 229.166 656.473 229.537C656.758 229.908 656.9 230.322 656.9 230.779C656.9 231.486 656.641 232.053 656.121 232.479C655.602 232.904 654.898 233.117 654.012 233.117C653.082 233.117 652.361 232.918 651.85 232.52C651.338 232.121 651.082 231.557 651.082 230.826C651.082 230.35 651.215 229.922 651.48 229.543C651.75 229.16 652.189 228.82 652.799 228.523C652.275 228.211 651.902 227.881 651.68 227.533C651.457 227.186 651.346 226.795 651.346 226.361C651.346 225.74 651.59 225.246 652.078 224.879C652.566 224.508 653.203 224.322 653.988 224.322ZM652.4 230.779C652.4 231.186 652.543 231.502 652.828 231.729C653.113 231.951 653.5 232.062 653.988 232.062C654.492 232.062 654.883 231.947 655.16 231.717C655.441 231.482 655.582 231.166 655.582 230.768C655.582 230.451 655.453 230.162 655.195 229.9C654.938 229.639 654.547 229.396 654.023 229.174L653.854 229.098C653.338 229.324 652.967 229.574 652.74 229.848C652.514 230.117 652.4 230.428 652.4 230.779ZM653.977 225.383C653.586 225.383 653.271 225.48 653.033 225.676C652.795 225.867 652.676 226.129 652.676 226.461C652.676 226.664 652.719 226.846 652.805 227.006C652.891 227.166 653.016 227.312 653.18 227.445C653.344 227.574 653.621 227.73 654.012 227.914C654.48 227.707 654.811 227.49 655.002 227.264C655.197 227.033 655.295 226.766 655.295 226.461C655.295 226.129 655.174 225.867 654.932 225.676C654.693 225.48 654.375 225.383 653.977 225.383ZM665.52 228.635C665.52 230.049 665.127 231.131 664.342 231.881C663.557 232.627 662.426 233 660.949 233H658.553V224.434H661.201C662.564 224.434 663.625 224.801 664.383 225.535C665.141 226.27 665.52 227.303 665.52 228.635ZM664.043 228.682C664.043 226.631 663.084 225.605 661.166 225.605H659.953V231.822H660.949C663.012 231.822 664.043 230.775 664.043 228.682ZM672.568 228.717C672.568 230.205 672.328 231.311 671.848 232.033C671.371 232.756 670.641 233.117 669.656 233.117C668.703 233.117 667.98 232.744 667.488 231.998C666.996 231.252 666.75 230.158 666.75 228.717C666.75 227.205 666.988 226.092 667.465 225.377C667.945 224.658 668.676 224.299 669.656 224.299C670.613 224.299 671.338 224.674 671.83 225.424C672.322 226.174 672.568 227.271 672.568 228.717ZM668.145 228.717C668.145 229.885 668.264 230.719 668.502 231.219C668.744 231.719 669.129 231.969 669.656 231.969C670.184 231.969 670.568 231.715 670.811 231.207C671.057 230.699 671.18 229.869 671.18 228.717C671.18 227.568 671.057 226.738 670.811 226.227C670.568 225.711 670.184 225.453 669.656 225.453C669.129 225.453 668.744 225.705 668.502 226.209C668.264 226.713 668.145 227.549 668.145 228.717Z" fill="black"/>
<path d="M635.977 315H631.131V306.434H635.977V307.617H632.531V309.949H635.76V311.121H632.531V313.811H635.977V315ZM643.037 310.717C643.037 312.205 642.797 313.311 642.316 314.033C641.84 314.756 641.109 315.117 640.125 315.117C639.172 315.117 638.449 314.744 637.957 313.998C637.465 313.252 637.219 312.158 637.219 310.717C637.219 309.205 637.457 308.092 637.934 307.377C638.414 306.658 639.145 306.299 640.125 306.299C641.082 306.299 641.807 306.674 642.299 307.424C642.791 308.174 643.037 309.271 643.037 310.717ZM638.613 310.717C638.613 311.885 638.732 312.719 638.971 313.219C639.213 313.719 639.598 313.969 640.125 313.969C640.652 313.969 641.037 313.715 641.279 313.207C641.525 312.699 641.648 311.869 641.648 310.717C641.648 309.568 641.525 308.738 641.279 308.227C641.037 307.711 640.652 307.453 640.125 307.453C639.598 307.453 639.213 307.705 638.971 308.209C638.732 308.713 638.613 309.549 638.613 310.717ZM649.535 315H644.689V306.434H649.535V307.617H646.09V309.949H649.318V311.121H646.09V313.811H649.535V315ZM656.596 310.717C656.596 312.205 656.355 313.311 655.875 314.033C655.398 314.756 654.668 315.117 653.684 315.117C652.73 315.117 652.008 314.744 651.516 313.998C651.023 313.252 650.777 312.158 650.777 310.717C650.777 309.205 651.016 308.092 651.492 307.377C651.973 306.658 652.703 306.299 653.684 306.299C654.641 306.299 655.365 306.674 655.857 307.424C656.35 308.174 656.596 309.271 656.596 310.717ZM652.172 310.717C652.172 311.885 652.291 312.719 652.529 313.219C652.771 313.719 653.156 313.969 653.684 313.969C654.211 313.969 654.596 313.715 654.838 313.207C655.084 312.699 655.207 311.869 655.207 310.717C655.207 309.568 655.084 308.738 654.838 308.227C654.596 307.711 654.211 307.453 653.684 307.453C653.156 307.453 652.771 307.705 652.529 308.209C652.291 308.713 652.172 309.549 652.172 310.717ZM663.094 315H658.248V306.434H663.094V307.617H659.648V309.949H662.877V311.121H659.648V313.811H663.094V315ZM670.154 310.717C670.154 312.205 669.914 313.311 669.434 314.033C668.957 314.756 668.227 315.117 667.242 315.117C666.289 315.117 665.566 314.744 665.074 313.998C664.582 313.252 664.336 312.158 664.336 310.717C664.336 309.205 664.574 308.092 665.051 307.377C665.531 306.658 666.262 306.299 667.242 306.299C668.199 306.299 668.924 306.674 669.416 307.424C669.908 308.174 670.154 309.271 670.154 310.717ZM665.73 310.717C665.73 311.885 665.85 312.719 666.088 313.219C666.33 313.719 666.715 313.969 667.242 313.969C667.77 313.969 668.154 313.715 668.396 313.207C668.643 312.699 668.766 311.869 668.766 310.717C668.766 309.568 668.643 308.738 668.396 308.227C668.154 307.711 667.77 307.453 667.242 307.453C666.715 307.453 666.33 307.705 666.088 308.209C665.85 308.713 665.73 309.549 665.73 310.717Z" fill="black"/>
<path d="M701.322 310.09C701.322 311.777 700.982 313.037 700.303 313.869C699.623 314.701 698.6 315.117 697.232 315.117C696.713 315.117 696.34 315.086 696.113 315.023V313.869C696.461 313.967 696.811 314.016 697.162 314.016C698.092 314.016 698.785 313.766 699.242 313.266C699.699 312.766 699.949 311.98 699.992 310.91H699.922C699.691 311.262 699.412 311.516 699.084 311.672C698.76 311.828 698.379 311.906 697.941 311.906C697.184 311.906 696.588 311.67 696.154 311.197C695.721 310.725 695.504 310.076 695.504 309.252C695.504 308.357 695.754 307.646 696.254 307.119C696.758 306.588 697.443 306.322 698.311 306.322C698.92 306.322 699.451 306.471 699.904 306.768C700.357 307.064 700.707 307.496 700.953 308.062C701.199 308.625 701.322 309.301 701.322 310.09ZM698.334 307.465C697.857 307.465 697.492 307.621 697.238 307.934C696.984 308.242 696.857 308.678 696.857 309.24C696.857 309.729 696.975 310.113 697.209 310.395C697.447 310.672 697.807 310.811 698.287 310.811C698.752 310.811 699.143 310.672 699.459 310.395C699.775 310.117 699.934 309.793 699.934 309.422C699.934 309.074 699.865 308.75 699.729 308.449C699.596 308.145 699.408 307.904 699.166 307.729C698.924 307.553 698.646 307.465 698.334 307.465ZM708.178 310.09C708.178 311.777 707.838 313.037 707.158 313.869C706.479 314.701 705.455 315.117 704.088 315.117C703.568 315.117 703.195 315.086 702.969 315.023V313.869C703.316 313.967 703.666 314.016 704.018 314.016C704.947 314.016 705.641 313.766 706.098 313.266C706.555 312.766 706.805 311.98 706.848 310.91H706.777C706.547 311.262 706.268 311.516 705.939 311.672C705.615 311.828 705.234 311.906 704.797 311.906C704.039 311.906 703.443 311.67 703.01 311.197C702.576 310.725 702.359 310.076 702.359 309.252C702.359 308.357 702.609 307.646 703.109 307.119C703.613 306.588 704.299 306.322 705.166 306.322C705.775 306.322 706.307 306.471 706.76 306.768C707.213 307.064 707.562 307.496 707.809 308.062C708.055 308.625 708.178 309.301 708.178 310.09ZM705.189 307.465C704.713 307.465 704.348 307.621 704.094 307.934C703.84 308.242 703.713 308.678 703.713 309.24C703.713 309.729 703.83 310.113 704.064 310.395C704.303 310.672 704.662 310.811 705.143 310.811C705.607 310.811 705.998 310.672 706.314 310.395C706.631 310.117 706.789 309.793 706.789 309.422C706.789 309.074 706.721 308.75 706.584 308.449C706.451 308.145 706.264 307.904 706.021 307.729C705.779 307.553 705.502 307.465 705.189 307.465ZM715.033 310.09C715.033 311.777 714.693 313.037 714.014 313.869C713.334 314.701 712.311 315.117 710.943 315.117C710.424 315.117 710.051 315.086 709.824 315.023V313.869C710.172 313.967 710.521 314.016 710.873 314.016C711.803 314.016 712.496 313.766 712.953 313.266C713.41 312.766 713.66 311.98 713.703 310.91H713.633C713.402 311.262 713.123 311.516 712.795 311.672C712.471 311.828 712.09 311.906 711.652 311.906C710.895 311.906 710.299 311.67 709.865 311.197C709.432 310.725 709.215 310.076 709.215 309.252C709.215 308.357 709.465 307.646 709.965 307.119C710.469 306.588 711.154 306.322 712.021 306.322C712.631 306.322 713.162 306.471 713.615 306.768C714.068 307.064 714.418 307.496 714.664 308.062C714.91 308.625 715.033 309.301 715.033 310.09ZM712.045 307.465C711.568 307.465 711.203 307.621 710.949 307.934C710.695 308.242 710.568 308.678 710.568 309.24C710.568 309.729 710.686 310.113 710.92 310.395C711.158 310.672 711.518 310.811 711.998 310.811C712.463 310.811 712.854 310.672 713.17 310.395C713.486 310.117 713.645 309.793 713.645 309.422C713.645 309.074 713.576 308.75 713.439 308.449C713.307 308.145 713.119 307.904 712.877 307.729C712.635 307.553 712.357 307.465 712.045 307.465ZM721.889 310.09C721.889 311.777 721.549 313.037 720.869 313.869C720.189 314.701 719.166 315.117 717.799 315.117C717.279 315.117 716.906 315.086 716.68 315.023V313.869C717.027 313.967 717.377 314.016 717.729 314.016C718.658 314.016 719.352 313.766 719.809 313.266C720.266 312.766 720.516 311.98 720.559 310.91H720.488C720.258 311.262 719.979 311.516 719.65 311.672C719.326 311.828 718.945 311.906 718.508 311.906C717.75 311.906 717.154 311.67 716.721 311.197C716.287 310.725 716.07 310.076 716.07 309.252C716.07 308.357 716.32 307.646 716.82 307.119C717.324 306.588 718.01 306.322 718.877 306.322C719.486 306.322 720.018 306.471 720.471 306.768C720.924 307.064 721.273 307.496 721.52 308.062C721.766 308.625 721.889 309.301 721.889 310.09ZM718.9 307.465C718.424 307.465 718.059 307.621 717.805 307.934C717.551 308.242 717.424 308.678 717.424 309.24C717.424 309.729 717.541 310.113 717.775 310.395C718.014 310.672 718.373 310.811 718.854 310.811C719.318 310.811 719.709 310.672 720.025 310.395C720.342 310.117 720.5 309.793 720.5 309.422C720.5 309.074 720.432 308.75 720.295 308.449C720.162 308.145 719.975 307.904 719.732 307.729C719.49 307.553 719.213 307.465 718.9 307.465ZM728.744 310.09C728.744 311.777 728.404 313.037 727.725 313.869C727.045 314.701 726.021 315.117 724.654 315.117C724.135 315.117 723.762 315.086 723.535 315.023V313.869C723.883 313.967 724.232 314.016 724.584 314.016C725.514 314.016 726.207 313.766 726.664 313.266C727.121 312.766 727.371 311.98 727.414 310.91H727.344C727.113 311.262 726.834 311.516 726.506 311.672C726.182 311.828 725.801 311.906 725.363 311.906C724.605 311.906 724.01 311.67 723.576 311.197C723.143 310.725 722.926 310.076 722.926 309.252C722.926 308.357 723.176 307.646 723.676 307.119C724.18 306.588 724.865 306.322 725.732 306.322C726.342 306.322 726.873 306.471 727.326 306.768C727.779 307.064 728.129 307.496 728.375 308.062C728.621 308.625 728.744 309.301 728.744 310.09ZM725.756 307.465C725.279 307.465 724.914 307.621 724.66 307.934C724.406 308.242 724.279 308.678 724.279 309.24C724.279 309.729 724.396 310.113 724.631 310.395C724.869 310.672 725.229 310.811 725.709 310.811C726.174 310.811 726.564 310.672 726.881 310.395C727.197 310.117 727.355 309.793 727.355 309.422C727.355 309.074 727.287 308.75 727.15 308.449C727.018 308.145 726.83 307.904 726.588 307.729C726.346 307.553 726.068 307.465 725.756 307.465ZM735.6 310.09C735.6 311.777 735.26 313.037 734.58 313.869C733.9 314.701 732.877 315.117 731.51 315.117C730.99 315.117 730.617 315.086 730.391 315.023V313.869C730.738 313.967 731.088 314.016 731.439 314.016C732.369 314.016 733.062 313.766 733.52 313.266C733.977 312.766 734.227 311.98 734.27 310.91H734.199C733.969 311.262 733.689 311.516 733.361 311.672C733.037 311.828 732.656 311.906 732.219 311.906C731.461 311.906 730.865 311.67 730.432 311.197C729.998 310.725 729.781 310.076 729.781 309.252C729.781 308.357 730.031 307.646 730.531 307.119C731.035 306.588 731.721 306.322 732.588 306.322C733.197 306.322 733.729 306.471 734.182 306.768C734.635 307.064 734.984 307.496 735.23 308.062C735.477 308.625 735.6 309.301 735.6 310.09ZM732.611 307.465C732.135 307.465 731.77 307.621 731.516 307.934C731.262 308.242 731.135 308.678 731.135 309.24C731.135 309.729 731.252 310.113 731.486 310.395C731.725 310.672 732.084 310.811 732.564 310.811C733.029 310.811 733.42 310.672 733.736 310.395C734.053 310.117 734.211 309.793 734.211 309.422C734.211 309.074 734.143 308.75 734.006 308.449C733.873 308.145 733.686 307.904 733.443 307.729C733.201 307.553 732.924 307.465 732.611 307.465Z" fill="black"/>
<path d="M701.012 226.402C701.012 226.945 700.854 227.398 700.537 227.762C700.221 228.121 699.775 228.363 699.201 228.488V228.535C699.889 228.621 700.404 228.836 700.748 229.18C701.092 229.52 701.264 229.973 701.264 230.539C701.264 231.363 700.973 232 700.391 232.449C699.809 232.895 698.98 233.117 697.906 233.117C696.957 233.117 696.156 232.963 695.504 232.654V231.43C695.867 231.609 696.252 231.748 696.658 231.846C697.064 231.943 697.455 231.992 697.83 231.992C698.494 231.992 698.99 231.869 699.318 231.623C699.646 231.377 699.811 230.996 699.811 230.48C699.811 230.023 699.629 229.688 699.266 229.473C698.902 229.258 698.332 229.15 697.555 229.15H696.811V228.031H697.566C698.934 228.031 699.617 227.559 699.617 226.613C699.617 226.246 699.498 225.963 699.26 225.764C699.021 225.564 698.67 225.465 698.205 225.465C697.881 225.465 697.568 225.512 697.268 225.605C696.967 225.695 696.611 225.873 696.201 226.139L695.527 225.178C696.312 224.6 697.225 224.311 698.264 224.311C699.127 224.311 699.801 224.496 700.285 224.867C700.77 225.238 701.012 225.75 701.012 226.402ZM708.494 231.131H707.34V233H705.998V231.131H702.084V230.07L705.998 224.41H707.34V229.988H708.494V231.131ZM705.998 229.988V227.838C705.998 227.072 706.018 226.445 706.057 225.957H706.01C705.9 226.215 705.729 226.527 705.494 226.895L703.367 229.988H705.998ZM709.262 229.35C709.262 225.998 710.627 224.322 713.357 224.322C713.787 224.322 714.15 224.355 714.447 224.422V225.57C714.15 225.484 713.807 225.441 713.416 225.441C712.498 225.441 711.809 225.688 711.348 226.18C710.887 226.672 710.637 227.461 710.598 228.547H710.668C710.852 228.23 711.109 227.986 711.441 227.814C711.773 227.639 712.164 227.551 712.613 227.551C713.391 227.551 713.996 227.789 714.43 228.266C714.863 228.742 715.08 229.389 715.08 230.205C715.08 231.104 714.828 231.814 714.324 232.338C713.824 232.857 713.141 233.117 712.273 233.117C711.66 233.117 711.127 232.971 710.674 232.678C710.221 232.381 709.871 231.951 709.625 231.389C709.383 230.822 709.262 230.143 709.262 229.35ZM712.25 231.98C712.723 231.98 713.086 231.828 713.34 231.523C713.598 231.219 713.727 230.783 713.727 230.217C713.727 229.725 713.605 229.338 713.363 229.057C713.125 228.775 712.766 228.635 712.285 228.635C711.988 228.635 711.715 228.699 711.465 228.828C711.215 228.953 711.018 229.127 710.873 229.35C710.729 229.568 710.656 229.793 710.656 230.023C710.656 230.574 710.805 231.039 711.102 231.418C711.402 231.793 711.785 231.98 712.25 231.98ZM721.578 226.402C721.578 226.945 721.42 227.398 721.104 227.762C720.787 228.121 720.342 228.363 719.768 228.488V228.535C720.455 228.621 720.971 228.836 721.314 229.18C721.658 229.52 721.83 229.973 721.83 230.539C721.83 231.363 721.539 232 720.957 232.449C720.375 232.895 719.547 233.117 718.473 233.117C717.523 233.117 716.723 232.963 716.07 232.654V231.43C716.434 231.609 716.818 231.748 717.225 231.846C717.631 231.943 718.021 231.992 718.396 231.992C719.061 231.992 719.557 231.869 719.885 231.623C720.213 231.377 720.377 230.996 720.377 230.48C720.377 230.023 720.195 229.688 719.832 229.473C719.469 229.258 718.898 229.15 718.121 229.15H717.377V228.031H718.133C719.5 228.031 720.184 227.559 720.184 226.613C720.184 226.246 720.064 225.963 719.826 225.764C719.588 225.564 719.236 225.465 718.771 225.465C718.447 225.465 718.135 225.512 717.834 225.605C717.533 225.695 717.178 225.873 716.768 226.139L716.094 225.178C716.879 224.6 717.791 224.311 718.83 224.311C719.693 224.311 720.367 224.496 720.852 224.867C721.336 225.238 721.578 225.75 721.578 226.402ZM728.744 228.09C728.744 229.777 728.404 231.037 727.725 231.869C727.045 232.701 726.021 233.117 724.654 233.117C724.135 233.117 723.762 233.086 723.535 233.023V231.869C723.883 231.967 724.232 232.016 724.584 232.016C725.514 232.016 726.207 231.766 726.664 231.266C727.121 230.766 727.371 229.98 727.414 228.91H727.344C727.113 229.262 726.834 229.516 726.506 229.672C726.182 229.828 725.801 229.906 725.363 229.906C724.605 229.906 724.01 229.67 723.576 229.197C723.143 228.725 722.926 228.076 722.926 227.252C722.926 226.357 723.176 225.646 723.676 225.119C724.18 224.588 724.865 224.322 725.732 224.322C726.342 224.322 726.873 224.471 727.326 224.768C727.779 225.064 728.129 225.496 728.375 226.062C728.621 226.625 728.744 227.301 728.744 228.09ZM725.756 225.465C725.279 225.465 724.914 225.621 724.66 225.934C724.406 226.242 724.279 226.678 724.279 227.24C724.279 227.729 724.396 228.113 724.631 228.395C724.869 228.672 725.229 228.811 725.709 228.811C726.174 228.811 726.564 228.672 726.881 228.395C727.197 228.117 727.355 227.793 727.355 227.422C727.355 227.074 727.287 226.75 727.15 226.449C727.018 226.145 726.83 225.904 726.588 225.729C726.346 225.553 726.068 225.465 725.756 225.465ZM735.6 228.09C735.6 229.777 735.26 231.037 734.58 231.869C733.9 232.701 732.877 233.117 731.51 233.117C730.99 233.117 730.617 233.086 730.391 233.023V231.869C730.738 231.967 731.088 232.016 731.439 232.016C732.369 232.016 733.062 231.766 733.52 231.266C733.977 230.766 734.227 229.98 734.27 228.91H734.199C733.969 229.262 733.689 229.516 733.361 229.672C733.037 229.828 732.656 229.906 732.219 229.906C731.461 229.906 730.865 229.67 730.432 229.197C729.998 228.725 729.781 228.076 729.781 227.252C729.781 226.357 730.031 225.646 730.531 225.119C731.035 224.588 731.721 224.322 732.588 224.322C733.197 224.322 733.729 224.471 734.182 224.768C734.635 225.064 734.984 225.496 735.23 226.062C735.477 226.625 735.6 227.301 735.6 228.09ZM732.611 225.465C732.135 225.465 731.77 225.621 731.516 225.934C731.262 226.242 731.135 226.678 731.135 227.24C731.135 227.729 731.252 228.113 731.486 228.395C731.725 228.672 732.084 228.811 732.564 228.811C733.029 228.811 733.42 228.672 733.736 228.395C734.053 228.117 734.211 227.793 734.211 227.422C734.211 227.074 734.143 226.75 734.006 226.449C733.873 226.145 733.686 225.904 733.443 225.729C733.201 225.553 732.924 225.465 732.611 225.465Z" fill="black"/>
<path d="M700.977 151H696.131V142.434H700.977V143.617H697.531V145.949H700.76V147.121H697.531V149.811H700.977V151ZM702.254 147.35C702.254 143.998 703.619 142.322 706.35 142.322C706.779 142.322 707.143 142.355 707.439 142.422V143.57C707.143 143.484 706.799 143.441 706.408 143.441C705.49 143.441 704.801 143.688 704.34 144.18C703.879 144.672 703.629 145.461 703.59 146.547H703.66C703.844 146.23 704.102 145.986 704.434 145.814C704.766 145.639 705.156 145.551 705.605 145.551C706.383 145.551 706.988 145.789 707.422 146.266C707.855 146.742 708.072 147.389 708.072 148.205C708.072 149.104 707.82 149.814 707.316 150.338C706.816 150.857 706.133 151.117 705.266 151.117C704.652 151.117 704.119 150.971 703.666 150.678C703.213 150.381 702.863 149.951 702.617 149.389C702.375 148.822 702.254 148.143 702.254 147.35ZM705.242 149.98C705.715 149.98 706.078 149.828 706.332 149.523C706.59 149.219 706.719 148.783 706.719 148.217C706.719 147.725 706.598 147.338 706.355 147.057C706.117 146.775 705.758 146.635 705.277 146.635C704.98 146.635 704.707 146.699 704.457 146.828C704.207 146.953 704.01 147.127 703.865 147.35C703.721 147.568 703.648 147.793 703.648 148.023C703.648 148.574 703.797 149.039 704.094 149.418C704.395 149.793 704.777 149.98 705.242 149.98ZM709.689 142.434H712.232C713.412 142.434 714.264 142.605 714.787 142.949C715.314 143.293 715.578 143.836 715.578 144.578C715.578 145.078 715.449 145.494 715.191 145.826C714.934 146.158 714.562 146.367 714.078 146.453V146.512C714.68 146.625 715.121 146.85 715.402 147.186C715.688 147.518 715.83 147.969 715.83 148.539C715.83 149.309 715.561 149.912 715.021 150.35C714.486 150.783 713.74 151 712.783 151H709.689V142.434ZM711.09 145.973H712.438C713.023 145.973 713.451 145.881 713.721 145.697C713.99 145.51 714.125 145.193 714.125 144.748C714.125 144.346 713.979 144.055 713.686 143.875C713.396 143.695 712.936 143.605 712.303 143.605H711.09V145.973ZM711.09 147.109V149.822H712.578C713.164 149.822 713.605 149.711 713.902 149.488C714.203 149.262 714.354 148.906 714.354 148.422C714.354 147.977 714.201 147.646 713.896 147.432C713.592 147.217 713.129 147.109 712.508 147.109H711.09ZM717.611 142.434H720.154C721.334 142.434 722.186 142.605 722.709 142.949C723.236 143.293 723.5 143.836 723.5 144.578C723.5 145.078 723.371 145.494 723.113 145.826C722.855 146.158 722.484 146.367 722 146.453V146.512C722.602 146.625 723.043 146.85 723.324 147.186C723.609 147.518 723.752 147.969 723.752 148.539C723.752 149.309 723.482 149.912 722.943 150.35C722.408 150.783 721.662 151 720.705 151H717.611V142.434ZM719.012 145.973H720.359C720.945 145.973 721.373 145.881 721.643 145.697C721.912 145.51 722.047 145.193 722.047 144.748C722.047 144.346 721.9 144.055 721.607 143.875C721.318 143.695 720.857 143.605 720.225 143.605H719.012V145.973ZM719.012 147.109V149.822H720.5C721.086 149.822 721.527 149.711 721.824 149.488C722.125 149.262 722.275 148.906 722.275 148.422C722.275 147.977 722.123 147.646 721.818 147.432C721.514 147.217 721.051 147.109 720.43 147.109H719.012ZM730.736 151H724.93V149.957L727.139 147.736C727.791 147.068 728.223 146.596 728.434 146.318C728.648 146.037 728.805 145.773 728.902 145.527C729 145.281 729.049 145.018 729.049 144.736C729.049 144.35 728.932 144.045 728.697 143.822C728.467 143.6 728.146 143.488 727.736 143.488C727.408 143.488 727.09 143.549 726.781 143.67C726.477 143.791 726.123 144.01 725.721 144.326L724.977 143.418C725.453 143.016 725.916 142.73 726.365 142.562C726.814 142.395 727.293 142.311 727.801 142.311C728.598 142.311 729.236 142.52 729.717 142.938C730.197 143.352 730.438 143.91 730.438 144.613C730.438 145 730.367 145.367 730.227 145.715C730.09 146.062 729.877 146.422 729.588 146.793C729.303 147.16 728.826 147.658 728.158 148.287L726.67 149.729V149.787H730.736V151ZM737.234 151H732.389V142.434H737.234V143.617H733.789V145.949H737.018V147.121H733.789V149.811H737.234V151Z" fill="black"/>
<path d="M548.334 228.717C548.334 230.205 548.094 231.311 547.613 232.033C547.137 232.756 546.406 233.117 545.422 233.117C544.469 233.117 543.746 232.744 543.254 231.998C542.762 231.252 542.516 230.158 542.516 228.717C542.516 227.205 542.754 226.092 543.23 225.377C543.711 224.658 544.441 224.299 545.422 224.299C546.379 224.299 547.104 224.674 547.596 225.424C548.088 226.174 548.334 227.271 548.334 228.717ZM543.91 228.717C543.91 229.885 544.029 230.719 544.268 231.219C544.51 231.719 544.895 231.969 545.422 231.969C545.949 231.969 546.334 231.715 546.576 231.207C546.822 230.699 546.945 229.869 546.945 228.717C546.945 227.568 546.822 226.738 546.576 226.227C546.334 225.711 545.949 225.453 545.422 225.453C544.895 225.453 544.51 225.705 544.268 226.209C544.029 226.713 543.91 227.549 543.91 228.717ZM554.832 233H549.986V224.434H554.832V225.617H551.387V227.949H554.615V229.121H551.387V231.811H554.832V233ZM561.881 228.09C561.881 229.777 561.541 231.037 560.861 231.869C560.182 232.701 559.158 233.117 557.791 233.117C557.271 233.117 556.898 233.086 556.672 233.023V231.869C557.02 231.967 557.369 232.016 557.721 232.016C558.65 232.016 559.344 231.766 559.801 231.266C560.258 230.766 560.508 229.98 560.551 228.91H560.48C560.25 229.262 559.971 229.516 559.643 229.672C559.318 229.828 558.938 229.906 558.5 229.906C557.742 229.906 557.146 229.67 556.713 229.197C556.279 228.725 556.062 228.076 556.062 227.252C556.062 226.357 556.312 225.646 556.812 225.119C557.316 224.588 558.002 224.322 558.869 224.322C559.479 224.322 560.01 224.471 560.463 224.768C560.916 225.064 561.266 225.496 561.512 226.062C561.758 226.625 561.881 227.301 561.881 228.09ZM558.893 225.465C558.416 225.465 558.051 225.621 557.797 225.934C557.543 226.242 557.416 226.678 557.416 227.24C557.416 227.729 557.533 228.113 557.768 228.395C558.006 228.672 558.365 228.811 558.846 228.811C559.311 228.811 559.701 228.672 560.018 228.395C560.334 228.117 560.492 227.793 560.492 227.422C560.492 227.074 560.424 226.75 560.287 226.449C560.154 226.145 559.967 225.904 559.725 225.729C559.482 225.553 559.205 225.465 558.893 225.465ZM568.736 228.09C568.736 229.777 568.396 231.037 567.717 231.869C567.037 232.701 566.014 233.117 564.646 233.117C564.127 233.117 563.754 233.086 563.527 233.023V231.869C563.875 231.967 564.225 232.016 564.576 232.016C565.506 232.016 566.199 231.766 566.656 231.266C567.113 230.766 567.363 229.98 567.406 228.91H567.336C567.105 229.262 566.826 229.516 566.498 229.672C566.174 229.828 565.793 229.906 565.355 229.906C564.598 229.906 564.002 229.67 563.568 229.197C563.135 228.725 562.918 228.076 562.918 227.252C562.918 226.357 563.168 225.646 563.668 225.119C564.172 224.588 564.857 224.322 565.725 224.322C566.334 224.322 566.865 224.471 567.318 224.768C567.771 225.064 568.121 225.496 568.367 226.062C568.613 226.625 568.736 227.301 568.736 228.09ZM565.748 225.465C565.271 225.465 564.906 225.621 564.652 225.934C564.398 226.242 564.271 226.678 564.271 227.24C564.271 227.729 564.389 228.113 564.623 228.395C564.861 228.672 565.221 228.811 565.701 228.811C566.166 228.811 566.557 228.672 566.873 228.395C567.189 228.117 567.348 227.793 567.348 227.422C567.348 227.074 567.279 226.75 567.143 226.449C567.01 226.145 566.822 225.904 566.58 225.729C566.338 225.553 566.061 225.465 565.748 225.465ZM575.592 228.09C575.592 229.777 575.252 231.037 574.572 231.869C573.893 232.701 572.869 233.117 571.502 233.117C570.982 233.117 570.609 233.086 570.383 233.023V231.869C570.73 231.967 571.08 232.016 571.432 232.016C572.361 232.016 573.055 231.766 573.512 231.266C573.969 230.766 574.219 229.98 574.262 228.91H574.191C573.961 229.262 573.682 229.516 573.354 229.672C573.029 229.828 572.648 229.906 572.211 229.906C571.453 229.906 570.857 229.67 570.424 229.197C569.99 228.725 569.773 228.076 569.773 227.252C569.773 226.357 570.023 225.646 570.523 225.119C571.027 224.588 571.713 224.322 572.58 224.322C573.189 224.322 573.721 224.471 574.174 224.768C574.627 225.064 574.977 225.496 575.223 226.062C575.469 226.625 575.592 227.301 575.592 228.09ZM572.604 225.465C572.127 225.465 571.762 225.621 571.508 225.934C571.254 226.242 571.127 226.678 571.127 227.24C571.127 227.729 571.244 228.113 571.479 228.395C571.717 228.672 572.076 228.811 572.557 228.811C573.021 228.811 573.412 228.672 573.729 228.395C574.045 228.117 574.203 227.793 574.203 227.422C574.203 227.074 574.135 226.75 573.998 226.449C573.865 226.145 573.678 225.904 573.436 225.729C573.193 225.553 572.916 225.465 572.604 225.465ZM582.764 231.131H581.609V233H580.268V231.131H576.354V230.07L580.268 224.41H581.609V229.988H582.764V231.131ZM580.268 229.988V227.838C580.268 227.072 580.287 226.445 580.326 225.957H580.279C580.17 226.215 579.998 226.527 579.764 226.895L577.637 229.988H580.268Z" fill="black"/>
<path d="M477.551 229.35C477.551 225.998 478.916 224.322 481.646 224.322C482.076 224.322 482.439 224.355 482.736 224.422V225.57C482.439 225.484 482.096 225.441 481.705 225.441C480.787 225.441 480.098 225.688 479.637 226.18C479.176 226.672 478.926 227.461 478.887 228.547H478.957C479.141 228.23 479.398 227.986 479.73 227.814C480.062 227.639 480.453 227.551 480.902 227.551C481.68 227.551 482.285 227.789 482.719 228.266C483.152 228.742 483.369 229.389 483.369 230.205C483.369 231.104 483.117 231.814 482.613 232.338C482.113 232.857 481.43 233.117 480.562 233.117C479.949 233.117 479.416 232.971 478.963 232.678C478.51 232.381 478.16 231.951 477.914 231.389C477.672 230.822 477.551 230.143 477.551 229.35ZM480.539 231.98C481.012 231.98 481.375 231.828 481.629 231.523C481.887 231.219 482.016 230.783 482.016 230.217C482.016 229.725 481.895 229.338 481.652 229.057C481.414 228.775 481.055 228.635 480.574 228.635C480.277 228.635 480.004 228.699 479.754 228.828C479.504 228.953 479.307 229.127 479.162 229.35C479.018 229.568 478.945 229.793 478.945 230.023C478.945 230.574 479.094 231.039 479.391 231.418C479.691 231.793 480.074 231.98 480.539 231.98ZM490.178 228.09C490.178 229.777 489.838 231.037 489.158 231.869C488.479 232.701 487.455 233.117 486.088 233.117C485.568 233.117 485.195 233.086 484.969 233.023V231.869C485.316 231.967 485.666 232.016 486.018 232.016C486.947 232.016 487.641 231.766 488.098 231.266C488.555 230.766 488.805 229.98 488.848 228.91H488.777C488.547 229.262 488.268 229.516 487.939 229.672C487.615 229.828 487.234 229.906 486.797 229.906C486.039 229.906 485.443 229.67 485.01 229.197C484.576 228.725 484.359 228.076 484.359 227.252C484.359 226.357 484.609 225.646 485.109 225.119C485.613 224.588 486.299 224.322 487.166 224.322C487.775 224.322 488.307 224.471 488.76 224.768C489.213 225.064 489.562 225.496 489.809 226.062C490.055 226.625 490.178 227.301 490.178 228.09ZM487.189 225.465C486.713 225.465 486.348 225.621 486.094 225.934C485.84 226.242 485.713 226.678 485.713 227.24C485.713 227.729 485.83 228.113 486.064 228.395C486.303 228.672 486.662 228.811 487.143 228.811C487.607 228.811 487.998 228.672 488.314 228.395C488.631 228.117 488.789 227.793 488.789 227.422C488.789 227.074 488.721 226.75 488.584 226.449C488.451 226.145 488.264 225.904 488.021 225.729C487.779 225.553 487.502 225.465 487.189 225.465ZM498.809 228.635C498.809 230.049 498.416 231.131 497.631 231.881C496.846 232.627 495.715 233 494.238 233H491.842V224.434H494.49C495.854 224.434 496.914 224.801 497.672 225.535C498.43 226.27 498.809 227.303 498.809 228.635ZM497.332 228.682C497.332 226.631 496.373 225.605 494.455 225.605H493.242V231.822H494.238C496.301 231.822 497.332 230.775 497.332 228.682ZM505.857 233H500.051V231.957L502.26 229.736C502.912 229.068 503.344 228.596 503.555 228.318C503.77 228.037 503.926 227.773 504.023 227.527C504.121 227.281 504.17 227.018 504.17 226.736C504.17 226.35 504.053 226.045 503.818 225.822C503.588 225.6 503.268 225.488 502.857 225.488C502.529 225.488 502.211 225.549 501.902 225.67C501.598 225.791 501.244 226.01 500.842 226.326L500.098 225.418C500.574 225.016 501.037 224.73 501.486 224.562C501.936 224.395 502.414 224.311 502.922 224.311C503.719 224.311 504.357 224.52 504.838 224.938C505.318 225.352 505.559 225.91 505.559 226.613C505.559 227 505.488 227.367 505.348 227.715C505.211 228.062 504.998 228.422 504.709 228.793C504.424 229.16 503.947 229.658 503.279 230.287L501.791 231.729V231.787H505.857V233ZM511.154 225.512C510.35 225.512 509.717 225.797 509.256 226.367C508.795 226.938 508.564 227.725 508.564 228.729C508.564 229.779 508.785 230.574 509.227 231.113C509.672 231.652 510.314 231.922 511.154 231.922C511.518 231.922 511.869 231.887 512.209 231.816C512.549 231.742 512.902 231.648 513.27 231.535V232.736C512.598 232.99 511.836 233.117 510.984 233.117C509.73 233.117 508.768 232.738 508.096 231.98C507.424 231.219 507.088 230.131 507.088 228.717C507.088 227.826 507.25 227.047 507.574 226.379C507.902 225.711 508.375 225.199 508.992 224.844C509.609 224.488 510.334 224.311 511.166 224.311C512.041 224.311 512.85 224.494 513.592 224.861L513.088 226.027C512.799 225.891 512.492 225.771 512.168 225.67C511.848 225.564 511.51 225.512 511.154 225.512ZM519.961 233H515.115V224.434H519.961V225.617H516.516V227.949H519.744V229.121H516.516V231.811H519.961V233Z" fill="black"/>
<path d="M478.5 315L481.887 307.658H477.434V306.445H483.357V307.406L479.988 315H478.5ZM484.406 311.35C484.406 307.998 485.771 306.322 488.502 306.322C488.932 306.322 489.295 306.355 489.592 306.422V307.57C489.295 307.484 488.951 307.441 488.561 307.441C487.643 307.441 486.953 307.688 486.492 308.18C486.031 308.672 485.781 309.461 485.742 310.547H485.812C485.996 310.23 486.254 309.986 486.586 309.814C486.918 309.639 487.309 309.551 487.758 309.551C488.535 309.551 489.141 309.789 489.574 310.266C490.008 310.742 490.225 311.389 490.225 312.205C490.225 313.104 489.973 313.814 489.469 314.338C488.969 314.857 488.285 315.117 487.418 315.117C486.805 315.117 486.271 314.971 485.818 314.678C485.365 314.381 485.016 313.951 484.77 313.389C484.527 312.822 484.406 312.143 484.406 311.35ZM487.395 313.98C487.867 313.98 488.23 313.828 488.484 313.523C488.742 313.219 488.871 312.783 488.871 312.217C488.871 311.725 488.75 311.338 488.508 311.057C488.27 310.775 487.91 310.635 487.43 310.635C487.133 310.635 486.859 310.699 486.609 310.828C486.359 310.953 486.162 311.127 486.018 311.35C485.873 311.568 485.801 311.793 485.801 312.023C485.801 312.574 485.949 313.039 486.246 313.418C486.547 313.793 486.93 313.98 487.395 313.98ZM492.211 315L495.598 307.658H491.145V306.445H497.068V307.406L493.699 315H492.211ZM498.117 311.35C498.117 307.998 499.482 306.322 502.213 306.322C502.643 306.322 503.006 306.355 503.303 306.422V307.57C503.006 307.484 502.662 307.441 502.271 307.441C501.354 307.441 500.664 307.688 500.203 308.18C499.742 308.672 499.492 309.461 499.453 310.547H499.523C499.707 310.23 499.965 309.986 500.297 309.814C500.629 309.639 501.02 309.551 501.469 309.551C502.246 309.551 502.852 309.789 503.285 310.266C503.719 310.742 503.936 311.389 503.936 312.205C503.936 313.104 503.684 313.814 503.18 314.338C502.68 314.857 501.996 315.117 501.129 315.117C500.516 315.117 499.982 314.971 499.529 314.678C499.076 314.381 498.727 313.951 498.48 313.389C498.238 312.822 498.117 312.143 498.117 311.35ZM501.105 313.98C501.578 313.98 501.941 313.828 502.195 313.523C502.453 313.219 502.582 312.783 502.582 312.217C502.582 311.725 502.461 311.338 502.219 311.057C501.98 310.775 501.621 310.635 501.141 310.635C500.844 310.635 500.57 310.699 500.32 310.828C500.07 310.953 499.873 311.127 499.729 311.35C499.584 311.568 499.512 311.793 499.512 312.023C499.512 312.574 499.66 313.039 499.957 313.418C500.258 313.793 500.641 313.98 501.105 313.98ZM505.922 315L509.309 307.658H504.855V306.445H510.779V307.406L507.41 315H505.922ZM511.828 311.35C511.828 307.998 513.193 306.322 515.924 306.322C516.354 306.322 516.717 306.355 517.014 306.422V307.57C516.717 307.484 516.373 307.441 515.982 307.441C515.064 307.441 514.375 307.688 513.914 308.18C513.453 308.672 513.203 309.461 513.164 310.547H513.234C513.418 310.23 513.676 309.986 514.008 309.814C514.34 309.639 514.73 309.551 515.18 309.551C515.957 309.551 516.562 309.789 516.996 310.266C517.43 310.742 517.646 311.389 517.646 312.205C517.646 313.104 517.395 313.814 516.891 314.338C516.391 314.857 515.707 315.117 514.84 315.117C514.227 315.117 513.693 314.971 513.24 314.678C512.787 314.381 512.438 313.951 512.191 313.389C511.949 312.822 511.828 312.143 511.828 311.35ZM514.816 313.98C515.289 313.98 515.652 313.828 515.906 313.523C516.164 313.219 516.293 312.783 516.293 312.217C516.293 311.725 516.172 311.338 515.93 311.057C515.691 310.775 515.332 310.635 514.852 310.635C514.555 310.635 514.281 310.699 514.031 310.828C513.781 310.953 513.584 311.127 513.439 311.35C513.295 311.568 513.223 311.793 513.223 312.023C513.223 312.574 513.371 313.039 513.668 313.418C513.969 313.793 514.352 313.98 514.816 313.98Z" fill="black"/>
<path d="M548.012 308.402C548.012 308.945 547.854 309.398 547.537 309.762C547.221 310.121 546.775 310.363 546.201 310.488V310.535C546.889 310.621 547.404 310.836 547.748 311.18C548.092 311.52 548.264 311.973 548.264 312.539C548.264 313.363 547.973 314 547.391 314.449C546.809 314.895 545.98 315.117 544.906 315.117C543.957 315.117 543.156 314.963 542.504 314.654V313.43C542.867 313.609 543.252 313.748 543.658 313.846C544.064 313.943 544.455 313.992 544.83 313.992C545.494 313.992 545.99 313.869 546.318 313.623C546.646 313.377 546.811 312.996 546.811 312.48C546.811 312.023 546.629 311.688 546.266 311.473C545.902 311.258 545.332 311.15 544.555 311.15H543.811V310.031H544.566C545.934 310.031 546.617 309.559 546.617 308.613C546.617 308.246 546.498 307.963 546.26 307.764C546.021 307.564 545.67 307.465 545.205 307.465C544.881 307.465 544.568 307.512 544.268 307.605C543.967 307.695 543.611 307.873 543.201 308.139L542.527 307.178C543.312 306.6 544.225 306.311 545.264 306.311C546.127 306.311 546.801 306.496 547.285 306.867C547.77 307.238 548.012 307.75 548.012 308.402ZM554.867 308.402C554.867 308.945 554.709 309.398 554.393 309.762C554.076 310.121 553.631 310.363 553.057 310.488V310.535C553.744 310.621 554.26 310.836 554.604 311.18C554.947 311.52 555.119 311.973 555.119 312.539C555.119 313.363 554.828 314 554.246 314.449C553.664 314.895 552.836 315.117 551.762 315.117C550.812 315.117 550.012 314.963 549.359 314.654V313.43C549.723 313.609 550.107 313.748 550.514 313.846C550.92 313.943 551.311 313.992 551.686 313.992C552.35 313.992 552.846 313.869 553.174 313.623C553.502 313.377 553.666 312.996 553.666 312.48C553.666 312.023 553.484 311.688 553.121 311.473C552.758 311.258 552.188 311.15 551.41 311.15H550.666V310.031H551.422C552.789 310.031 553.473 309.559 553.473 308.613C553.473 308.246 553.354 307.963 553.115 307.764C552.877 307.564 552.525 307.465 552.061 307.465C551.736 307.465 551.424 307.512 551.123 307.605C550.822 307.695 550.467 307.873 550.057 308.139L549.383 307.178C550.168 306.6 551.08 306.311 552.119 306.311C552.982 306.311 553.656 306.496 554.141 306.867C554.625 307.238 554.867 307.75 554.867 308.402ZM561.723 308.402C561.723 308.945 561.564 309.398 561.248 309.762C560.932 310.121 560.486 310.363 559.912 310.488V310.535C560.6 310.621 561.115 310.836 561.459 311.18C561.803 311.52 561.975 311.973 561.975 312.539C561.975 313.363 561.684 314 561.102 314.449C560.52 314.895 559.691 315.117 558.617 315.117C557.668 315.117 556.867 314.963 556.215 314.654V313.43C556.578 313.609 556.963 313.748 557.369 313.846C557.775 313.943 558.166 313.992 558.541 313.992C559.205 313.992 559.701 313.869 560.029 313.623C560.357 313.377 560.521 312.996 560.521 312.48C560.521 312.023 560.34 311.688 559.977 311.473C559.613 311.258 559.043 311.15 558.266 311.15H557.521V310.031H558.277C559.645 310.031 560.328 309.559 560.328 308.613C560.328 308.246 560.209 307.963 559.971 307.764C559.732 307.564 559.381 307.465 558.916 307.465C558.592 307.465 558.279 307.512 557.979 307.605C557.678 307.695 557.322 307.873 556.912 308.139L556.238 307.178C557.023 306.6 557.936 306.311 558.975 306.311C559.838 306.311 560.512 306.496 560.996 306.867C561.48 307.238 561.723 307.75 561.723 308.402ZM568.578 308.402C568.578 308.945 568.42 309.398 568.104 309.762C567.787 310.121 567.342 310.363 566.768 310.488V310.535C567.455 310.621 567.971 310.836 568.314 311.18C568.658 311.52 568.83 311.973 568.83 312.539C568.83 313.363 568.539 314 567.957 314.449C567.375 314.895 566.547 315.117 565.473 315.117C564.523 315.117 563.723 314.963 563.07 314.654V313.43C563.434 313.609 563.818 313.748 564.225 313.846C564.631 313.943 565.021 313.992 565.396 313.992C566.061 313.992 566.557 313.869 566.885 313.623C567.213 313.377 567.377 312.996 567.377 312.48C567.377 312.023 567.195 311.688 566.832 311.473C566.469 311.258 565.898 311.15 565.121 311.15H564.377V310.031H565.133C566.5 310.031 567.184 309.559 567.184 308.613C567.184 308.246 567.064 307.963 566.826 307.764C566.588 307.564 566.236 307.465 565.771 307.465C565.447 307.465 565.135 307.512 564.834 307.605C564.533 307.695 564.178 307.873 563.768 308.139L563.094 307.178C563.879 306.6 564.791 306.311 565.83 306.311C566.693 306.311 567.367 306.496 567.852 306.867C568.336 307.238 568.578 307.75 568.578 308.402ZM575.434 308.402C575.434 308.945 575.275 309.398 574.959 309.762C574.643 310.121 574.197 310.363 573.623 310.488V310.535C574.311 310.621 574.826 310.836 575.17 311.18C575.514 311.52 575.686 311.973 575.686 312.539C575.686 313.363 575.395 314 574.812 314.449C574.23 314.895 573.402 315.117 572.328 315.117C571.379 315.117 570.578 314.963 569.926 314.654V313.43C570.289 313.609 570.674 313.748 571.08 313.846C571.486 313.943 571.877 313.992 572.252 313.992C572.916 313.992 573.412 313.869 573.74 313.623C574.068 313.377 574.232 312.996 574.232 312.48C574.232 312.023 574.051 311.688 573.688 311.473C573.324 311.258 572.754 311.15 571.977 311.15H571.232V310.031H571.988C573.355 310.031 574.039 309.559 574.039 308.613C574.039 308.246 573.92 307.963 573.682 307.764C573.443 307.564 573.092 307.465 572.627 307.465C572.303 307.465 571.99 307.512 571.689 307.605C571.389 307.695 571.033 307.873 570.623 308.139L569.949 307.178C570.734 306.6 571.646 306.311 572.686 306.311C573.549 306.311 574.223 306.496 574.707 306.867C575.191 307.238 575.434 307.75 575.434 308.402ZM582.289 308.402C582.289 308.945 582.131 309.398 581.814 309.762C581.498 310.121 581.053 310.363 580.479 310.488V310.535C581.166 310.621 581.682 310.836 582.025 311.18C582.369 311.52 582.541 311.973 582.541 312.539C582.541 313.363 582.25 314 581.668 314.449C581.086 314.895 580.258 315.117 579.184 315.117C578.234 315.117 577.434 314.963 576.781 314.654V313.43C577.145 313.609 577.529 313.748 577.936 313.846C578.342 313.943 578.732 313.992 579.107 313.992C579.771 313.992 580.268 313.869 580.596 313.623C580.924 313.377 581.088 312.996 581.088 312.48C581.088 312.023 580.906 311.688 580.543 311.473C580.18 311.258 579.609 311.15 578.832 311.15H578.088V310.031H578.844C580.211 310.031 580.895 309.559 580.895 308.613C580.895 308.246 580.775 307.963 580.537 307.764C580.299 307.564 579.947 307.465 579.482 307.465C579.158 307.465 578.846 307.512 578.545 307.605C578.244 307.695 577.889 307.873 577.479 308.139L576.805 307.178C577.59 306.6 578.502 306.311 579.541 306.311C580.404 306.311 581.078 306.496 581.562 306.867C582.047 307.238 582.289 307.75 582.289 308.402Z" fill="black"/>
<path d="M246.639 289.131H245.484V291H244.143V289.131H240.229V288.07L244.143 282.41H245.484V287.988H246.639V289.131ZM244.143 287.988V285.838C244.143 285.072 244.162 284.445 244.201 283.957H244.154C244.045 284.215 243.873 284.527 243.639 284.895L241.512 287.988H244.143ZM253.189 286.717C253.189 288.205 252.949 289.311 252.469 290.033C251.992 290.756 251.262 291.117 250.277 291.117C249.324 291.117 248.602 290.744 248.109 289.998C247.617 289.252 247.371 288.158 247.371 286.717C247.371 285.205 247.609 284.092 248.086 283.377C248.566 282.658 249.297 282.299 250.277 282.299C251.234 282.299 251.959 282.674 252.451 283.424C252.943 284.174 253.189 285.271 253.189 286.717ZM248.766 286.717C248.766 287.885 248.885 288.719 249.123 289.219C249.365 289.719 249.75 289.969 250.277 289.969C250.805 289.969 251.189 289.715 251.432 289.207C251.678 288.699 251.801 287.869 251.801 286.717C251.801 285.568 251.678 284.738 251.432 284.227C251.189 283.711 250.805 283.453 250.277 283.453C249.75 283.453 249.365 283.705 249.123 284.209C248.885 284.713 248.766 285.549 248.766 286.717ZM255.211 291L258.598 283.658H254.145V282.445H260.068V283.406L256.699 291H255.211ZM266.889 286.09C266.889 287.777 266.549 289.037 265.869 289.869C265.189 290.701 264.166 291.117 262.799 291.117C262.279 291.117 261.906 291.086 261.68 291.023V289.869C262.027 289.967 262.377 290.016 262.729 290.016C263.658 290.016 264.352 289.766 264.809 289.266C265.266 288.766 265.516 287.98 265.559 286.91H265.488C265.258 287.262 264.979 287.516 264.65 287.672C264.326 287.828 263.945 287.906 263.508 287.906C262.75 287.906 262.154 287.67 261.721 287.197C261.287 286.725 261.07 286.076 261.07 285.252C261.07 284.357 261.32 283.646 261.82 283.119C262.324 282.588 263.01 282.322 263.877 282.322C264.486 282.322 265.018 282.471 265.471 282.768C265.924 283.064 266.273 283.496 266.52 284.062C266.766 284.625 266.889 285.301 266.889 286.09ZM263.9 283.465C263.424 283.465 263.059 283.621 262.805 283.934C262.551 284.242 262.424 284.678 262.424 285.24C262.424 285.729 262.541 286.113 262.775 286.395C263.014 286.672 263.373 286.811 263.854 286.811C264.318 286.811 264.709 286.672 265.025 286.395C265.342 286.117 265.5 285.793 265.5 285.422C265.5 285.074 265.432 284.75 265.295 284.449C265.162 284.145 264.975 283.904 264.732 283.729C264.49 283.553 264.213 283.465 263.9 283.465ZM268.553 282.434H271.096C272.275 282.434 273.127 282.605 273.65 282.949C274.178 283.293 274.441 283.836 274.441 284.578C274.441 285.078 274.312 285.494 274.055 285.826C273.797 286.158 273.426 286.367 272.941 286.453V286.512C273.543 286.625 273.984 286.85 274.266 287.186C274.551 287.518 274.693 287.969 274.693 288.539C274.693 289.309 274.424 289.912 273.885 290.35C273.35 290.783 272.604 291 271.646 291H268.553V282.434ZM269.953 285.973H271.301C271.887 285.973 272.314 285.881 272.584 285.697C272.854 285.51 272.988 285.193 272.988 284.748C272.988 284.346 272.842 284.055 272.549 283.875C272.26 283.695 271.799 283.605 271.166 283.605H269.953V285.973ZM269.953 287.109V289.822H271.441C272.027 289.822 272.469 289.711 272.766 289.488C273.066 289.262 273.217 288.906 273.217 288.422C273.217 287.977 273.064 287.646 272.76 287.432C272.455 287.217 271.992 287.109 271.371 287.109H269.953ZM280.119 283.512C279.314 283.512 278.682 283.797 278.221 284.367C277.76 284.938 277.529 285.725 277.529 286.729C277.529 287.779 277.75 288.574 278.191 289.113C278.637 289.652 279.279 289.922 280.119 289.922C280.482 289.922 280.834 289.887 281.174 289.816C281.514 289.742 281.867 289.648 282.234 289.535V290.736C281.562 290.99 280.801 291.117 279.949 291.117C278.695 291.117 277.732 290.738 277.061 289.98C276.389 289.219 276.053 288.131 276.053 286.717C276.053 285.826 276.215 285.047 276.539 284.379C276.867 283.711 277.34 283.199 277.957 282.844C278.574 282.488 279.299 282.311 280.131 282.311C281.006 282.311 281.814 282.494 282.557 282.861L282.053 284.027C281.764 283.891 281.457 283.771 281.133 283.67C280.812 283.564 280.475 283.512 280.119 283.512Z" fill="black"/>
</svg>
