<svg width="978" height="880" viewBox="0 0 978 880" fill="none" xmlns="http://www.w3.org/2000/svg">
<rect width="978" height="880" rx="15" fill="#F4F4F4"/>
<path d="M159 122C159 115.373 164.373 110 171 110H332C338.627 110 344 115.373 344 122V187C344 193.627 338.627 199 332 199H171C164.373 199 159 193.627 159 187V122Z" fill="#00A85B"/>
<path d="M159 258C159 251.373 164.373 246 171 246H332C338.627 246 344 251.373 344 258V323C344 329.627 338.627 335 332 335H171C164.373 335 159 329.627 159 323V258Z" fill="#FFCC2A"/>
<path d="M159 387C159 380.373 164.373 375 171 375H332C338.627 375 344 380.373 344 387V452C344 458.627 338.627 464 332 464H171C164.373 464 159 458.627 159 452V387Z" fill="#4079BC"/>
<path d="M159 516C159 509.373 164.373 504 171 504H332C338.627 504 344 509.373 344 516V581C344 587.627 338.627 593 332 593H171C164.373 593 159 587.627 159 581V516Z" fill="#29BCB6"/>
<path d="M159 645C159 638.373 164.373 633 171 633H332C338.627 633 344 638.373 344 645V710C344 716.627 338.627 722 332 722H171C164.373 722 159 716.627 159 710V645Z" fill="#515151"/>
<path d="M159 774C159 767.373 164.373 762 171 762H332C338.627 762 344 767.373 344 774V839C344 845.627 338.627 851 332 851H171C164.373 851 159 845.627 159 839V774Z" fill="#CCCCCC"/>
<path d="M418 122C418 115.373 423.373 110 430 110H591C597.627 110 603 115.373 603 122V187C603 193.627 597.627 199 591 199H430C423.373 199 418 193.627 418 187V122Z" fill="#1A814C"/>
<path d="M418 258C418 251.373 423.373 246 430 246H591C597.627 246 603 251.373 603 258V323C603 329.627 597.627 335 591 335H430C423.373 335 418 329.627 418 323V258Z" fill="#E6BB2E"/>
<path d="M418 387C418 380.373 423.373 375 430 375H591C597.627 375 603 380.373 603 387V452C603 458.627 597.627 464 591 464H430C423.373 464 418 458.627 418 452V387Z" fill="#346399"/>
<path d="M418 516C418 509.373 423.373 504 430 504H591C597.627 504 603 509.373 603 516V581C603 587.627 597.627 593 591 593H430C423.373 593 418 587.627 418 581V516Z" fill="#0E9994"/>
<path d="M418 645C418 638.373 423.373 633 430 633H591C597.627 633 603 638.373 603 645V710C603 716.627 597.627 722 591 722H430C423.373 722 418 716.627 418 710V645Z" fill="#333333"/>
<path d="M412 774C412 767.373 417.373 762 424 762H585C591.627 762 597 767.373 597 774V839C597 845.627 591.627 851 585 851H424C417.373 851 412 845.627 412 839V774Z" fill="#999999"/>
<path d="M633 122C633 115.373 638.373 110 645 110H807C813.627 110 819 115.373 819 122V187C819 193.627 813.627 199 807 199H645C638.373 199 633 193.627 633 187V122Z" fill="#61B788"/>
<path d="M633 258C633 251.373 638.373 246 645 246H806C812.627 246 818 251.373 818 258V323C818 329.627 812.627 335 806 335H645C638.373 335 633 329.627 633 323V258Z" fill="#FEE96A"/>
<path d="M633 387C633 380.373 638.373 375 645 375H806C812.627 375 818 380.373 818 387V452C818 458.627 812.627 464 806 464H645C638.373 464 633 458.627 633 452V387Z" fill="#6998D0"/>
<path d="M633 516C633 509.373 638.373 504 645 504H806C812.627 504 818 509.373 818 516V581C818 587.627 812.627 593 806 593H645C638.373 593 633 587.627 633 581V516Z" fill="#69D2CE"/>
<path d="M633 645C633 638.373 638.373 633 645 633H806C812.627 633 818 638.373 818 645V710C818 716.627 812.627 722 806 722H645C638.373 722 633 716.627 633 710V645Z" fill="#767676"/>
<path d="M633 774C633 767.373 638.373 762 645 762H806C812.627 762 818 767.373 818 774V839C818 845.627 812.627 851 806 851H645C638.373 851 633 845.627 633 839V774Z" fill="#E0E0E0"/>
<path d="M171.78 68.36C169.428 68.36 167.364 67.832 165.588 66.776C163.836 65.72 162.48 64.22 161.52 62.276C160.584 60.308 160.116 58.016 160.116 55.4C160.116 52.784 160.584 50.504 161.52 48.56C162.48 46.592 163.836 45.08 165.588 44.024C167.364 42.968 169.44 42.44 171.816 42.44C173.832 42.44 175.584 42.824 177.072 43.592C178.584 44.36 179.7 45.452 180.42 46.868L177.468 49.46C176.196 47.54 174.336 46.58 171.888 46.58C169.752 46.58 168.12 47.336 166.992 48.848C165.864 50.336 165.3 52.52 165.3 55.4C165.3 58.256 165.852 60.44 166.956 61.952C168.06 63.464 169.656 64.22 171.744 64.22C174.336 64.22 176.244 63.26 177.468 61.34L180.42 63.932C179.7 65.348 178.584 66.44 177.072 67.208C175.584 67.976 173.82 68.36 171.78 68.36ZM193.744 68.36C191.416 68.36 189.4 67.844 187.696 66.812C185.992 65.78 184.684 64.292 183.772 62.348C182.884 60.404 182.44 58.088 182.44 55.4C182.44 52.712 182.884 50.396 183.772 48.452C184.684 46.508 185.992 45.02 187.696 43.988C189.4 42.956 191.416 42.44 193.744 42.44C196.096 42.44 198.112 42.956 199.792 43.988C201.496 45.02 202.792 46.508 203.68 48.452C204.592 50.396 205.048 52.712 205.048 55.4C205.048 58.088 204.592 60.404 203.68 62.348C202.792 64.292 201.496 65.78 199.792 66.812C198.112 67.844 196.096 68.36 193.744 68.36ZM193.744 64.256C195.664 64.256 197.164 63.476 198.244 61.916C199.348 60.332 199.9 58.16 199.9 55.4C199.9 52.64 199.348 50.48 198.244 48.92C197.164 47.336 195.664 46.544 193.744 46.544C191.848 46.544 190.348 47.336 189.244 48.92C188.164 50.48 187.624 52.64 187.624 55.4C187.624 58.16 188.164 60.332 189.244 61.916C190.348 63.476 191.848 64.256 193.744 64.256ZM208.628 42.8H217.52C220.376 42.8 222.512 43.388 223.928 44.564C225.344 45.716 226.052 47.468 226.052 49.82C226.052 51.476 225.704 52.892 225.008 54.068C224.312 55.244 223.304 56.096 221.984 56.624V56.696C222.44 57.032 222.788 57.356 223.028 57.668C223.292 57.956 223.508 58.292 223.676 58.676L227.384 68H221.876L218.996 60.332C218.708 59.564 218.336 59.06 217.88 58.82C217.424 58.556 216.632 58.424 215.504 58.424H213.812V68H208.628V42.8ZM216.98 54.32C218.3 54.32 219.296 53.996 219.968 53.348C220.664 52.676 221.012 51.704 221.012 50.432C221.012 48.104 219.644 46.94 216.908 46.94H213.812V54.32H216.98ZM230.073 42.8H246.813V46.94H235.257V52.7H245.553V56.84H235.257V63.86H246.813V68H230.073V42.8ZM258.055 68.36C256.159 68.36 254.443 67.976 252.907 67.208C251.395 66.44 250.159 65.336 249.199 63.896L252.187 61.016C252.979 61.952 253.939 62.72 255.067 63.32C256.195 63.92 257.251 64.22 258.235 64.22C259.339 64.22 260.227 63.968 260.899 63.464C261.571 62.96 261.907 62.3 261.907 61.484C261.907 60.884 261.799 60.392 261.583 60.008C261.367 59.624 260.959 59.24 260.359 58.856C259.759 58.448 258.775 57.908 257.407 57.236C255.607 56.348 254.191 55.52 253.159 54.752C252.127 53.984 251.359 53.156 250.855 52.268C250.375 51.356 250.135 50.3 250.135 49.1C250.135 47.78 250.483 46.616 251.179 45.608C251.875 44.6 252.859 43.82 254.131 43.268C255.403 42.716 256.867 42.44 258.523 42.44C260.347 42.44 261.955 42.788 263.347 43.484C264.763 44.18 265.795 45.14 266.443 46.364L263.167 48.812C261.967 47.324 260.491 46.58 258.739 46.58C257.635 46.58 256.783 46.796 256.183 47.228C255.583 47.66 255.283 48.272 255.283 49.064C255.283 49.544 255.427 49.976 255.715 50.36C256.027 50.744 256.579 51.164 257.371 51.62C258.163 52.076 259.351 52.676 260.935 53.42C262.471 54.14 263.671 54.86 264.535 55.58C265.423 56.3 266.059 57.104 266.443 57.992C266.827 58.88 267.019 59.936 267.019 61.16C267.019 62.6 266.647 63.872 265.903 64.976C265.183 66.056 264.139 66.896 262.771 67.496C261.427 68.072 259.855 68.36 258.055 68.36Z" fill="black"/>
<path d="M440.752 42.8L432.004 68H427.288L418.54 42.8H423.94L429.664 61.412L435.352 42.8H440.752ZM455.392 63.824H446.716L445.456 68H440.056L448.768 42.8H453.34L462.052 68H456.652L455.392 63.824ZM454.132 59.684L451.072 49.604L447.976 59.684H454.132ZM465.026 42.8H473.918C476.774 42.8 478.91 43.388 480.326 44.564C481.742 45.716 482.45 47.468 482.45 49.82C482.45 51.476 482.102 52.892 481.406 54.068C480.71 55.244 479.702 56.096 478.382 56.624V56.696C478.838 57.032 479.186 57.356 479.426 57.668C479.69 57.956 479.906 58.292 480.074 58.676L483.782 68H478.274L475.394 60.332C475.106 59.564 474.734 59.06 474.278 58.82C473.822 58.556 473.03 58.424 471.902 58.424H470.21V68H465.026V42.8ZM473.378 54.32C474.698 54.32 475.694 53.996 476.366 53.348C477.062 52.676 477.41 51.704 477.41 50.432C477.41 48.104 476.042 46.94 473.306 46.94H470.21V54.32H473.378ZM487.263 42.8H492.411V68H487.263V42.8ZM511.536 63.824H502.86L501.6 68H496.2L504.912 42.8H509.484L518.196 68H512.796L511.536 63.824ZM510.276 59.684L507.216 49.604L504.12 59.684H510.276ZM530.377 64.22C532.969 64.22 534.877 63.26 536.101 61.34L539.053 63.932C538.429 65.156 537.505 66.152 536.281 66.92C535.057 67.664 533.605 68.12 531.925 68.288L530.737 70.376C531.745 70.376 532.561 70.616 533.185 71.096C533.809 71.6 534.121 72.284 534.121 73.148C534.121 74.204 533.725 75.056 532.933 75.704C532.165 76.376 531.145 76.712 529.873 76.712C529.273 76.712 528.649 76.64 528.001 76.496C527.377 76.352 526.873 76.172 526.489 75.956L526.957 73.976C527.725 74.264 528.517 74.408 529.333 74.408C529.837 74.408 530.221 74.3 530.485 74.084C530.749 73.892 530.881 73.616 530.881 73.256C530.881 72.872 530.653 72.572 530.197 72.356C529.765 72.164 529.189 72.092 528.469 72.14L527.425 70.952L528.937 68.288C526.873 68.072 525.073 67.412 523.537 66.308C522.001 65.204 520.813 63.716 519.973 61.844C519.157 59.972 518.749 57.824 518.749 55.4C518.749 52.784 519.217 50.504 520.153 48.56C521.113 46.592 522.469 45.08 524.221 44.024C525.997 42.968 528.073 42.44 530.449 42.44C532.465 42.44 534.217 42.824 535.705 43.592C537.217 44.36 538.333 45.452 539.053 46.868L536.101 49.46C534.829 47.54 532.969 46.58 530.521 46.58C528.385 46.58 526.753 47.336 525.625 48.848C524.497 50.336 523.933 52.52 523.933 55.4C523.933 58.256 524.485 60.44 525.589 61.952C526.693 63.464 528.289 64.22 530.377 64.22ZM552.377 68.36C550.049 68.36 548.033 67.844 546.329 66.812C544.625 65.78 543.317 64.292 542.405 62.348C541.517 60.404 541.073 58.088 541.073 55.4C541.073 52.712 541.517 50.396 542.405 48.452C543.317 46.508 544.625 45.02 546.329 43.988C548.033 42.956 550.049 42.44 552.377 42.44C554.729 42.44 556.745 42.956 558.425 43.988C560.129 45.02 561.425 46.508 562.313 48.452C563.225 50.396 563.681 52.712 563.681 55.4C563.681 58.088 563.225 60.404 562.313 62.348C561.425 64.292 560.129 65.78 558.425 66.812C556.745 67.844 554.729 68.36 552.377 68.36ZM552.377 64.256C554.297 64.256 555.797 63.476 556.877 61.916C557.981 60.332 558.533 58.16 558.533 55.4C558.533 52.64 557.981 50.48 556.877 48.92C555.797 47.336 554.297 46.544 552.377 46.544C550.481 46.544 548.981 47.336 547.877 48.92C546.797 50.48 546.257 52.64 546.257 55.4C546.257 58.16 546.797 60.332 547.877 61.916C548.981 63.476 550.481 64.256 552.377 64.256ZM546.257 40.82C546.257 39.38 546.617 38.264 547.337 37.472C548.081 36.68 548.981 36.284 550.037 36.284C550.517 36.284 550.973 36.38 551.405 36.572C551.837 36.74 552.305 36.98 552.809 37.292C553.097 37.46 553.373 37.616 553.637 37.76C553.925 37.904 554.177 37.976 554.393 37.976C555.041 37.976 555.365 37.364 555.365 36.14H558.245C558.245 37.676 557.861 38.84 557.093 39.632C556.349 40.424 555.437 40.82 554.357 40.82C553.853 40.82 553.397 40.736 552.989 40.568C552.581 40.376 552.029 40.088 551.333 39.704C550.733 39.32 550.325 39.128 550.109 39.128C549.845 39.128 549.617 39.284 549.425 39.596C549.257 39.908 549.161 40.316 549.137 40.82H546.257ZM567.261 42.8H584.001V46.94H572.445V52.7H582.741V56.84H572.445V63.86H584.001V68H567.261V42.8ZM595.243 68.36C593.347 68.36 591.631 67.976 590.095 67.208C588.583 66.44 587.347 65.336 586.387 63.896L589.375 61.016C590.167 61.952 591.127 62.72 592.255 63.32C593.383 63.92 594.439 64.22 595.423 64.22C596.527 64.22 597.415 63.968 598.087 63.464C598.759 62.96 599.095 62.3 599.095 61.484C599.095 60.884 598.987 60.392 598.771 60.008C598.555 59.624 598.147 59.24 597.547 58.856C596.947 58.448 595.963 57.908 594.595 57.236C592.795 56.348 591.379 55.52 590.347 54.752C589.315 53.984 588.547 53.156 588.043 52.268C587.563 51.356 587.323 50.3 587.323 49.1C587.323 47.78 587.671 46.616 588.367 45.608C589.063 44.6 590.047 43.82 591.319 43.268C592.591 42.716 594.055 42.44 595.711 42.44C597.535 42.44 599.143 42.788 600.535 43.484C601.951 44.18 602.983 45.14 603.631 46.364L600.355 48.812C599.155 47.324 597.679 46.58 595.927 46.58C594.823 46.58 593.971 46.796 593.371 47.228C592.771 47.66 592.471 48.272 592.471 49.064C592.471 49.544 592.615 49.976 592.903 50.36C593.215 50.744 593.767 51.164 594.559 51.62C595.351 52.076 596.539 52.676 598.123 53.42C599.659 54.14 600.859 54.86 601.723 55.58C602.611 56.3 603.247 57.104 603.631 57.992C604.015 58.88 604.207 59.936 604.207 61.16C604.207 62.6 603.835 63.872 603.091 64.976C602.371 66.056 601.327 66.896 599.959 67.496C598.615 68.072 597.043 68.36 595.243 68.36Z" fill="black"/>
</svg>
